{"glyphs":{"0":{"ha":775,"x_min":75,"x_max":700,"o":"m 75 400 q 162 696 75 588 q 389 804 249 804 q 615 699 531 804 q 700 401 700 594 q 615 97 700 213 q 389 -18 531 -18 q 161 94 247 -18 q 75 400 75 207 m 146 404 q 214 140 146 242 q 389 39 282 39 q 560 140 492 39 q 629 397 629 242 q 563 653 629 558 q 389 747 496 747 q 215 653 283 747 q 146 404 146 558 z "},"1":{"ha":510,"x_min":75,"x_max":443,"o":"m 443 0 l 88 0 l 75 54 l 233 54 l 233 706 l 104 618 l 79 668 l 253 786 l 301 786 l 301 54 l 433 54 l 443 0 z "},"2":{"ha":665,"x_min":42,"x_max":604,"o":"m 311 804 q 503 731 444 804 q 561 581 561 658 q 507 432 561 503 q 354 272 453 361 l 111 54 l 593 54 l 604 0 l 42 0 l 42 69 l 326 331 q 453 462 417 413 q 489 579 489 511 q 443 699 489 649 q 308 749 397 749 q 179 717 239 749 q 118 685 119 686 l 88 732 q 153 768 89 732 q 311 804 217 804 z "},"3":{"ha":661,"x_min":28,"x_max":586,"o":"m 313 804 q 506 735 442 804 q 569 579 569 667 q 523 449 569 504 q 411 372 476 393 q 538 293 489 354 q 586 147 586 232 q 506 -33 586 40 q 292 -106 426 -106 q 144 -83 214 -106 q 28 -33 75 -60 l 74 14 q 171 -32 122 -15 q 296 -49 219 -49 q 447 6 379 -49 q 515 144 515 60 q 451 288 515 233 q 242 343 386 343 l 217 343 l 203 397 l 250 397 q 433 448 367 397 q 499 578 499 499 q 447 693 499 639 q 308 747 396 747 q 176 724 233 747 q 86 679 119 701 l 43 722 q 163 781 97 757 q 313 804 229 804 z "},"4":{"ha":725,"x_min":14,"x_max":683,"o":"m 672 103 l 521 103 l 521 -96 l 453 -96 l 453 103 l 26 103 l 14 174 l 482 793 l 521 793 l 521 157 l 683 157 l 672 103 m 83 157 l 453 157 l 453 653 l 83 157 z "},"5":{"ha":704,"x_min":67,"x_max":638,"o":"m 122 319 l 143 786 l 583 786 l 579 732 l 206 732 l 190 401 q 271 444 228 429 q 349 458 314 458 q 569 376 501 458 q 638 181 638 293 q 556 -20 638 65 q 317 -106 474 -106 q 178 -84 240 -106 q 67 -36 115 -62 l 100 14 q 203 -32 149 -15 q 322 -49 258 -49 q 502 16 439 -49 q 565 181 565 81 q 508 341 565 281 q 354 401 450 401 q 249 376 299 401 q 172 319 200 350 l 122 319 z "},"6":{"ha":703,"x_min":75,"x_max":647,"o":"m 457 881 l 490 835 q 269 685 365 797 q 146 419 174 572 q 242 506 176 475 q 371 538 307 538 q 576 453 504 538 q 647 264 647 369 q 571 69 647 156 q 372 -18 494 -18 q 158 79 240 -18 q 75 361 75 176 q 181 674 75 514 q 457 881 288 833 m 576 257 q 522 415 576 350 q 371 481 468 481 q 236 437 294 481 q 147 344 178 393 q 203 126 149 214 q 369 39 258 39 q 522 108 468 39 q 576 257 576 178 z "},"7":{"ha":638,"x_min":42,"x_max":596,"o":"m 74 -68 l 524 732 l 53 732 l 42 786 l 565 786 l 596 746 l 138 -96 l 74 -68 z "},"8":{"ha":735,"x_min":75,"x_max":660,"o":"m 368 893 q 562 822 503 893 q 621 668 621 750 q 574 547 621 597 q 471 471 526 496 q 602 388 544 453 q 660 235 660 322 q 588 58 660 135 q 368 -18 515 -18 q 147 56 219 -18 q 75 235 75 131 q 131 381 75 310 q 265 471 186 453 q 158 547 201 496 q 114 668 114 599 q 174 824 114 756 q 368 893 235 893 m 364 836 q 227 785 271 836 q 183 672 183 733 q 231 563 183 614 q 368 500 279 513 q 504 565 456 513 q 553 672 553 617 q 507 786 553 736 q 364 836 461 836 m 368 439 q 201 365 257 425 q 146 225 146 304 q 210 92 146 146 q 368 39 274 39 q 524 92 458 39 q 589 225 589 144 q 533 365 589 304 q 368 439 478 425 z "},"9":{"ha":703,"x_min":56,"x_max":628,"o":"m 246 -96 l 213 -50 q 433 100 338 -12 q 557 365 529 213 q 461 278 526 310 q 332 247 396 247 q 127 331 199 247 q 56 521 56 415 q 132 716 56 629 q 331 803 208 803 q 544 706 461 803 q 628 424 628 608 q 522 111 628 271 q 246 -96 415 -49 m 126 528 q 181 369 126 435 q 332 304 235 304 q 467 348 408 304 q 556 440 525 392 q 499 658 554 571 q 333 746 444 746 q 181 676 235 746 q 126 528 126 607 z "},"\u0000":{"ha":0,"x_min":0,"x_max":0,"o":""},"\r":{"ha":0,"x_min":0,"x_max":0,"o":""}," ":{"ha":319,"x_min":0,"x_max":0,"o":""}," ":{"ha":319,"x_min":0,"x_max":0,"o":""},"‌":{"ha":0,"x_min":-35,"x_max":33,"o":"m -35 1718 l 33 1718 l 33 -94 l -35 -94 l -35 1718 z "},"‍":{"ha":0,"x_min":-157,"x_max":158,"o":"m 103 1833 l 158 1778 l 56 1675 l 158 1572 l 104 1518 l 33 1579 l 33 -94 l -35 -94 l -35 1578 l -103 1518 l -157 1572 l -54 1675 l -157 1778 l -101 1833 l 0 1731 l 103 1833 z "},"◌":{"ha":933,"x_min":69,"x_max":864,"o":"m 465 708 q 433 721 446 708 q 421 753 421 733 q 433 785 421 772 q 465 799 446 799 q 498 785 485 799 q 511 753 511 772 q 498 721 511 733 q 465 708 485 708 m 604 685 q 572 697 585 685 q 560 729 560 710 q 572 762 560 749 q 604 775 585 775 q 637 762 624 775 q 650 729 650 749 q 637 697 650 710 q 604 685 624 685 m 329 775 q 361 762 349 775 q 374 729 374 749 q 361 697 374 710 q 329 685 349 685 q 297 697 310 685 q 283 729 283 710 q 297 762 283 749 q 329 775 310 775 m 722 607 q 690 619 703 607 q 678 651 678 632 q 690 684 678 671 q 722 697 703 697 q 755 684 742 697 q 768 651 768 671 q 755 619 768 632 q 722 607 742 607 m 211 697 q 243 684 231 697 q 256 651 256 671 q 243 619 256 632 q 211 607 231 607 q 178 619 192 607 q 165 651 165 632 q 178 684 165 671 q 211 697 192 697 m 796 485 q 764 497 776 485 q 751 529 751 510 q 764 562 751 549 q 796 575 776 575 q 828 562 815 575 q 842 529 842 549 q 828 497 842 510 q 796 485 815 485 m 138 575 q 169 562 157 575 q 182 529 182 549 q 169 497 182 510 q 138 485 157 485 q 105 497 118 485 q 92 529 92 510 q 105 562 92 549 q 138 575 118 575 m 818 353 q 786 365 799 353 q 774 397 774 378 q 786 430 774 417 q 818 443 799 443 q 851 430 838 443 q 864 397 864 417 q 851 365 864 378 q 818 353 838 353 m 115 443 q 147 430 135 443 q 160 397 160 417 q 147 365 160 378 q 115 353 135 353 q 83 365 96 353 q 69 397 69 378 q 83 430 69 417 q 115 443 96 443 m 796 224 q 764 236 776 224 q 751 268 751 249 q 764 301 751 288 q 796 314 776 314 q 828 301 815 314 q 842 268 842 288 q 828 236 842 249 q 796 224 815 224 m 138 314 q 169 301 157 314 q 182 268 182 288 q 169 236 182 249 q 138 224 157 224 q 105 236 118 224 q 92 268 92 249 q 105 301 92 288 q 138 314 118 314 m 724 100 q 692 113 704 100 q 679 144 679 125 q 692 177 679 164 q 724 190 704 190 q 756 177 743 190 q 769 144 769 164 q 756 113 769 125 q 724 100 743 100 m 210 190 q 242 177 229 190 q 254 144 254 164 q 242 113 254 125 q 210 100 229 100 q 177 113 190 100 q 164 144 164 125 q 177 177 164 164 q 210 190 190 190 m 329 114 q 361 101 349 114 q 374 68 374 88 q 361 36 374 49 q 329 24 349 24 q 297 36 310 24 q 283 68 283 49 q 297 101 283 88 q 329 114 310 114 m 604 24 q 572 36 585 24 q 560 68 560 49 q 572 101 560 88 q 604 114 585 114 q 637 101 624 114 q 650 68 650 88 q 637 36 650 49 q 604 24 624 24 m 465 0 q 433 13 446 0 q 421 44 421 25 q 433 77 421 64 q 465 90 446 90 q 498 77 485 90 q 511 44 511 64 q 498 13 511 25 q 465 0 485 0 z "},"A":{"ha":822,"x_min":28,"x_max":794,"o":"m 404 853 l 222 350 l 593 350 l 404 853 m 435 944 l 794 15 l 725 0 l 613 296 l 203 296 l 96 0 l 28 0 l 371 944 l 435 944 z "},"B":{"ha":813,"x_min":139,"x_max":729,"o":"m 139 0 l 139 944 l 322 944 q 567 892 471 944 q 663 699 663 840 q 628 579 663 628 q 536 503 593 531 q 676 418 622 476 q 729 261 729 360 q 624 56 729 113 q 374 0 519 0 l 139 0 m 339 890 l 208 890 l 208 517 l 335 517 q 517 558 443 518 q 590 697 590 597 q 522 848 590 806 q 339 890 453 890 m 406 463 l 208 463 l 208 54 l 390 54 q 579 101 501 54 q 657 258 657 149 q 588 413 657 364 q 406 463 519 463 z "},"C":{"ha":790,"x_min":92,"x_max":721,"o":"m 693 863 q 608 892 650 881 q 492 904 567 904 q 256 785 343 903 q 168 468 168 668 q 243 169 168 299 q 479 40 318 40 q 602 53 554 40 q 688 82 650 65 l 721 32 q 614 -4 682 11 q 486 -19 546 -19 q 181 127 269 -19 q 92 467 92 274 q 191 819 92 674 q 494 964 290 964 q 610 951 538 964 q 721 913 682 939 l 693 863 z "},"D":{"ha":914,"x_min":139,"x_max":822,"o":"m 139 0 l 139 944 l 422 944 q 731 808 640 944 q 822 478 822 671 q 724 140 822 281 q 418 0 625 0 l 139 0 m 433 890 l 207 890 l 207 54 l 419 54 q 660 174 568 54 q 751 476 751 294 q 673 767 751 644 q 433 890 594 890 z "},"E":{"ha":715,"x_min":139,"x_max":660,"o":"m 139 0 l 139 944 l 621 944 l 628 890 l 207 890 l 207 511 l 485 511 l 492 457 l 207 457 l 207 54 l 651 54 l 660 0 l 139 0 z "},"F":{"ha":657,"x_min":139,"x_max":615,"o":"m 478 451 l 207 451 l 207 0 l 139 0 l 139 944 l 606 944 l 615 890 l 207 890 l 207 506 l 469 506 l 478 451 z "},"G":{"ha":875,"x_min":92,"x_max":764,"o":"m 489 475 l 761 475 l 761 43 q 653 -1 722 17 q 525 -19 585 -19 q 201 120 310 -19 q 92 467 92 260 q 211 824 92 683 q 533 964 331 964 q 651 951 576 964 q 764 913 725 939 l 738 867 q 652 896 694 885 q 536 907 610 907 q 265 780 361 907 q 168 451 168 653 q 265 151 168 261 q 524 40 363 40 q 616 50 574 40 q 693 72 658 60 l 693 421 l 481 421 l 489 475 z "},"H":{"ha":882,"x_min":139,"x_max":743,"o":"m 675 0 l 675 451 l 207 451 l 207 0 l 139 0 l 139 944 l 207 951 l 207 506 l 675 506 l 675 944 l 743 944 l 743 0 l 675 0 z "},"I":{"ha":346,"x_min":139,"x_max":207,"o":"m 139 0 l 139 944 l 207 944 l 207 0 l 139 0 z "},"J":{"ha":343,"x_min":28,"x_max":218,"o":"m 150 179 l 150 944 l 218 944 l 218 169 q 190 43 218 86 q 61 -31 161 0 l 28 14 q 124 68 97 40 q 150 179 150 96 z "},"K":{"ha":806,"x_min":139,"x_max":792,"o":"m 721 921 l 374 551 l 792 0 l 706 0 l 328 503 l 207 374 l 207 0 l 139 0 l 139 944 l 207 944 l 207 451 l 674 965 l 721 921 z "},"L":{"ha":682,"x_min":139,"x_max":654,"o":"m 654 0 l 139 0 l 139 944 l 207 944 l 207 54 l 647 54 l 654 0 z "},"M":{"ha":1004,"x_min":139,"x_max":865,"o":"m 490 340 l 207 779 l 207 0 l 139 0 l 139 944 l 169 944 l 501 442 l 828 944 l 865 944 l 865 0 l 797 0 l 797 786 l 518 346 l 490 340 z "},"N":{"ha":914,"x_min":139,"x_max":775,"o":"m 139 0 l 139 944 l 178 944 l 660 236 l 707 154 l 707 944 l 775 944 l 775 0 l 738 0 l 226 757 l 207 797 l 207 0 l 139 0 z "},"O":{"ha":971,"x_min":92,"x_max":879,"o":"m 490 967 q 788 819 696 967 q 879 479 879 672 q 778 132 879 283 q 482 -19 678 -19 q 183 128 275 -19 q 92 468 92 276 q 194 821 92 675 q 490 967 297 967 m 168 469 q 243 169 168 300 q 479 38 318 38 q 715 166 628 38 q 803 478 803 294 q 728 778 803 647 q 492 908 654 908 q 256 780 343 908 q 168 469 168 651 z "},"P":{"ha":781,"x_min":139,"x_max":706,"o":"m 139 0 l 139 944 l 365 944 q 609 879 513 944 q 706 660 706 814 q 601 437 706 507 q 350 367 497 367 l 207 367 l 207 0 l 139 0 m 382 889 l 207 889 l 207 421 l 367 421 q 557 481 478 421 q 636 658 636 540 q 566 835 636 781 q 382 889 496 889 z "},"Q":{"ha":971,"x_min":92,"x_max":879,"o":"m 490 967 q 788 819 696 967 q 879 479 879 672 q 851 280 879 375 q 767 115 822 185 l 869 15 l 825 -19 l 726 72 q 618 5 679 29 q 482 -19 557 -19 q 183 128 275 -19 q 92 468 92 276 q 194 821 92 675 q 490 967 297 967 m 168 469 q 243 169 168 300 q 479 38 318 38 q 588 59 539 38 q 676 119 638 81 l 529 258 l 576 304 l 717 165 q 781 306 758 225 q 803 478 803 386 q 728 778 803 647 q 492 908 654 908 q 256 780 343 908 q 168 469 168 651 z "},"R":{"ha":822,"x_min":139,"x_max":781,"o":"m 368 889 l 207 889 l 207 451 l 353 451 q 547 503 458 451 q 636 672 636 554 q 556 841 636 793 q 368 889 476 889 m 365 944 q 609 884 513 944 q 706 675 706 824 q 658 519 706 579 q 535 429 610 458 l 781 0 l 704 0 l 476 411 q 414 401 446 404 q 350 397 382 397 l 207 397 l 207 0 l 139 0 l 139 944 l 365 944 z "},"S":{"ha":742,"x_min":92,"x_max":667,"o":"m 119 94 q 218 58 156 76 q 350 40 281 40 q 533 95 469 40 q 596 222 596 150 q 344 458 596 375 q 92 743 92 542 q 168 903 92 839 q 378 967 244 967 q 508 950 447 967 q 611 913 569 933 l 581 863 q 499 894 544 879 q 381 910 453 910 q 222 859 281 910 q 164 736 164 808 q 415 492 164 578 q 667 218 667 407 q 586 48 667 114 q 351 -18 506 -18 q 207 1 292 -18 q 99 40 122 19 l 119 94 z "},"T":{"ha":714,"x_min":28,"x_max":686,"o":"m 686 890 l 390 890 l 390 0 l 322 0 l 322 890 l 28 890 l 28 944 l 679 944 l 686 890 z "},"U":{"ha":903,"x_min":125,"x_max":778,"o":"m 193 328 q 263 124 193 207 q 451 40 332 40 q 642 124 575 40 q 710 328 710 207 l 710 944 l 778 944 l 778 332 q 695 82 778 181 q 451 -17 613 -17 q 208 82 292 -17 q 125 332 125 181 l 125 944 l 193 944 l 193 328 z "},"V":{"ha":822,"x_min":28,"x_max":794,"o":"m 388 0 l 28 929 l 97 944 l 418 92 l 726 944 l 794 944 l 451 0 l 388 0 z "},"W":{"ha":1319,"x_min":28,"x_max":1292,"o":"m 929 0 l 657 828 l 396 0 l 332 0 l 28 929 l 97 944 l 363 99 l 626 944 l 694 944 l 960 99 l 1224 944 l 1292 944 l 993 0 l 929 0 z "},"X":{"ha":810,"x_min":28,"x_max":782,"o":"m 28 0 l 365 482 l 57 929 l 133 944 l 418 526 l 707 944 l 782 944 l 456 468 l 782 0 l 700 0 l 404 432 l 100 -14 l 28 0 z "},"Y":{"ha":744,"x_min":14,"x_max":731,"o":"m 335 0 l 335 374 l 14 929 l 90 944 l 368 446 l 651 944 l 731 944 l 403 381 l 403 0 l 335 0 z "},"Z":{"ha":721,"x_min":42,"x_max":679,"o":"m 658 0 l 50 0 l 42 69 l 615 890 l 93 890 l 79 944 l 672 944 l 679 876 l 110 54 l 651 54 l 658 0 z "},"a":{"ha":668,"x_min":72,"x_max":568,"o":"m 143 189 q 186 83 143 126 q 304 39 229 39 q 419 72 369 39 q 500 151 468 104 l 500 339 l 318 339 q 185 295 226 339 q 143 189 143 251 m 119 633 q 226 676 158 660 q 335 692 293 692 q 509 631 450 692 q 568 472 568 571 l 568 0 l 529 0 l 504 72 q 416 8 469 33 q 299 -18 363 -18 q 128 42 185 -18 q 72 189 72 101 q 140 338 72 285 q 313 390 207 390 l 500 390 l 500 474 q 460 589 500 543 q 339 635 421 635 q 229 621 271 635 q 146 588 188 607 l 119 633 z "},"b":{"ha":722,"x_min":111,"x_max":656,"o":"m 111 0 l 111 967 l 179 981 l 179 617 q 270 670 221 649 q 367 692 319 692 q 585 591 515 692 q 656 336 656 490 q 585 82 656 182 q 367 -18 515 -18 q 266 3 318 -18 q 171 60 214 25 l 150 0 l 111 0 m 179 119 q 275 59 222 79 q 369 39 328 39 q 534 126 483 39 q 585 335 585 213 q 534 547 585 458 q 369 635 483 635 q 275 614 328 635 q 179 553 222 593 l 179 119 z "},"c":{"ha":624,"x_min":67,"x_max":557,"o":"m 550 39 q 454 -3 508 13 q 357 -18 400 -18 q 138 83 208 -18 q 67 340 67 183 q 142 592 67 492 q 367 692 218 692 q 462 676 407 692 q 557 633 517 660 l 529 588 q 461 619 494 604 q 364 635 428 635 q 195 547 253 635 q 138 342 138 460 q 190 128 138 218 q 357 39 243 39 q 456 53 426 39 q 522 86 486 68 l 550 39 z "},"d":{"ha":722,"x_min":67,"x_max":611,"o":"m 543 554 q 447 615 500 594 q 353 635 394 635 q 188 548 239 635 q 138 339 138 461 q 188 127 138 215 q 353 39 239 39 q 447 60 394 39 q 543 121 500 81 l 543 554 m 611 979 l 611 0 l 574 0 l 551 60 q 456 3 508 25 q 356 -18 404 -18 q 138 81 208 -18 q 67 335 67 181 q 138 591 67 490 q 356 692 208 692 q 452 670 401 692 q 543 617 503 649 l 543 967 l 611 979 z "},"e":{"ha":689,"x_min":67,"x_max":622,"o":"m 622 336 l 138 336 q 194 127 139 215 q 375 39 250 39 q 494 53 449 39 q 574 86 539 68 l 601 35 q 493 -5 560 8 q 386 -18 426 -18 q 144 83 221 -18 q 67 340 67 183 q 140 592 67 492 q 361 692 213 692 q 550 591 478 692 q 622 336 622 490 m 550 388 q 496 560 540 486 q 351 635 451 635 q 201 560 251 635 q 140 388 150 486 l 550 388 z "},"f":{"ha":378,"x_min":39,"x_max":378,"o":"m 39 653 l 140 653 l 140 782 q 176 922 140 869 q 286 975 211 975 q 339 969 314 975 q 378 957 364 963 l 361 906 q 335 914 353 910 q 304 918 318 918 q 230 886 251 918 q 208 804 208 854 l 208 653 l 331 653 l 360 601 l 208 601 l 208 0 l 140 0 l 140 601 l 39 601 l 39 653 z "},"g":{"ha":722,"x_min":67,"x_max":611,"o":"m 543 554 q 447 615 500 594 q 353 635 394 635 q 188 548 239 635 q 138 339 138 461 q 188 127 138 215 q 353 39 239 39 q 447 60 394 39 q 543 121 500 81 l 543 554 m 611 -74 q 551 -240 611 -174 q 358 -307 490 -307 q 250 -292 318 -307 q 143 -250 182 -276 l 169 -201 q 254 -236 217 -222 q 356 -250 292 -250 q 492 -210 440 -250 q 543 -87 543 -171 l 543 56 q 452 2 503 22 q 356 -18 401 -18 q 138 81 208 -18 q 67 335 67 181 q 138 591 67 490 q 356 692 208 692 q 456 669 404 692 q 550 611 508 646 l 574 674 l 611 674 l 611 -74 z "},"h":{"ha":717,"x_min":111,"x_max":617,"o":"m 111 0 l 111 967 l 179 981 l 179 571 q 288 656 222 619 q 417 692 354 692 q 571 628 525 692 q 617 468 617 565 l 617 1 l 549 1 l 549 468 q 515 585 549 538 q 407 635 481 633 q 294 601 363 635 q 179 507 226 567 l 179 0 l 111 0 z "},"i":{"ha":301,"x_min":97,"x_max":204,"o":"m 150 833 q 112 849 126 833 q 97 886 97 864 q 112 924 97 908 q 150 939 126 939 q 188 924 172 939 q 204 886 204 908 q 188 849 204 864 q 150 833 172 833 m 117 0 l 117 674 l 185 674 l 185 0 l 117 0 z "},"j":{"ha":301,"x_min":-18,"x_max":204,"o":"m 150 833 q 112 849 126 833 q 97 886 97 864 q 112 924 97 908 q 150 939 126 939 q 188 924 172 939 q 204 886 204 908 q 188 849 204 864 q 150 833 172 833 m 117 -75 l 117 674 l 185 674 l 185 -86 q 146 -223 185 -174 q 7 -304 107 -272 l -18 -254 q 84 -191 51 -228 q 117 -75 117 -154 z "},"k":{"ha":629,"x_min":111,"x_max":624,"o":"m 111 0 l 111 967 l 179 981 l 179 367 l 492 692 l 543 649 l 328 435 l 624 0 l 542 0 l 282 389 l 179 286 l 179 0 l 111 0 z "},"l":{"ha":290,"x_min":111,"x_max":179,"o":"m 111 0 l 111 967 l 179 981 l 179 0 l 111 0 z "},"m":{"ha":1101,"x_min":111,"x_max":1001,"o":"m 111 0 l 111 674 l 150 674 l 178 592 q 280 663 221 633 q 394 692 339 692 q 508 661 468 692 q 571 579 549 631 q 678 658 614 625 q 801 692 742 692 q 956 628 911 692 q 1001 468 1001 565 l 1001 0 l 933 0 l 933 468 q 899 585 933 538 q 792 635 864 633 q 691 606 744 635 q 590 525 638 576 q 592 504 592 513 q 593 485 593 496 l 593 0 l 525 0 l 525 468 q 492 585 525 538 q 386 635 458 633 q 282 605 338 635 q 179 519 226 575 l 179 0 l 111 0 z "},"n":{"ha":717,"x_min":111,"x_max":617,"o":"m 111 0 l 111 674 l 150 674 l 178 568 q 288 655 221 618 q 417 692 354 692 q 571 628 525 692 q 617 468 617 565 l 617 0 l 549 0 l 549 468 q 515 585 549 538 q 407 635 481 633 q 294 600 363 635 q 179 506 226 565 l 179 0 l 111 0 z "},"o":{"ha":690,"x_min":67,"x_max":624,"o":"m 335 -18 q 128 85 189 -18 q 67 340 67 188 q 136 590 68 489 q 349 692 204 692 q 560 590 497 692 q 624 332 624 488 q 552 81 624 179 q 335 -18 481 -18 m 553 332 q 509 545 553 453 q 351 638 465 638 q 189 549 240 638 q 138 342 138 460 q 181 127 138 218 q 336 36 224 36 q 501 124 449 36 q 553 332 553 211 z "},"p":{"ha":722,"x_min":111,"x_max":656,"o":"m 179 119 q 275 59 222 79 q 369 39 328 39 q 534 126 483 39 q 585 335 585 213 q 534 547 585 458 q 369 635 483 635 q 275 614 328 635 q 179 553 222 593 l 179 119 m 111 -304 l 111 674 l 150 674 l 171 611 q 266 668 214 644 q 367 692 318 692 q 585 591 515 692 q 656 336 656 490 q 585 82 656 182 q 367 -18 515 -18 q 270 2 319 -18 q 179 56 221 22 l 179 -289 l 111 -304 z "},"q":{"ha":722,"x_min":67,"x_max":611,"o":"m 611 674 l 611 -289 l 543 -304 l 543 56 q 452 2 503 22 q 356 -18 401 -18 q 138 81 208 -18 q 67 335 67 181 q 138 591 67 490 q 356 692 208 692 q 456 668 404 692 q 551 611 508 644 l 574 674 l 611 674 m 543 554 q 447 615 500 594 q 353 635 394 635 q 188 548 239 635 q 138 339 138 461 q 188 127 138 215 q 353 39 239 39 q 447 60 394 39 q 543 121 500 81 l 543 554 z "},"r":{"ha":431,"x_min":111,"x_max":406,"o":"m 111 0 l 111 674 l 150 674 l 175 581 q 270 642 211 611 q 382 674 329 674 l 406 621 q 280 587 342 621 q 179 510 218 553 l 179 0 l 111 0 z "},"s":{"ha":594,"x_min":78,"x_max":528,"o":"m 103 92 q 185 56 139 74 q 285 39 232 39 q 415 74 368 39 q 463 165 463 108 q 411 251 463 214 q 285 318 360 289 q 148 394 207 349 q 89 506 89 440 q 148 638 89 585 q 321 692 207 692 q 420 676 364 692 q 511 636 476 661 l 483 588 q 415 618 456 601 q 311 635 374 635 q 197 597 240 635 q 154 511 154 560 q 204 431 154 464 q 324 369 254 397 q 467 289 406 336 q 528 171 528 242 q 469 32 528 82 q 282 -18 411 -18 q 178 -5 240 -18 q 78 35 117 8 l 103 92 z "},"t":{"ha":400,"x_min":25,"x_max":361,"o":"m 344 601 l 193 601 l 193 171 q 215 80 193 121 q 288 39 236 39 q 320 44 303 39 q 344 51 338 49 l 361 -1 q 323 -11 347 -4 q 269 -18 299 -18 q 165 28 204 -18 q 125 161 125 74 l 125 601 l 25 601 l 25 653 l 125 653 l 125 835 l 193 865 l 193 653 l 315 653 l 344 601 z "},"u":{"ha":689,"x_min":100,"x_max":578,"o":"m 578 674 l 578 0 l 538 0 l 511 76 q 412 10 468 38 q 301 -17 356 -17 q 145 46 190 -17 q 100 208 100 108 l 100 674 l 168 674 l 168 204 q 203 88 168 136 q 308 40 238 40 q 404 66 347 40 q 510 138 461 92 l 510 674 l 578 674 z "},"v":{"ha":606,"x_min":14,"x_max":592,"o":"m 276 0 l 14 660 l 86 674 l 308 78 l 522 674 l 592 674 l 342 0 l 276 0 z "},"w":{"ha":1011,"x_min":14,"x_max":997,"o":"m 704 0 l 501 568 l 314 0 l 249 0 l 14 660 l 86 674 l 279 89 l 478 674 l 536 674 l 739 89 l 928 674 l 997 674 l 769 0 l 704 0 z "},"x":{"ha":618,"x_min":14,"x_max":604,"o":"m 14 0 l 263 339 l 33 660 l 101 674 l 315 371 l 529 674 l 604 674 l 351 322 l 586 0 l 510 0 l 297 288 l 92 0 l 14 0 z "},"y":{"ha":606,"x_min":14,"x_max":592,"o":"m 276 0 l 14 660 l 86 674 l 308 78 l 522 674 l 592 674 l 288 -156 q 218 -251 267 -212 q 103 -304 169 -290 l 96 -251 q 182 -208 149 -233 q 233 -136 215 -183 l 276 0 z "},"z":{"ha":608,"x_min":44,"x_max":567,"o":"m 567 629 l 124 51 l 544 51 l 558 0 l 56 0 l 44 43 l 483 622 l 107 622 l 85 674 l 563 674 l 567 629 z "},"ﬁ":{"ha":679,"x_min":39,"x_max":582,"o":"m 39 653 l 140 653 l 140 782 q 176 922 140 869 q 286 975 211 975 q 339 969 314 975 q 378 957 364 963 l 361 906 q 335 914 353 910 q 304 918 318 918 q 230 886 251 918 q 208 804 208 854 l 208 653 l 331 653 l 360 601 l 208 601 l 208 0 l 140 0 l 140 601 l 39 601 l 39 653 m 528 833 q 490 849 504 833 q 475 886 475 864 q 490 924 475 908 q 528 939 504 939 q 566 924 550 939 q 582 886 582 908 q 566 849 582 864 q 528 833 550 833 m 494 0 l 494 674 l 563 674 l 563 0 l 494 0 z "},"ﬂ":{"ha":668,"x_min":39,"x_max":557,"o":"m 39 653 l 140 653 l 140 782 q 176 922 140 869 q 286 975 211 975 q 339 969 314 975 q 378 957 364 963 l 361 906 q 335 914 353 910 q 304 918 318 918 q 230 886 251 918 q 208 804 208 854 l 208 653 l 331 653 l 360 601 l 208 601 l 208 0 l 140 0 l 140 601 l 39 601 l 39 653 m 489 0 l 489 967 l 557 981 l 557 0 l 489 0 z "},"`":{"ha":197,"x_min":14,"x_max":183,"o":"m 14 1031 l 99 1031 l 183 818 l 132 818 l 14 1031 z "},"¨":{"ha":351,"x_min":14,"x_max":338,"o":"m 286 858 q 249 873 263 858 q 235 910 235 888 q 249 946 235 932 q 286 960 263 960 q 322 946 307 960 q 338 910 338 932 q 322 873 338 888 q 286 858 307 858 m 65 858 q 28 873 42 858 q 14 910 14 888 q 28 946 14 932 q 65 960 42 960 q 101 946 86 960 q 117 910 117 932 q 101 873 117 888 q 65 858 86 858 z "},"¯":{"ha":363,"x_min":14,"x_max":349,"o":"m 14 940 l 349 940 l 349 889 l 14 889 l 14 940 z "},"´":{"ha":197,"x_min":14,"x_max":183,"o":"m 97 1031 l 183 1031 l 64 818 l 14 818 l 97 1031 z "},"ˆ":{"ha":404,"x_min":14,"x_max":390,"o":"m 83 818 l 14 818 l 174 1031 l 229 1031 l 390 818 l 318 818 l 203 982 l 83 818 z "},"ˇ":{"ha":404,"x_min":14,"x_max":390,"o":"m 321 1031 l 390 1031 l 231 818 l 175 818 l 14 1031 l 86 1031 l 201 865 l 321 1031 z "},"˘":{"ha":389,"x_min":14,"x_max":375,"o":"m 375 1015 q 330 890 375 946 q 194 835 285 835 q 60 890 107 835 q 14 1015 14 946 l 71 1015 q 103 928 71 967 q 194 889 136 889 q 285 926 253 889 q 318 1015 318 964 l 375 1015 z "},"˙":{"ha":135,"x_min":14,"x_max":121,"o":"m 67 858 q 28 874 43 858 q 14 911 14 889 q 28 949 14 933 q 67 964 43 964 q 105 949 89 964 q 121 911 121 933 q 105 874 121 889 q 67 858 89 858 z "},"˚":{"ha":274,"x_min":14,"x_max":260,"o":"m 138 1054 q 224 1021 188 1054 q 260 938 260 988 q 224 857 260 889 q 138 825 188 825 q 51 857 88 825 q 14 938 14 889 q 51 1021 14 988 q 138 1054 88 1054 m 138 867 q 187 887 168 867 q 206 938 206 907 q 187 990 206 969 q 138 1011 168 1011 q 88 990 107 1011 q 68 938 68 969 q 88 887 68 907 q 138 867 107 867 z "},"˜":{"ha":415,"x_min":14,"x_max":401,"o":"m 401 971 q 367 875 401 906 q 286 844 333 844 q 202 884 239 844 q 131 924 165 924 q 85 903 100 924 q 68 850 71 882 l 14 850 q 48 946 14 915 q 129 976 82 976 q 219 937 188 976 q 286 897 250 897 q 331 918 315 897 q 349 971 346 939 l 401 971 z "},"˝":{"ha":368,"x_min":14,"x_max":354,"o":"m 268 1031 l 354 1031 l 238 818 l 186 818 l 268 1031 m 97 1031 l 183 1031 l 64 818 l 14 818 l 97 1031 z "},"˛":{"ha":285,"x_min":14,"x_max":271,"o":"m 100 6 l 172 6 q 106 -60 135 -19 q 78 -156 78 -100 q 108 -217 78 -197 q 164 -237 138 -237 q 205 -230 186 -237 q 240 -208 224 -222 l 271 -246 q 224 -276 253 -264 q 160 -287 194 -287 q 56 -251 97 -287 q 14 -154 14 -214 q 39 -68 14 -112 q 100 6 64 -24 z "},"¸":{"ha":286,"x_min":14,"x_max":272,"o":"m 124 18 l 181 18 l 146 -71 q 240 -117 208 -82 q 272 -189 272 -153 q 231 -274 272 -242 q 121 -307 189 -307 q 64 -299 96 -307 q 14 -281 32 -292 l 35 -237 q 71 -250 47 -243 q 117 -257 94 -257 q 187 -237 160 -257 q 214 -192 214 -218 q 178 -135 214 -162 q 76 -107 143 -107 l 124 18 z "},"":{"ha":169,"x_min":14,"x_max":156,"o":"m 101 -29 q 141 -49 126 -29 q 156 -89 156 -68 q 125 -205 156 -153 q 36 -285 94 -257 l 14 -250 q 74 -202 50 -231 q 99 -136 97 -174 q 61 -117 74 -136 q 49 -83 49 -97 q 62 -46 49 -62 q 101 -29 75 -29 z "},"Þ":{"ha":781,"x_min":139,"x_max":706,"o":"m 207 944 l 207 781 l 365 781 q 609 715 513 781 q 706 496 706 650 q 601 273 706 343 q 350 203 497 203 l 207 203 l 207 0 l 139 0 l 139 944 l 207 944 m 382 725 l 207 725 l 207 257 l 367 257 q 557 317 478 257 q 636 494 636 376 q 566 671 636 617 q 382 725 496 725 z "},"Ð":{"ha":914,"x_min":14,"x_max":822,"o":"m 139 0 l 139 436 l 28 436 l 14 490 l 139 490 l 139 944 l 422 944 q 731 808 640 944 q 822 478 822 671 q 724 140 822 281 q 418 0 625 0 l 139 0 m 358 490 l 372 436 l 207 436 l 207 54 l 419 54 q 660 174 568 54 q 751 476 751 294 q 673 767 751 644 q 433 890 594 890 l 207 890 l 207 490 l 358 490 z "},"Æ":{"ha":1179,"x_min":14,"x_max":1124,"o":"m 603 296 l 264 296 l 83 0 l 14 14 l 592 944 l 1085 944 l 1092 890 l 671 890 l 671 511 l 949 511 l 956 457 l 671 457 l 671 54 l 1115 54 l 1124 0 l 603 0 l 603 296 m 297 350 l 603 350 l 603 849 l 297 350 z "},"Đ":{"ha":914,"x_min":14,"x_max":822,"o":"m 139 0 l 139 436 l 28 436 l 14 490 l 139 490 l 139 944 l 422 944 q 731 808 640 944 q 822 478 822 671 q 724 140 822 281 q 418 0 625 0 l 139 0 m 358 490 l 372 436 l 207 436 l 207 54 l 419 54 q 660 174 568 54 q 751 476 751 294 q 673 767 751 644 q 433 890 594 890 l 207 890 l 207 490 l 358 490 z "},"Ł":{"ha":683,"x_min":11,"x_max":656,"o":"m 656 0 l 140 0 l 140 390 l 42 304 l 11 354 l 140 467 l 140 944 l 208 944 l 208 525 l 357 656 l 388 608 l 208 450 l 208 54 l 649 54 l 656 0 z "},"Œ":{"ha":1278,"x_min":92,"x_max":1222,"o":"m 701 857 q 618 890 664 875 q 501 904 572 904 q 260 785 353 903 q 168 468 168 668 q 249 169 168 299 q 492 40 331 40 q 619 58 567 40 q 701 93 672 75 l 701 857 m 701 0 l 701 25 q 603 -6 661 7 q 499 -19 546 -19 q 187 127 282 -19 q 92 467 92 274 q 196 819 92 674 q 504 964 300 964 q 597 953 539 964 q 701 922 656 942 l 701 944 l 1183 944 l 1190 890 l 769 890 l 769 511 l 1047 511 l 1054 457 l 769 457 l 769 54 l 1214 54 l 1222 0 l 701 0 z "},"Ø":{"ha":971,"x_min":92,"x_max":879,"o":"m 490 967 q 788 819 696 967 q 879 479 879 672 q 778 132 879 283 q 482 -19 678 -19 q 183 128 275 -19 q 92 468 92 276 q 194 821 92 675 q 490 967 297 967 m 492 906 q 256 778 343 906 q 168 469 168 651 q 199 260 168 357 q 299 104 231 163 l 626 874 q 564 897 597 889 q 492 906 531 906 m 356 67 q 413 47 382 53 q 479 40 444 40 q 715 167 628 40 q 803 478 803 294 q 774 681 803 586 q 681 835 744 776 l 356 67 z "},"ß":{"ha":790,"x_min":125,"x_max":707,"o":"m 125 657 q 197 868 125 792 q 397 944 268 944 q 583 882 506 944 q 660 699 660 819 q 624 573 660 625 q 526 494 589 521 q 654 413 601 474 q 707 261 707 351 q 603 56 707 113 q 351 0 499 0 l 299 0 l 299 54 l 369 54 q 558 101 481 54 q 635 258 635 149 q 566 413 635 364 q 383 463 497 463 l 321 463 l 321 517 l 358 517 q 535 563 483 517 q 588 697 588 610 q 532 838 588 789 q 401 888 476 888 q 247 819 299 888 q 194 657 194 751 l 194 0 l 125 0 l 125 657 z "},"ð":{"ha":715,"x_min":67,"x_max":640,"o":"m 133 929 l 164 969 q 273 923 219 951 q 375 857 326 894 l 479 950 l 511 908 l 415 824 q 578 617 515 736 q 640 363 640 497 q 558 80 640 178 q 342 -18 476 -18 q 142 69 218 -18 q 67 264 67 156 q 139 453 67 369 q 340 538 211 538 q 470 506 403 538 q 569 419 538 475 q 508 616 560 519 q 374 788 457 713 l 217 649 l 183 689 l 333 821 q 240 883 290 856 q 133 929 189 911 m 567 344 q 478 437 536 393 q 343 481 419 481 q 192 415 246 481 q 138 257 138 350 q 192 108 138 178 q 344 39 246 39 q 510 126 456 39 q 567 344 565 214 z "},"þ":{"ha":722,"x_min":111,"x_max":656,"o":"m 179 119 q 275 59 222 79 q 369 39 328 39 q 534 126 483 39 q 585 335 585 213 q 534 547 585 458 q 369 635 483 635 q 275 614 328 635 q 179 553 222 593 l 179 119 m 111 -304 l 111 967 l 179 981 l 179 618 q 270 670 221 649 q 367 692 319 692 q 585 591 515 692 q 656 336 656 490 q 585 82 656 182 q 367 -18 515 -18 q 270 2 319 -18 q 179 56 221 22 l 179 -289 l 111 -304 z "},"ƒ":{"ha":407,"x_min":0,"x_max":407,"o":"m 68 653 l 169 653 l 169 782 q 205 922 169 869 q 315 975 240 975 q 368 969 343 975 q 407 957 393 963 l 390 906 q 365 914 382 910 q 333 918 347 918 q 259 886 281 918 q 238 804 238 854 l 238 653 l 360 653 l 389 601 l 238 601 l 238 101 q 202 -39 238 14 q 92 -92 167 -92 q 39 -85 64 -92 q 0 -74 14 -79 l 17 -22 q 42 -31 25 -26 q 74 -35 60 -35 q 148 -3 126 -35 q 169 79 169 29 l 169 601 l 68 601 l 68 653 z "},"æ":{"ha":1124,"x_min":72,"x_max":1057,"o":"m 1057 336 l 572 336 q 629 127 574 215 q 810 39 685 39 q 928 53 883 39 q 1008 86 974 68 l 1036 35 q 932 -5 994 8 q 829 -18 869 -18 q 662 19 731 -18 q 554 121 593 57 q 457 28 524 75 q 299 -18 390 -18 q 128 42 185 -18 q 72 189 72 101 q 140 338 72 285 q 313 390 207 390 l 500 390 l 500 474 q 460 589 500 543 q 339 635 421 635 q 229 621 271 635 q 146 588 188 607 l 119 633 q 226 676 158 660 q 335 692 293 692 q 477 656 422 692 q 554 560 532 621 q 653 656 590 621 q 801 692 715 692 q 990 591 922 692 q 1057 336 1057 490 m 985 388 q 931 560 975 486 q 786 635 886 635 q 635 560 686 635 q 575 388 585 486 l 985 388 m 304 39 q 441 83 388 39 q 526 182 494 128 q 508 256 514 217 q 500 339 501 296 l 318 339 q 185 295 226 339 q 143 189 143 251 q 186 83 143 126 q 304 39 229 39 z "},"đ":{"ha":722,"x_min":67,"x_max":694,"o":"m 543 554 q 447 615 500 594 q 353 635 394 635 q 188 548 239 635 q 138 339 138 461 q 188 127 138 215 q 353 39 239 39 q 447 60 394 39 q 543 121 500 81 l 543 554 m 681 854 l 694 806 l 611 806 l 611 0 l 574 0 l 551 60 q 456 3 508 25 q 356 -18 404 -18 q 138 81 208 -18 q 67 335 67 181 q 138 591 67 490 q 356 692 208 692 q 452 670 401 692 q 543 617 503 649 l 543 806 l 350 806 l 336 854 l 543 854 l 543 967 l 611 979 l 611 854 l 681 854 z "},"œ":{"ha":1106,"x_min":67,"x_max":1039,"o":"m 1039 336 l 554 336 q 611 127 556 215 q 792 39 667 39 q 910 53 865 39 q 990 86 956 68 l 1018 35 q 914 -5 976 8 q 811 -18 851 -18 q 685 1 740 -18 q 590 56 629 21 q 496 6 553 29 q 371 -18 439 -18 q 144 78 222 -18 q 67 340 67 175 q 149 592 67 492 q 381 692 232 692 q 499 672 447 692 q 589 624 551 651 q 674 674 625 656 q 783 692 724 692 q 972 591 904 692 q 1039 336 1039 490 m 967 388 q 913 560 957 486 q 768 635 868 635 q 617 560 668 635 q 557 388 567 486 l 967 388 m 138 342 q 197 128 138 218 q 371 39 257 39 q 470 54 426 39 q 553 96 514 69 q 501 206 518 143 q 483 340 483 268 q 500 472 483 411 q 549 579 517 533 q 483 617 521 600 q 378 635 444 635 q 202 547 267 635 q 138 342 138 460 z "},"ĺ":{"ha":290,"x_min":111,"x_max":297,"o":"m 211 1201 l 297 1201 l 178 989 l 128 989 l 211 1201 m 111 0 l 111 936 l 179 950 l 179 0 l 111 0 z "},"ł":{"ha":376,"x_min":0,"x_max":376,"o":"m 376 608 l 222 472 l 222 0 l 154 0 l 154 413 l 31 304 l 0 354 l 154 488 l 154 967 l 222 981 l 222 547 l 346 656 l 376 608 z "},"ı":{"ha":290,"x_min":111,"x_max":179,"o":"m 111 0 l 111 674 l 179 674 l 179 0 l 111 0 z "},"ø":{"ha":690,"x_min":67,"x_max":624,"o":"m 335 -18 q 128 85 189 -18 q 67 340 67 188 q 136 590 68 489 q 349 692 204 692 q 560 590 497 692 q 624 332 624 488 q 552 81 624 179 q 335 -18 481 -18 m 457 603 q 410 626 436 618 q 351 635 383 635 q 189 547 240 635 q 138 342 138 460 q 151 206 138 269 q 197 101 164 143 l 457 603 m 336 39 q 501 125 449 39 q 553 332 553 211 q 541 454 553 396 q 503 556 529 513 l 246 60 q 287 44 264 50 q 336 39 310 39 z "},"ģ":{"ha":722,"x_min":67,"x_max":611,"o":"m 356 799 q 316 818 331 799 q 301 858 301 838 q 332 974 301 922 q 421 1054 363 1026 l 443 1019 q 383 972 407 1000 q 358 906 360 943 q 396 886 383 906 q 408 853 408 867 q 395 815 408 832 q 356 799 382 799 m 543 554 q 447 615 500 594 q 353 635 394 635 q 188 548 239 635 q 138 339 138 461 q 188 127 138 215 q 353 39 239 39 q 447 60 394 39 q 543 121 500 81 l 543 554 m 611 -74 q 551 -240 611 -174 q 358 -307 490 -307 q 250 -292 318 -307 q 143 -250 182 -276 l 169 -201 q 254 -236 217 -222 q 356 -250 292 -250 q 492 -210 440 -250 q 543 -87 543 -171 l 543 56 q 452 2 503 22 q 356 -18 401 -18 q 138 81 208 -18 q 67 335 67 181 q 138 591 67 490 q 356 692 208 692 q 456 669 404 692 q 550 611 508 646 l 574 674 l 611 674 l 611 -74 z "},"À":{"ha":822,"x_min":28,"x_max":794,"o":"m 285 1239 l 369 1239 l 454 1026 l 403 1026 l 285 1239 m 404 853 l 222 350 l 593 350 l 404 853 m 435 944 l 794 15 l 725 0 l 613 296 l 203 296 l 96 0 l 28 0 l 371 944 l 435 944 z "},"Á":{"ha":822,"x_min":28,"x_max":794,"o":"m 431 1239 l 517 1239 l 397 1026 l 347 1026 l 431 1239 m 404 853 l 222 350 l 593 350 l 404 853 m 435 944 l 794 15 l 725 0 l 613 296 l 203 296 l 96 0 l 28 0 l 371 944 l 435 944 z "},"Â":{"ha":822,"x_min":28,"x_max":794,"o":"m 285 1028 l 215 1028 l 375 1240 l 431 1240 l 592 1028 l 519 1028 l 404 1192 l 285 1028 m 404 853 l 222 350 l 593 350 l 404 853 m 435 944 l 794 15 l 725 0 l 613 296 l 203 296 l 96 0 l 28 0 l 371 944 l 435 944 z "},"Ã":{"ha":822,"x_min":28,"x_max":794,"o":"m 594 1179 q 560 1083 594 1114 q 479 1053 526 1053 q 395 1092 432 1053 q 324 1132 358 1132 q 278 1111 293 1132 q 261 1058 264 1090 l 207 1058 q 241 1154 207 1124 q 322 1185 275 1185 q 412 1145 381 1185 q 479 1106 443 1106 q 524 1126 508 1106 q 542 1179 539 1147 l 594 1179 m 404 853 l 222 350 l 593 350 l 404 853 m 435 944 l 794 15 l 725 0 l 613 296 l 203 296 l 96 0 l 28 0 l 371 944 l 435 944 z "},"Ä":{"ha":822,"x_min":28,"x_max":794,"o":"m 514 1067 q 476 1081 490 1067 q 463 1118 463 1096 q 476 1154 463 1140 q 514 1168 490 1168 q 550 1154 535 1168 q 565 1118 565 1140 q 550 1081 565 1096 q 514 1067 535 1067 m 293 1067 q 256 1081 269 1067 q 242 1118 242 1096 q 256 1154 242 1140 q 293 1168 269 1168 q 329 1154 314 1168 q 344 1118 344 1140 q 329 1081 344 1096 q 293 1067 314 1067 m 404 853 l 222 350 l 593 350 l 404 853 m 435 944 l 794 15 l 725 0 l 613 296 l 203 296 l 96 0 l 28 0 l 371 944 l 435 944 z "},"Å":{"ha":822,"x_min":28,"x_max":794,"o":"m 403 1263 q 489 1229 453 1263 q 525 1146 525 1196 q 489 1065 525 1097 q 403 1033 453 1033 q 316 1065 353 1033 q 279 1146 279 1097 q 316 1229 279 1196 q 403 1263 353 1263 m 403 1075 q 452 1095 433 1075 q 471 1146 471 1115 q 452 1199 471 1178 q 403 1219 433 1219 q 353 1199 372 1219 q 333 1146 333 1178 q 353 1095 333 1115 q 403 1075 372 1075 m 404 853 l 222 350 l 593 350 l 404 853 m 435 944 l 794 15 l 725 0 l 613 296 l 203 296 l 96 0 l 28 0 l 371 944 l 435 944 z "},"Ă":{"ha":822,"x_min":28,"x_max":794,"o":"m 583 1224 q 538 1099 583 1154 q 403 1043 493 1043 q 269 1099 315 1043 q 222 1224 222 1154 l 279 1224 q 312 1136 279 1175 q 403 1097 344 1097 q 494 1135 461 1097 q 526 1224 526 1172 l 583 1224 m 404 853 l 222 350 l 593 350 l 404 853 m 435 944 l 794 15 l 725 0 l 613 296 l 203 296 l 96 0 l 28 0 l 371 944 l 435 944 z "},"Ą":{"ha":822,"x_min":28,"x_max":897,"o":"m 435 944 l 794 15 q 728 -61 753 -22 q 704 -156 704 -100 q 734 -217 704 -197 q 790 -237 764 -237 q 831 -230 813 -237 q 867 -208 850 -222 l 897 -246 q 850 -276 879 -264 q 786 -287 821 -287 q 682 -251 724 -287 q 640 -154 640 -214 q 665 -69 640 -114 q 724 3 689 -25 l 613 296 l 203 296 l 96 0 l 28 0 l 371 944 l 435 944 m 404 853 l 222 350 l 593 350 l 404 853 z "},"Ā":{"ha":822,"x_min":28,"x_max":794,"o":"m 236 1149 l 571 1149 l 571 1097 l 236 1097 l 236 1149 m 404 853 l 222 350 l 593 350 l 404 853 m 435 944 l 794 15 l 725 0 l 613 296 l 203 296 l 96 0 l 28 0 l 371 944 l 435 944 z "},"Ç":{"ha":790,"x_min":92,"x_max":721,"o":"m 693 863 q 608 892 650 881 q 492 904 567 904 q 256 785 343 903 q 168 468 168 668 q 243 169 168 299 q 479 40 318 40 q 602 53 554 40 q 688 82 650 65 l 721 32 q 627 -1 686 14 q 513 -18 568 -15 l 493 -71 q 588 -117 556 -82 q 619 -189 619 -153 q 578 -274 619 -242 q 468 -307 536 -307 q 411 -299 443 -307 q 361 -281 379 -292 l 382 -237 q 418 -250 394 -243 q 464 -257 442 -257 q 534 -237 507 -257 q 561 -192 561 -218 q 526 -135 561 -162 q 424 -107 490 -107 l 457 -18 q 174 136 257 -8 q 92 467 92 281 q 191 819 92 674 q 494 964 290 964 q 610 951 538 964 q 721 913 682 939 l 693 863 z "},"Ć":{"ha":790,"x_min":92,"x_max":721,"o":"m 518 1239 l 604 1239 l 485 1026 l 435 1026 l 518 1239 m 693 863 q 608 892 650 881 q 492 904 567 904 q 256 785 343 903 q 168 468 168 668 q 243 169 168 299 q 479 40 318 40 q 602 53 554 40 q 688 82 650 65 l 721 32 q 614 -4 682 11 q 486 -19 546 -19 q 181 127 269 -19 q 92 467 92 274 q 191 819 92 674 q 494 964 290 964 q 610 951 538 964 q 721 913 682 939 l 693 863 z "},"Č":{"ha":790,"x_min":92,"x_max":721,"o":"m 607 1239 l 676 1239 l 517 1026 l 461 1026 l 300 1239 l 372 1239 l 488 1074 l 607 1239 m 693 863 q 608 892 650 881 q 492 904 567 904 q 256 785 343 903 q 168 468 168 668 q 243 169 168 299 q 479 40 318 40 q 602 53 554 40 q 688 82 650 65 l 721 32 q 614 -4 682 11 q 486 -19 546 -19 q 181 127 269 -19 q 92 467 92 274 q 191 819 92 674 q 494 964 290 964 q 610 951 538 964 q 721 913 682 939 l 693 863 z "},"Ď":{"ha":914,"x_min":139,"x_max":822,"o":"m 515 1238 l 585 1238 l 425 1025 l 369 1025 l 208 1238 l 281 1238 l 396 1072 l 515 1238 m 139 0 l 139 944 l 422 944 q 731 808 640 944 q 822 478 822 671 q 724 140 822 281 q 418 0 625 0 l 139 0 m 433 890 l 207 890 l 207 54 l 419 54 q 660 174 568 54 q 751 476 751 294 q 673 767 751 644 q 433 890 594 890 z "},"È":{"ha":715,"x_min":139,"x_max":660,"o":"m 249 1239 l 333 1239 l 418 1026 l 367 1026 l 249 1239 m 139 0 l 139 944 l 621 944 l 628 890 l 207 890 l 207 511 l 485 511 l 492 457 l 207 457 l 207 54 l 651 54 l 660 0 l 139 0 z "},"É":{"ha":715,"x_min":139,"x_max":660,"o":"m 394 1239 l 481 1239 l 361 1026 l 311 1026 l 394 1239 m 139 0 l 139 944 l 621 944 l 628 890 l 207 890 l 207 511 l 485 511 l 492 457 l 207 457 l 207 54 l 651 54 l 660 0 l 139 0 z "},"Ê":{"ha":715,"x_min":139,"x_max":660,"o":"m 249 1028 l 179 1028 l 339 1240 l 394 1240 l 556 1028 l 483 1028 l 368 1192 l 249 1028 m 139 0 l 139 944 l 621 944 l 628 890 l 207 890 l 207 511 l 485 511 l 492 457 l 207 457 l 207 54 l 651 54 l 660 0 l 139 0 z "},"Ë":{"ha":715,"x_min":139,"x_max":660,"o":"m 478 1067 q 440 1081 454 1067 q 426 1118 426 1096 q 440 1154 426 1140 q 478 1168 454 1168 q 514 1154 499 1168 q 529 1118 529 1140 q 514 1081 529 1096 q 478 1067 499 1067 m 257 1067 q 219 1081 233 1067 q 206 1118 206 1096 q 219 1154 206 1140 q 257 1168 233 1168 q 293 1154 278 1168 q 308 1118 308 1140 q 293 1081 308 1096 q 257 1067 278 1067 m 139 0 l 139 944 l 621 944 l 628 890 l 207 890 l 207 511 l 485 511 l 492 457 l 207 457 l 207 54 l 651 54 l 660 0 l 139 0 z "},"Ē":{"ha":715,"x_min":139,"x_max":660,"o":"m 200 1149 l 535 1149 l 535 1097 l 200 1097 l 200 1149 m 139 0 l 139 944 l 621 944 l 628 890 l 207 890 l 207 511 l 485 511 l 492 457 l 207 457 l 207 54 l 651 54 l 660 0 l 139 0 z "},"Ė":{"ha":715,"x_min":139,"x_max":660,"o":"m 367 1067 q 328 1082 343 1067 q 314 1119 314 1097 q 328 1157 314 1142 q 367 1172 343 1172 q 405 1157 389 1172 q 421 1119 421 1142 q 405 1082 421 1097 q 367 1067 389 1067 m 139 0 l 139 944 l 621 944 l 628 890 l 207 890 l 207 511 l 485 511 l 492 457 l 207 457 l 207 54 l 651 54 l 660 0 l 139 0 z "},"Ę":{"ha":715,"x_min":139,"x_max":660,"o":"m 139 0 l 139 944 l 621 944 l 628 890 l 207 890 l 207 511 l 485 511 l 492 457 l 207 457 l 207 54 l 651 54 l 660 0 l 547 0 q 487 -64 513 -25 q 461 -156 461 -103 q 491 -217 461 -197 q 547 -237 521 -237 q 588 -230 569 -237 q 624 -208 607 -222 l 654 -246 q 607 -276 636 -264 q 543 -287 578 -287 q 439 -251 481 -287 q 397 -154 397 -214 q 420 -72 397 -115 q 476 0 443 -29 l 139 0 z "},"Ě":{"ha":715,"x_min":139,"x_max":660,"o":"m 483 1239 l 553 1239 l 393 1026 l 338 1026 l 176 1239 l 249 1239 l 364 1074 l 483 1239 m 139 0 l 139 944 l 621 944 l 628 890 l 207 890 l 207 511 l 485 511 l 492 457 l 207 457 l 207 54 l 651 54 l 660 0 l 139 0 z "},"Ğ":{"ha":875,"x_min":92,"x_max":764,"o":"m 714 1224 q 669 1099 714 1154 q 533 1043 624 1043 q 399 1099 446 1043 q 353 1224 353 1154 l 410 1224 q 442 1136 410 1175 q 533 1097 475 1097 q 624 1135 592 1097 q 657 1224 657 1172 l 714 1224 m 489 475 l 761 475 l 761 43 q 653 -1 722 17 q 525 -19 585 -19 q 201 120 310 -19 q 92 467 92 260 q 211 824 92 683 q 533 964 331 964 q 651 951 576 964 q 764 913 725 939 l 738 867 q 652 896 694 885 q 536 907 610 907 q 265 780 361 907 q 168 451 168 653 q 265 151 168 261 q 524 40 363 40 q 616 50 574 40 q 693 72 658 60 l 693 421 l 481 421 l 489 475 z "},"Ì":{"ha":346,"x_min":46,"x_max":215,"o":"m 46 1239 l 131 1239 l 215 1026 l 164 1026 l 46 1239 m 139 0 l 139 944 l 207 944 l 207 0 l 139 0 z "},"Í":{"ha":346,"x_min":139,"x_max":310,"o":"m 224 1239 l 310 1239 l 190 1026 l 140 1026 l 224 1239 m 139 0 l 139 944 l 207 944 l 207 0 l 139 0 z "},"Î":{"ha":346,"x_min":-15,"x_max":361,"o":"m 54 1028 l -15 1028 l 144 1240 l 200 1240 l 361 1028 l 289 1028 l 174 1192 l 54 1028 m 139 0 l 139 944 l 207 944 l 207 0 l 139 0 z "},"Ï":{"ha":346,"x_min":11,"x_max":335,"o":"m 283 1067 q 246 1081 260 1067 q 232 1118 232 1096 q 246 1154 232 1140 q 283 1168 260 1168 q 319 1154 304 1168 q 335 1118 335 1140 q 319 1081 335 1096 q 283 1067 304 1067 m 63 1067 q 25 1081 39 1067 q 11 1118 11 1096 q 25 1154 11 1140 q 63 1168 39 1168 q 99 1154 83 1168 q 114 1118 114 1140 q 99 1081 114 1096 q 63 1067 83 1067 m 139 0 l 139 944 l 207 944 l 207 0 l 139 0 z "},"Ī":{"ha":346,"x_min":6,"x_max":340,"o":"m 6 1149 l 340 1149 l 340 1097 l 6 1097 l 6 1149 m 139 0 l 139 944 l 207 944 l 207 0 l 139 0 z "},"Į":{"ha":346,"x_min":54,"x_max":311,"o":"m 207 944 l 207 0 q 144 -62 169 -25 q 118 -156 118 -100 q 148 -217 118 -197 q 204 -237 178 -237 q 245 -230 226 -237 q 281 -208 264 -222 l 311 -246 q 264 -276 293 -264 q 200 -287 235 -287 q 96 -251 138 -287 q 54 -154 54 -214 q 78 -69 54 -112 q 139 4 103 -25 l 139 944 l 207 944 z "},"İ":{"ha":346,"x_min":119,"x_max":226,"o":"m 172 1067 q 134 1082 149 1067 q 119 1119 119 1097 q 134 1157 119 1142 q 172 1172 149 1172 q 210 1157 194 1172 q 226 1119 226 1142 q 210 1082 226 1097 q 172 1067 194 1067 m 139 0 l 139 944 l 207 944 l 207 0 l 139 0 z "},"Ĺ":{"ha":682,"x_min":139,"x_max":654,"o":"m 253 1239 l 339 1239 l 219 1026 l 169 1026 l 253 1239 m 654 0 l 139 0 l 139 944 l 207 944 l 207 54 l 647 54 l 654 0 z "},"Ľ":{"ha":682,"x_min":139,"x_max":654,"o":"m 504 975 q 544 956 529 975 q 558 915 558 936 q 528 799 558 851 q 439 719 497 747 l 417 754 q 476 802 453 774 q 501 868 500 831 q 464 888 476 868 q 451 921 451 907 q 465 958 451 942 q 504 975 478 975 m 654 0 l 139 0 l 139 944 l 207 944 l 207 54 l 647 54 l 654 0 z "},"Ñ":{"ha":914,"x_min":139,"x_max":775,"o":"m 650 1179 q 616 1083 650 1114 q 535 1053 582 1053 q 451 1092 488 1053 q 379 1132 414 1132 q 334 1111 349 1132 q 317 1058 319 1090 l 263 1058 q 297 1154 263 1124 q 378 1185 331 1185 q 467 1145 436 1185 q 535 1106 499 1106 q 579 1126 564 1106 q 597 1179 594 1147 l 650 1179 m 139 0 l 139 944 l 178 944 l 660 236 l 707 154 l 707 944 l 775 944 l 775 0 l 738 0 l 226 757 l 207 797 l 207 0 l 139 0 z "},"Ń":{"ha":914,"x_min":139,"x_max":775,"o":"m 496 1239 l 582 1239 l 463 1026 l 413 1026 l 496 1239 m 139 0 l 139 944 l 178 944 l 660 236 l 707 154 l 707 944 l 775 944 l 775 0 l 738 0 l 226 757 l 207 797 l 207 0 l 139 0 z "},"Ň":{"ha":914,"x_min":139,"x_max":775,"o":"m 571 1239 l 640 1239 l 481 1026 l 425 1026 l 264 1239 l 336 1239 l 451 1074 l 571 1239 m 139 0 l 139 944 l 178 944 l 660 236 l 707 154 l 707 944 l 775 944 l 775 0 l 738 0 l 226 757 l 207 797 l 207 0 l 139 0 z "},"Ò":{"ha":971,"x_min":92,"x_max":879,"o":"m 372 1239 l 457 1239 l 542 1026 l 490 1026 l 372 1239 m 490 967 q 788 819 696 967 q 879 479 879 672 q 778 132 879 283 q 482 -19 678 -19 q 183 128 275 -19 q 92 468 92 276 q 194 821 92 675 q 490 967 297 967 m 168 469 q 243 169 168 300 q 479 38 318 38 q 715 166 628 38 q 803 478 803 294 q 728 778 803 647 q 492 908 654 908 q 256 780 343 908 q 168 469 168 651 z "},"Ó":{"ha":971,"x_min":92,"x_max":879,"o":"m 518 1239 l 604 1239 l 485 1026 l 435 1026 l 518 1239 m 490 967 q 788 819 696 967 q 879 479 879 672 q 778 132 879 283 q 482 -19 678 -19 q 183 128 275 -19 q 92 468 92 276 q 194 821 92 675 q 490 967 297 967 m 168 469 q 243 169 168 300 q 479 38 318 38 q 715 166 628 38 q 803 478 803 294 q 728 778 803 647 q 492 908 654 908 q 256 780 343 908 q 168 469 168 651 z "},"Ô":{"ha":971,"x_min":92,"x_max":879,"o":"m 372 1028 l 303 1028 l 463 1240 l 518 1240 l 679 1028 l 607 1028 l 492 1192 l 372 1028 m 490 967 q 788 819 696 967 q 879 479 879 672 q 778 132 879 283 q 482 -19 678 -19 q 183 128 275 -19 q 92 468 92 276 q 194 821 92 675 q 490 967 297 967 m 168 469 q 243 169 168 300 q 479 38 318 38 q 715 166 628 38 q 803 478 803 294 q 728 778 803 647 q 492 908 654 908 q 256 780 343 908 q 168 469 168 651 z "},"Õ":{"ha":971,"x_min":92,"x_max":879,"o":"m 682 1179 q 648 1083 682 1114 q 567 1053 614 1053 q 483 1092 519 1053 q 411 1132 446 1132 q 366 1111 381 1132 q 349 1058 351 1090 l 294 1058 q 328 1154 294 1124 q 410 1185 363 1185 q 499 1145 468 1185 q 567 1106 531 1106 q 611 1126 596 1106 q 629 1179 626 1147 l 682 1179 m 490 967 q 788 819 696 967 q 879 479 879 672 q 778 132 879 283 q 482 -19 678 -19 q 183 128 275 -19 q 92 468 92 276 q 194 821 92 675 q 490 967 297 967 m 168 469 q 243 169 168 300 q 479 38 318 38 q 715 166 628 38 q 803 478 803 294 q 728 778 803 647 q 492 908 654 908 q 256 780 343 908 q 168 469 168 651 z "},"Ö":{"ha":971,"x_min":92,"x_max":879,"o":"m 601 1067 q 564 1081 578 1067 q 550 1118 550 1096 q 564 1154 550 1140 q 601 1168 578 1168 q 638 1154 622 1168 q 653 1118 653 1140 q 638 1081 653 1096 q 601 1067 622 1067 m 381 1067 q 343 1081 357 1067 q 329 1118 329 1096 q 343 1154 329 1140 q 381 1168 357 1168 q 417 1154 401 1168 q 432 1118 432 1140 q 417 1081 432 1096 q 381 1067 401 1067 m 490 967 q 788 819 696 967 q 879 479 879 672 q 778 132 879 283 q 482 -19 678 -19 q 183 128 275 -19 q 92 468 92 276 q 194 821 92 675 q 490 967 297 967 m 168 469 q 243 169 168 300 q 479 38 318 38 q 715 166 628 38 q 803 478 803 294 q 728 778 803 647 q 492 908 654 908 q 256 780 343 908 q 168 469 168 651 z "},"Ō":{"ha":971,"x_min":92,"x_max":879,"o":"m 310 1149 l 644 1149 l 644 1097 l 310 1097 l 310 1149 m 490 967 q 788 819 696 967 q 879 479 879 672 q 778 132 879 283 q 482 -19 678 -19 q 183 128 275 -19 q 92 468 92 276 q 194 821 92 675 q 490 967 297 967 m 168 469 q 243 169 168 300 q 479 38 318 38 q 715 166 628 38 q 803 478 803 294 q 728 778 803 647 q 492 908 654 908 q 256 780 343 908 q 168 469 168 651 z "},"Ő":{"ha":971,"x_min":92,"x_max":879,"o":"m 611 1239 l 697 1239 l 581 1026 l 529 1026 l 611 1239 m 440 1239 l 525 1239 l 406 1026 l 357 1026 l 440 1239 m 490 967 q 788 819 696 967 q 879 479 879 672 q 778 132 879 283 q 482 -19 678 -19 q 183 128 275 -19 q 92 468 92 276 q 194 821 92 675 q 490 967 297 967 m 168 469 q 243 169 168 300 q 479 38 318 38 q 715 166 628 38 q 803 478 803 294 q 728 778 803 647 q 492 908 654 908 q 256 780 343 908 q 168 469 168 651 z "},"Ŕ":{"ha":822,"x_min":139,"x_max":781,"o":"m 407 1239 l 493 1239 l 374 1026 l 324 1026 l 407 1239 m 368 889 l 207 889 l 207 451 l 353 451 q 547 503 458 451 q 636 672 636 554 q 556 841 636 793 q 368 889 476 889 m 365 944 q 609 884 513 944 q 706 675 706 824 q 658 519 706 579 q 535 429 610 458 l 781 0 l 704 0 l 476 411 q 414 401 446 404 q 350 397 382 397 l 207 397 l 207 0 l 139 0 l 139 944 l 365 944 z "},"Ř":{"ha":822,"x_min":139,"x_max":781,"o":"m 496 1239 l 565 1239 l 406 1026 l 350 1026 l 189 1239 l 261 1239 l 376 1074 l 496 1239 m 368 889 l 207 889 l 207 451 l 353 451 q 547 503 458 451 q 636 672 636 554 q 556 841 636 793 q 368 889 476 889 m 365 944 q 609 884 513 944 q 706 675 706 824 q 658 519 706 579 q 535 429 610 458 l 781 0 l 704 0 l 476 411 q 414 401 446 404 q 350 397 382 397 l 207 397 l 207 0 l 139 0 l 139 944 l 365 944 z "},"Ś":{"ha":742,"x_min":92,"x_max":667,"o":"m 419 1239 l 506 1239 l 386 1026 l 336 1026 l 419 1239 m 119 94 q 218 58 156 76 q 350 40 281 40 q 533 95 469 40 q 596 222 596 150 q 344 458 596 375 q 92 743 92 542 q 168 903 92 839 q 378 967 244 967 q 508 950 447 967 q 611 913 569 933 l 581 863 q 499 894 544 879 q 381 910 453 910 q 222 859 281 910 q 164 736 164 808 q 415 492 164 578 q 667 218 667 407 q 586 48 667 114 q 351 -18 506 -18 q 207 1 292 -18 q 99 40 122 19 l 119 94 z "},"Š":{"ha":742,"x_min":92,"x_max":667,"o":"m 494 1239 l 564 1239 l 404 1026 l 349 1026 l 188 1239 l 260 1239 l 375 1074 l 494 1239 m 119 94 q 218 58 156 76 q 350 40 281 40 q 533 95 469 40 q 596 222 596 150 q 344 458 596 375 q 92 743 92 542 q 168 903 92 839 q 378 967 244 967 q 508 950 447 967 q 611 913 569 933 l 581 863 q 499 894 544 879 q 381 910 453 910 q 222 859 281 910 q 164 736 164 808 q 415 492 164 578 q 667 218 667 407 q 586 48 667 114 q 351 -18 506 -18 q 207 1 292 -18 q 99 40 122 19 l 119 94 z "},"Ť":{"ha":714,"x_min":28,"x_max":686,"o":"m 474 1239 l 543 1239 l 383 1026 l 328 1026 l 167 1239 l 239 1239 l 354 1074 l 474 1239 m 686 890 l 390 890 l 390 0 l 322 0 l 322 890 l 28 890 l 28 944 l 679 944 l 686 890 z "},"Ù":{"ha":903,"x_min":125,"x_max":778,"o":"m 333 1239 l 418 1239 l 503 1026 l 451 1026 l 333 1239 m 193 328 q 263 124 193 207 q 451 40 332 40 q 642 124 575 40 q 710 328 710 207 l 710 944 l 778 944 l 778 332 q 695 82 778 181 q 451 -17 613 -17 q 208 82 292 -17 q 125 332 125 181 l 125 944 l 193 944 l 193 328 z "},"Ú":{"ha":903,"x_min":125,"x_max":778,"o":"m 479 1239 l 565 1239 l 446 1026 l 396 1026 l 479 1239 m 193 328 q 263 124 193 207 q 451 40 332 40 q 642 124 575 40 q 710 328 710 207 l 710 944 l 778 944 l 778 332 q 695 82 778 181 q 451 -17 613 -17 q 208 82 292 -17 q 125 332 125 181 l 125 944 l 193 944 l 193 328 z "},"Û":{"ha":903,"x_min":125,"x_max":778,"o":"m 333 1028 l 264 1028 l 424 1240 l 479 1240 l 640 1028 l 568 1028 l 453 1192 l 333 1028 m 193 328 q 263 124 193 207 q 451 40 332 40 q 642 124 575 40 q 710 328 710 207 l 710 944 l 778 944 l 778 332 q 695 82 778 181 q 451 -17 613 -17 q 208 82 292 -17 q 125 332 125 181 l 125 944 l 193 944 l 193 328 z "},"Ü":{"ha":903,"x_min":125,"x_max":778,"o":"m 571 1067 q 533 1081 547 1067 q 519 1118 519 1096 q 533 1154 519 1140 q 571 1168 547 1168 q 607 1154 592 1168 q 622 1118 622 1140 q 607 1081 622 1096 q 571 1067 592 1067 m 350 1067 q 313 1081 326 1067 q 299 1118 299 1096 q 313 1154 299 1140 q 350 1168 326 1168 q 386 1154 371 1168 q 401 1118 401 1140 q 386 1081 401 1096 q 350 1067 371 1067 m 193 328 q 263 124 193 207 q 451 40 332 40 q 642 124 575 40 q 710 328 710 207 l 710 944 l 778 944 l 778 332 q 695 82 778 181 q 451 -17 613 -17 q 208 82 292 -17 q 125 332 125 181 l 125 944 l 193 944 l 193 328 z "},"Ū":{"ha":903,"x_min":125,"x_max":778,"o":"m 285 1149 l 619 1149 l 619 1097 l 285 1097 l 285 1149 m 193 328 q 263 124 193 207 q 451 40 332 40 q 642 124 575 40 q 710 328 710 207 l 710 944 l 778 944 l 778 332 q 695 82 778 181 q 451 -17 613 -17 q 208 82 292 -17 q 125 332 125 181 l 125 944 l 193 944 l 193 328 z "},"Ů":{"ha":903,"x_min":125,"x_max":778,"o":"m 451 1263 q 538 1229 501 1263 q 574 1146 574 1196 q 538 1065 574 1097 q 451 1033 501 1033 q 365 1065 401 1033 q 328 1146 328 1097 q 365 1229 328 1196 q 451 1263 401 1263 m 451 1075 q 501 1095 482 1075 q 519 1146 519 1115 q 501 1199 519 1178 q 451 1219 482 1219 q 401 1199 421 1219 q 382 1146 382 1178 q 401 1095 382 1115 q 451 1075 421 1075 m 193 328 q 263 124 193 207 q 451 40 332 40 q 642 124 575 40 q 710 328 710 207 l 710 944 l 778 944 l 778 332 q 695 82 778 181 q 451 -17 613 -17 q 208 82 292 -17 q 125 332 125 181 l 125 944 l 193 944 l 193 328 z "},"Ű":{"ha":903,"x_min":125,"x_max":778,"o":"m 558 1239 l 644 1239 l 528 1026 l 476 1026 l 558 1239 m 388 1239 l 472 1239 l 353 1026 l 304 1026 l 388 1239 m 193 328 q 263 124 193 207 q 451 40 332 40 q 642 124 575 40 q 710 328 710 207 l 710 944 l 778 944 l 778 332 q 695 82 778 181 q 451 -17 613 -17 q 208 82 292 -17 q 125 332 125 181 l 125 944 l 193 944 l 193 328 z "},"Ų":{"ha":903,"x_min":125,"x_max":778,"o":"m 193 328 q 263 124 193 207 q 451 40 332 40 q 642 124 575 40 q 710 328 710 207 l 710 944 l 778 944 l 778 332 q 713 104 778 199 q 522 -11 649 10 q 471 -72 492 -36 q 450 -156 450 -108 q 480 -217 450 -197 q 536 -237 510 -237 q 577 -230 558 -237 q 613 -208 596 -222 l 643 -246 q 596 -276 625 -264 q 532 -287 567 -287 q 428 -251 469 -287 q 386 -154 386 -214 q 403 -83 386 -119 q 449 -17 421 -46 q 208 83 290 -15 q 125 332 125 181 l 125 944 l 193 944 l 193 328 z "},"Ý":{"ha":744,"x_min":14,"x_max":731,"o":"m 397 1239 l 483 1239 l 364 1026 l 314 1026 l 397 1239 m 335 0 l 335 374 l 14 929 l 90 944 l 368 446 l 651 944 l 731 944 l 403 381 l 403 0 l 335 0 z "},"Ÿ":{"ha":744,"x_min":14,"x_max":731,"o":"m 481 1067 q 443 1081 457 1067 q 429 1118 429 1096 q 443 1154 429 1140 q 481 1168 457 1168 q 517 1154 501 1168 q 532 1118 532 1140 q 517 1081 532 1096 q 481 1067 501 1067 m 260 1067 q 222 1081 236 1067 q 208 1118 208 1096 q 222 1154 208 1140 q 260 1168 236 1168 q 296 1154 281 1168 q 311 1118 311 1140 q 296 1081 311 1096 q 260 1067 281 1067 m 335 0 l 335 374 l 14 929 l 90 944 l 368 446 l 651 944 l 731 944 l 403 381 l 403 0 l 335 0 z "},"Ź":{"ha":721,"x_min":42,"x_max":679,"o":"m 424 1239 l 510 1239 l 390 1026 l 340 1026 l 424 1239 m 658 0 l 50 0 l 42 69 l 615 890 l 93 890 l 79 944 l 672 944 l 679 876 l 110 54 l 651 54 l 658 0 z "},"Ż":{"ha":721,"x_min":42,"x_max":679,"o":"m 396 1067 q 358 1082 372 1067 q 343 1119 343 1097 q 358 1157 343 1142 q 396 1172 372 1172 q 434 1157 418 1172 q 450 1119 450 1142 q 434 1082 450 1097 q 396 1067 418 1067 m 658 0 l 50 0 l 42 69 l 615 890 l 93 890 l 79 944 l 672 944 l 679 876 l 110 54 l 651 54 l 658 0 z "},"Ž":{"ha":721,"x_min":42,"x_max":679,"o":"m 499 1239 l 568 1239 l 408 1026 l 353 1026 l 192 1239 l 264 1239 l 379 1074 l 499 1239 m 658 0 l 50 0 l 42 69 l 615 890 l 93 890 l 79 944 l 672 944 l 679 876 l 110 54 l 651 54 l 658 0 z "},"Ş":{"ha":742,"x_min":92,"x_max":667,"o":"m 119 94 q 218 58 156 76 q 350 40 281 40 q 533 95 469 40 q 596 222 596 150 q 344 458 596 375 q 92 743 92 542 q 168 903 92 839 q 378 967 244 967 q 508 950 447 967 q 611 913 569 933 l 581 863 q 499 894 544 879 q 381 910 453 910 q 222 859 281 910 q 164 736 164 808 q 415 492 164 578 q 667 218 667 407 q 598 58 667 122 q 396 -17 529 -7 l 375 -71 q 469 -117 438 -82 q 501 -189 501 -153 q 460 -274 501 -242 q 350 -307 418 -307 q 293 -299 325 -307 q 243 -281 261 -292 l 264 -237 q 300 -250 276 -243 q 346 -257 324 -257 q 416 -237 389 -257 q 443 -192 443 -218 q 408 -135 443 -162 q 306 -107 372 -107 l 339 -18 q 199 2 278 -17 q 99 40 121 21 l 119 94 z "},"Ģ":{"ha":875,"x_min":92,"x_max":764,"o":"m 489 475 l 761 475 l 761 43 q 667 3 726 21 q 551 -18 607 -14 l 532 -71 q 626 -117 594 -82 q 658 -189 658 -153 q 617 -274 658 -242 q 507 -307 575 -307 q 450 -299 482 -307 q 400 -281 418 -292 l 421 -237 q 457 -250 433 -243 q 503 -257 481 -257 q 573 -237 546 -257 q 600 -192 600 -218 q 565 -135 600 -162 q 463 -107 529 -107 l 496 -18 q 193 129 294 -8 q 92 467 92 267 q 211 824 92 683 q 533 964 331 964 q 651 951 576 964 q 764 913 725 939 l 738 867 q 652 896 694 885 q 536 907 610 907 q 265 780 361 907 q 168 451 168 653 q 265 151 168 261 q 524 40 363 40 q 616 50 574 40 q 693 72 658 60 l 693 421 l 481 421 l 489 475 z "},"Ķ":{"ha":806,"x_min":139,"x_max":792,"o":"m 721 921 l 374 551 l 792 0 l 706 0 l 328 503 l 207 374 l 207 0 l 139 0 l 139 944 l 207 944 l 207 451 l 674 965 l 721 921 m 449 -29 q 488 -49 474 -29 q 503 -89 503 -68 q 472 -205 503 -153 q 383 -285 442 -257 l 361 -250 q 421 -202 397 -231 q 446 -136 444 -174 q 408 -117 421 -136 q 396 -83 396 -97 q 409 -46 396 -62 q 449 -29 422 -29 z "},"Ļ":{"ha":682,"x_min":139,"x_max":654,"o":"m 654 0 l 139 0 l 139 944 l 207 944 l 207 54 l 647 54 l 654 0 m 419 -29 q 459 -49 444 -29 q 474 -89 474 -68 q 443 -205 474 -153 q 354 -285 413 -257 l 332 -250 q 392 -202 368 -231 q 417 -136 415 -174 q 379 -117 392 -136 q 367 -83 367 -97 q 380 -46 367 -62 q 419 -29 393 -29 z "},"Ņ":{"ha":914,"x_min":139,"x_max":775,"o":"m 139 0 l 139 944 l 178 944 l 660 236 l 707 154 l 707 944 l 775 944 l 775 0 l 738 0 l 226 757 l 207 797 l 207 0 l 139 0 m 463 -29 q 502 -49 488 -29 q 517 -89 517 -68 q 486 -205 517 -153 q 397 -285 456 -257 l 375 -250 q 435 -202 411 -231 q 460 -136 458 -174 q 422 -117 435 -136 q 410 -83 410 -97 q 423 -46 410 -62 q 463 -29 436 -29 z "},"Ŗ":{"ha":822,"x_min":139,"x_max":781,"o":"m 368 889 l 207 889 l 207 451 l 353 451 q 547 503 458 451 q 636 672 636 554 q 556 841 636 793 q 368 889 476 889 m 365 944 q 609 884 513 944 q 706 675 706 824 q 658 519 706 579 q 535 429 610 458 l 781 0 l 704 0 l 476 411 q 414 401 446 404 q 350 397 382 397 l 207 397 l 207 0 l 139 0 l 139 944 l 365 944 m 440 -29 q 480 -49 465 -29 q 494 -89 494 -68 q 464 -205 494 -153 q 375 -285 433 -257 l 353 -250 q 413 -202 389 -231 q 438 -136 436 -174 q 400 -117 413 -136 q 388 -83 388 -97 q 401 -46 388 -62 q 440 -29 414 -29 z "},"Ţ":{"ha":714,"x_min":28,"x_max":686,"o":"m 686 890 l 390 890 l 390 0 l 382 0 l 354 -71 q 449 -117 417 -82 q 481 -189 481 -153 q 439 -274 481 -242 q 329 -307 397 -307 q 272 -299 304 -307 q 222 -281 240 -292 l 243 -237 q 279 -250 256 -243 q 325 -257 303 -257 q 395 -237 368 -257 q 422 -192 422 -218 q 387 -135 422 -162 q 285 -107 351 -107 l 322 0 l 322 890 l 28 890 l 28 944 l 679 944 l 686 890 z "},"Ș":{"ha":742,"x_min":92,"x_max":667,"o":"m 119 94 q 218 58 156 76 q 350 40 281 40 q 533 95 469 40 q 596 222 596 150 q 344 458 596 375 q 92 743 92 542 q 168 903 92 839 q 378 967 244 967 q 508 950 447 967 q 611 913 569 933 l 581 863 q 499 894 544 879 q 381 910 453 910 q 222 859 281 910 q 164 736 164 808 q 415 492 164 578 q 667 218 667 407 q 586 48 667 114 q 351 -18 506 -18 q 207 1 292 -18 q 99 40 122 19 l 119 94 m 357 -29 q 397 -49 382 -29 q 411 -89 411 -68 q 381 -205 411 -153 q 292 -285 350 -257 l 269 -250 q 329 -202 306 -231 q 354 -136 353 -174 q 317 -117 329 -136 q 304 -83 304 -97 q 317 -46 304 -62 q 357 -29 331 -29 z "},"Ț":{"ha":714,"x_min":28,"x_max":686,"o":"m 686 890 l 390 890 l 390 0 l 322 0 l 322 890 l 28 890 l 28 944 l 679 944 l 686 890 m 357 -29 q 397 -49 382 -29 q 411 -89 411 -68 q 381 -205 411 -153 q 292 -285 350 -257 l 269 -250 q 329 -202 306 -231 q 354 -136 353 -174 q 317 -117 329 -136 q 304 -83 304 -97 q 317 -46 304 -62 q 357 -29 331 -29 z "},"à":{"ha":668,"x_min":72,"x_max":568,"o":"m 219 1031 l 304 1031 l 389 818 l 338 818 l 219 1031 m 143 189 q 186 83 143 126 q 304 39 229 39 q 419 72 369 39 q 500 151 468 104 l 500 339 l 318 339 q 185 295 226 339 q 143 189 143 251 m 119 633 q 226 676 158 660 q 335 692 293 692 q 509 631 450 692 q 568 472 568 571 l 568 0 l 529 0 l 504 72 q 416 8 469 33 q 299 -18 363 -18 q 128 42 185 -18 q 72 189 72 101 q 140 338 72 285 q 313 390 207 390 l 500 390 l 500 474 q 460 589 500 543 q 339 635 421 635 q 229 621 271 635 q 146 588 188 607 l 119 633 z "},"á":{"ha":668,"x_min":72,"x_max":568,"o":"m 365 1031 l 451 1031 l 332 818 l 282 818 l 365 1031 m 143 189 q 186 83 143 126 q 304 39 229 39 q 419 72 369 39 q 500 151 468 104 l 500 339 l 318 339 q 185 295 226 339 q 143 189 143 251 m 119 633 q 226 676 158 660 q 335 692 293 692 q 509 631 450 692 q 568 472 568 571 l 568 0 l 529 0 l 504 72 q 416 8 469 33 q 299 -18 363 -18 q 128 42 185 -18 q 72 189 72 101 q 140 338 72 285 q 313 390 207 390 l 500 390 l 500 474 q 460 589 500 543 q 339 635 421 635 q 229 621 271 635 q 146 588 188 607 l 119 633 z "},"â":{"ha":668,"x_min":72,"x_max":568,"o":"m 219 818 l 150 818 l 310 1031 l 365 1031 l 526 818 l 454 818 l 339 982 l 219 818 m 143 189 q 186 83 143 126 q 304 39 229 39 q 419 72 369 39 q 500 151 468 104 l 500 339 l 318 339 q 185 295 226 339 q 143 189 143 251 m 119 633 q 226 676 158 660 q 335 692 293 692 q 509 631 450 692 q 568 472 568 571 l 568 0 l 529 0 l 504 72 q 416 8 469 33 q 299 -18 363 -18 q 128 42 185 -18 q 72 189 72 101 q 140 338 72 285 q 313 390 207 390 l 500 390 l 500 474 q 460 589 500 543 q 339 635 421 635 q 229 621 271 635 q 146 588 188 607 l 119 633 z "},"ã":{"ha":668,"x_min":72,"x_max":568,"o":"m 529 971 q 495 875 529 906 q 414 844 461 844 q 330 884 367 844 q 258 924 293 924 q 213 903 228 924 q 196 850 199 882 l 142 850 q 176 946 142 915 q 257 976 210 976 q 347 937 315 976 q 414 897 378 897 q 458 918 443 897 q 476 971 474 939 l 529 971 m 143 189 q 186 83 143 126 q 304 39 229 39 q 419 72 369 39 q 500 151 468 104 l 500 339 l 318 339 q 185 295 226 339 q 143 189 143 251 m 119 633 q 226 676 158 660 q 335 692 293 692 q 509 631 450 692 q 568 472 568 571 l 568 0 l 529 0 l 504 72 q 416 8 469 33 q 299 -18 363 -18 q 128 42 185 -18 q 72 189 72 101 q 140 338 72 285 q 313 390 207 390 l 500 390 l 500 474 q 460 589 500 543 q 339 635 421 635 q 229 621 271 635 q 146 588 188 607 l 119 633 z "},"ä":{"ha":668,"x_min":72,"x_max":568,"o":"m 449 858 q 411 873 425 858 q 397 910 397 888 q 411 946 397 932 q 449 960 425 960 q 485 946 469 960 q 500 910 500 932 q 485 873 500 888 q 449 858 469 858 m 228 858 q 190 873 204 858 q 176 910 176 888 q 190 946 176 932 q 228 960 204 960 q 264 946 249 960 q 279 910 279 932 q 264 873 279 888 q 228 858 249 858 m 143 189 q 186 83 143 126 q 304 39 229 39 q 419 72 369 39 q 500 151 468 104 l 500 339 l 318 339 q 185 295 226 339 q 143 189 143 251 m 119 633 q 226 676 158 660 q 335 692 293 692 q 509 631 450 692 q 568 472 568 571 l 568 0 l 529 0 l 504 72 q 416 8 469 33 q 299 -18 363 -18 q 128 42 185 -18 q 72 189 72 101 q 140 338 72 285 q 313 390 207 390 l 500 390 l 500 474 q 460 589 500 543 q 339 635 421 635 q 229 621 271 635 q 146 588 188 607 l 119 633 z "},"å":{"ha":668,"x_min":72,"x_max":568,"o":"m 338 1054 q 424 1021 388 1054 q 460 938 460 988 q 424 857 460 889 q 338 825 388 825 q 251 857 288 825 q 214 938 214 889 q 251 1021 214 988 q 338 1054 288 1054 m 338 867 q 387 887 368 867 q 406 938 406 907 q 387 990 406 969 q 338 1011 368 1011 q 288 990 307 1011 q 268 938 268 969 q 288 887 268 907 q 338 867 307 867 m 143 189 q 186 83 143 126 q 304 39 229 39 q 419 72 369 39 q 500 151 468 104 l 500 339 l 318 339 q 185 295 226 339 q 143 189 143 251 m 119 633 q 226 676 158 660 q 335 692 293 692 q 509 631 450 692 q 568 472 568 571 l 568 0 l 529 0 l 504 72 q 416 8 469 33 q 299 -18 363 -18 q 128 42 185 -18 q 72 189 72 101 q 140 338 72 285 q 313 390 207 390 l 500 390 l 500 474 q 460 589 500 543 q 339 635 421 635 q 229 621 271 635 q 146 588 188 607 l 119 633 z "},"ā":{"ha":668,"x_min":72,"x_max":568,"o":"m 171 940 l 506 940 l 506 889 l 171 889 l 171 940 m 143 189 q 186 83 143 126 q 304 39 229 39 q 419 72 369 39 q 500 151 468 104 l 500 339 l 318 339 q 185 295 226 339 q 143 189 143 251 m 119 633 q 226 676 158 660 q 335 692 293 692 q 509 631 450 692 q 568 472 568 571 l 568 0 l 529 0 l 504 72 q 416 8 469 33 q 299 -18 363 -18 q 128 42 185 -18 q 72 189 72 101 q 140 338 72 285 q 313 390 207 390 l 500 390 l 500 474 q 460 589 500 543 q 339 635 421 635 q 229 621 271 635 q 146 588 188 607 l 119 633 z "},"ă":{"ha":668,"x_min":72,"x_max":568,"o":"m 518 1015 q 473 890 518 946 q 338 835 428 835 q 203 890 250 835 q 157 1015 157 946 l 214 1015 q 247 928 214 967 q 338 889 279 889 q 428 926 396 889 q 461 1015 461 964 l 518 1015 m 143 189 q 186 83 143 126 q 304 39 229 39 q 419 72 369 39 q 500 151 468 104 l 500 339 l 318 339 q 185 295 226 339 q 143 189 143 251 m 119 633 q 226 676 158 660 q 335 692 293 692 q 509 631 450 692 q 568 472 568 571 l 568 0 l 529 0 l 504 72 q 416 8 469 33 q 299 -18 363 -18 q 128 42 185 -18 q 72 189 72 101 q 140 338 72 285 q 313 390 207 390 l 500 390 l 500 474 q 460 589 500 543 q 339 635 421 635 q 229 621 271 635 q 146 588 188 607 l 119 633 z "},"ą":{"ha":668,"x_min":72,"x_max":689,"o":"m 119 633 q 226 676 158 660 q 335 692 293 692 q 509 631 450 692 q 568 472 568 571 l 568 0 q 517 -64 538 -28 q 496 -151 496 -100 q 526 -215 496 -193 q 582 -237 556 -237 q 623 -230 604 -237 q 658 -208 642 -222 l 689 -246 q 642 -276 671 -264 q 578 -287 613 -287 q 474 -251 515 -287 q 432 -154 432 -214 q 459 -57 432 -106 q 521 21 486 -8 l 504 72 q 416 8 469 33 q 299 -18 363 -18 q 128 42 185 -18 q 72 189 72 101 q 140 338 72 285 q 313 390 207 390 l 500 390 l 500 474 q 460 589 500 543 q 339 635 421 635 q 229 621 271 635 q 146 588 188 607 l 119 633 m 143 189 q 186 83 143 126 q 304 39 229 39 q 419 72 369 39 q 500 151 468 104 l 500 339 l 318 339 q 185 295 226 339 q 143 189 143 251 z "},"ç":{"ha":624,"x_min":67,"x_max":557,"o":"m 522 86 l 550 39 q 458 -1 510 14 q 364 -18 407 -17 l 343 -71 q 438 -117 406 -82 q 469 -189 469 -153 q 428 -274 469 -242 q 318 -307 386 -307 q 261 -299 293 -307 q 211 -281 229 -292 l 232 -237 q 268 -250 244 -243 q 314 -257 292 -257 q 384 -237 357 -257 q 411 -192 411 -218 q 376 -135 411 -162 q 274 -107 340 -107 l 308 -14 q 126 100 185 3 q 67 340 67 197 q 142 592 67 492 q 367 692 218 692 q 462 676 407 692 q 557 633 517 660 l 529 588 q 461 619 494 604 q 364 635 428 635 q 195 547 253 635 q 138 342 138 460 q 190 128 138 218 q 357 39 243 39 q 456 53 426 39 q 522 86 486 68 z "},"ć":{"ha":624,"x_min":67,"x_max":557,"o":"m 382 1031 l 468 1031 l 349 818 l 299 818 l 382 1031 m 550 39 q 454 -3 508 13 q 357 -18 400 -18 q 138 83 208 -18 q 67 340 67 183 q 142 592 67 492 q 367 692 218 692 q 462 676 407 692 q 557 633 517 660 l 529 588 q 461 619 494 604 q 364 635 428 635 q 195 547 253 635 q 138 342 138 460 q 190 128 138 218 q 357 39 243 39 q 456 53 426 39 q 522 86 486 68 l 550 39 z "},"č":{"ha":624,"x_min":67,"x_max":557,"o":"m 485 1031 l 554 1031 l 394 818 l 339 818 l 178 1031 l 250 1031 l 365 865 l 485 1031 m 550 39 q 454 -3 508 13 q 357 -18 400 -18 q 138 83 208 -18 q 67 340 67 183 q 142 592 67 492 q 367 692 218 692 q 462 676 407 692 q 557 633 517 660 l 529 588 q 461 619 494 604 q 364 635 428 635 q 195 547 253 635 q 138 342 138 460 q 190 128 138 218 q 357 39 243 39 q 456 53 426 39 q 522 86 486 68 l 550 39 z "},"ď":{"ha":933,"x_min":67,"x_max":892,"o":"m 838 975 q 877 956 863 975 q 892 915 892 936 q 861 799 892 851 q 772 719 831 747 l 750 754 q 810 802 786 774 q 835 868 833 831 q 797 888 810 868 q 785 921 785 907 q 798 958 785 942 q 838 975 811 975 m 543 554 q 447 615 500 594 q 353 635 394 635 q 188 548 239 635 q 138 339 138 461 q 188 127 138 215 q 353 39 239 39 q 447 60 394 39 q 543 121 500 81 l 543 554 m 611 979 l 611 0 l 574 0 l 551 60 q 456 3 508 25 q 356 -18 404 -18 q 138 81 208 -18 q 67 335 67 181 q 138 591 67 490 q 356 692 208 692 q 452 670 401 692 q 543 617 503 649 l 543 967 l 611 979 z "},"è":{"ha":689,"x_min":67,"x_max":622,"o":"m 236 1031 l 321 1031 l 406 818 l 354 818 l 236 1031 m 622 336 l 138 336 q 194 127 139 215 q 375 39 250 39 q 494 53 449 39 q 574 86 539 68 l 601 35 q 493 -5 560 8 q 386 -18 426 -18 q 144 83 221 -18 q 67 340 67 183 q 140 592 67 492 q 361 692 213 692 q 550 591 478 692 q 622 336 622 490 m 550 388 q 496 560 540 486 q 351 635 451 635 q 201 560 251 635 q 140 388 150 486 l 550 388 z "},"é":{"ha":689,"x_min":67,"x_max":622,"o":"m 382 1031 l 468 1031 l 349 818 l 299 818 l 382 1031 m 622 336 l 138 336 q 194 127 139 215 q 375 39 250 39 q 494 53 449 39 q 574 86 539 68 l 601 35 q 493 -5 560 8 q 386 -18 426 -18 q 144 83 221 -18 q 67 340 67 183 q 140 592 67 492 q 361 692 213 692 q 550 591 478 692 q 622 336 622 490 m 550 388 q 496 560 540 486 q 351 635 451 635 q 201 560 251 635 q 140 388 150 486 l 550 388 z "},"ê":{"ha":689,"x_min":67,"x_max":622,"o":"m 236 818 l 167 818 l 326 1031 l 382 1031 l 543 818 l 471 818 l 356 982 l 236 818 m 622 336 l 138 336 q 194 127 139 215 q 375 39 250 39 q 494 53 449 39 q 574 86 539 68 l 601 35 q 493 -5 560 8 q 386 -18 426 -18 q 144 83 221 -18 q 67 340 67 183 q 140 592 67 492 q 361 692 213 692 q 550 591 478 692 q 622 336 622 490 m 550 388 q 496 560 540 486 q 351 635 451 635 q 201 560 251 635 q 140 388 150 486 l 550 388 z "},"ë":{"ha":689,"x_min":67,"x_max":622,"o":"m 465 858 q 428 873 442 858 q 414 910 414 888 q 428 946 414 932 q 465 960 442 960 q 501 946 486 960 q 517 910 517 932 q 501 873 517 888 q 465 858 486 858 m 244 858 q 207 873 221 858 q 193 910 193 888 q 207 946 193 932 q 244 960 221 960 q 281 946 265 960 q 296 910 296 932 q 281 873 296 888 q 244 858 265 858 m 622 336 l 138 336 q 194 127 139 215 q 375 39 250 39 q 494 53 449 39 q 574 86 539 68 l 601 35 q 493 -5 560 8 q 386 -18 426 -18 q 144 83 221 -18 q 67 340 67 183 q 140 592 67 492 q 361 692 213 692 q 550 591 478 692 q 622 336 622 490 m 550 388 q 496 560 540 486 q 351 635 451 635 q 201 560 251 635 q 140 388 150 486 l 550 388 z "},"ē":{"ha":689,"x_min":67,"x_max":622,"o":"m 188 940 l 522 940 l 522 889 l 188 889 l 188 940 m 622 336 l 138 336 q 194 127 139 215 q 375 39 250 39 q 494 53 449 39 q 574 86 539 68 l 601 35 q 493 -5 560 8 q 386 -18 426 -18 q 144 83 221 -18 q 67 340 67 183 q 140 592 67 492 q 361 692 213 692 q 550 591 478 692 q 622 336 622 490 m 550 388 q 496 560 540 486 q 351 635 451 635 q 201 560 251 635 q 140 388 150 486 l 550 388 z "},"ė":{"ha":689,"x_min":67,"x_max":622,"o":"m 354 858 q 316 874 331 858 q 301 911 301 889 q 316 949 301 933 q 354 964 331 964 q 392 949 376 964 q 408 911 408 933 q 392 874 408 889 q 354 858 376 858 m 622 336 l 138 336 q 194 127 139 215 q 375 39 250 39 q 494 53 449 39 q 574 86 539 68 l 601 35 q 493 -5 560 8 q 386 -18 426 -18 q 144 83 221 -18 q 67 340 67 183 q 140 592 67 492 q 361 692 213 692 q 550 591 478 692 q 622 336 622 490 m 550 388 q 496 560 540 486 q 351 635 451 635 q 201 560 251 635 q 140 388 150 486 l 550 388 z "},"ę":{"ha":689,"x_min":67,"x_max":622,"o":"m 622 336 l 138 336 q 194 127 139 215 q 375 39 250 39 q 494 53 449 39 q 574 86 539 68 l 601 35 q 535 6 575 18 q 458 -11 496 -6 q 408 -72 428 -36 q 388 -156 388 -108 q 417 -217 388 -197 q 474 -237 447 -237 q 515 -230 496 -237 q 550 -208 533 -222 l 581 -246 q 533 -276 563 -264 q 469 -287 504 -287 q 365 -251 407 -287 q 324 -154 324 -214 q 341 -83 324 -119 q 385 -18 358 -47 q 143 83 219 -17 q 67 340 67 183 q 140 592 67 492 q 361 692 213 692 q 550 591 478 692 q 622 336 622 490 m 550 388 q 496 560 540 486 q 351 635 451 635 q 201 560 251 635 q 140 388 150 486 l 550 388 z "},"ě":{"ha":689,"x_min":67,"x_max":622,"o":"m 479 1031 l 549 1031 l 389 818 l 333 818 l 172 1031 l 244 1031 l 360 865 l 479 1031 m 622 336 l 138 336 q 194 127 139 215 q 375 39 250 39 q 494 53 449 39 q 574 86 539 68 l 601 35 q 493 -5 560 8 q 386 -18 426 -18 q 144 83 221 -18 q 67 340 67 183 q 140 592 67 492 q 361 692 213 692 q 550 591 478 692 q 622 336 622 490 m 550 388 q 496 560 540 486 q 351 635 451 635 q 201 560 251 635 q 140 388 150 486 l 550 388 z "},"ğ":{"ha":722,"x_min":67,"x_max":611,"o":"m 536 1015 q 491 890 536 946 q 356 835 446 835 q 222 890 268 835 q 175 1015 175 946 l 232 1015 q 265 928 232 967 q 356 889 297 889 q 447 926 414 889 q 479 1015 479 964 l 536 1015 m 543 554 q 447 615 500 594 q 353 635 394 635 q 188 548 239 635 q 138 339 138 461 q 188 127 138 215 q 353 39 239 39 q 447 60 394 39 q 543 121 500 81 l 543 554 m 611 -74 q 551 -240 611 -174 q 358 -307 490 -307 q 250 -292 318 -307 q 143 -250 182 -276 l 169 -201 q 254 -236 217 -222 q 356 -250 292 -250 q 492 -210 440 -250 q 543 -87 543 -171 l 543 56 q 452 2 503 22 q 356 -18 401 -18 q 138 81 208 -18 q 67 335 67 181 q 138 591 67 490 q 356 692 208 692 q 456 669 404 692 q 550 611 508 646 l 574 674 l 611 674 l 611 -74 z "},"ì":{"ha":290,"x_min":13,"x_max":182,"o":"m 13 1031 l 97 1031 l 182 818 l 131 818 l 13 1031 m 111 0 l 111 674 l 179 674 l 179 0 l 111 0 z "},"í":{"ha":290,"x_min":107,"x_max":276,"o":"m 190 1031 l 276 1031 l 157 818 l 107 818 l 190 1031 m 111 0 l 111 674 l 179 674 l 179 0 l 111 0 z "},"î":{"ha":290,"x_min":-43,"x_max":333,"o":"m 26 818 l -43 818 l 117 1031 l 172 1031 l 333 818 l 261 818 l 146 982 l 26 818 m 111 0 l 111 674 l 179 674 l 179 0 l 111 0 z "},"ï":{"ha":290,"x_min":-17,"x_max":307,"o":"m 256 858 q 218 873 232 858 q 204 910 204 888 q 218 946 204 932 q 256 960 232 960 q 292 946 276 960 q 307 910 307 932 q 292 873 307 888 q 256 858 276 858 m 35 858 q -3 873 11 858 q -17 910 -17 888 q -3 946 -17 932 q 35 960 11 960 q 71 946 56 960 q 86 910 86 932 q 71 873 86 888 q 35 858 56 858 m 111 0 l 111 674 l 179 674 l 179 0 l 111 0 z "},"ī":{"ha":290,"x_min":-22,"x_max":313,"o":"m -22 940 l 313 940 l 313 889 l -22 889 l -22 940 m 111 0 l 111 674 l 179 674 l 179 0 l 111 0 z "},"į":{"ha":301,"x_min":31,"x_max":288,"o":"m 150 833 q 112 849 126 833 q 97 886 97 864 q 112 924 97 908 q 150 939 126 939 q 188 924 172 939 q 204 886 204 908 q 188 849 204 864 q 150 833 172 833 m 117 6 l 117 674 l 185 674 l 185 0 q 121 -65 147 -25 q 94 -156 94 -104 q 124 -217 94 -197 q 181 -237 154 -237 q 222 -230 203 -237 q 257 -208 240 -222 l 288 -246 q 240 -276 269 -264 q 176 -287 211 -287 q 72 -251 114 -287 q 31 -154 31 -214 q 56 -68 31 -112 q 117 6 81 -24 z "},"ľ":{"ha":501,"x_min":111,"x_max":460,"o":"m 111 0 l 111 967 l 179 981 l 179 0 l 111 0 m 406 975 q 445 956 431 975 q 460 915 460 936 q 429 799 460 851 q 340 719 399 747 l 318 754 q 378 802 354 774 q 403 868 401 831 q 365 888 378 868 q 353 921 353 907 q 366 958 353 942 q 406 975 379 975 z "},"ñ":{"ha":717,"x_min":111,"x_max":617,"o":"m 553 971 q 519 875 553 906 q 438 844 485 844 q 353 884 390 844 q 282 924 317 924 q 237 903 251 924 q 219 850 222 882 l 165 850 q 199 946 165 915 q 281 976 233 976 q 370 937 339 976 q 438 897 401 897 q 482 918 467 897 q 500 971 497 939 l 553 971 m 111 0 l 111 674 l 150 674 l 178 568 q 288 655 221 618 q 417 692 354 692 q 571 628 525 692 q 617 468 617 565 l 617 0 l 549 0 l 549 468 q 515 585 549 538 q 407 635 481 633 q 294 600 363 635 q 179 506 226 565 l 179 0 l 111 0 z "},"ń":{"ha":717,"x_min":111,"x_max":617,"o":"m 431 1031 l 517 1031 l 397 818 l 347 818 l 431 1031 m 111 0 l 111 674 l 150 674 l 178 568 q 288 655 221 618 q 417 692 354 692 q 571 628 525 692 q 617 468 617 565 l 617 0 l 549 0 l 549 468 q 515 585 549 538 q 407 635 481 633 q 294 600 363 635 q 179 506 226 565 l 179 0 l 111 0 z "},"ň":{"ha":717,"x_min":111,"x_max":617,"o":"m 492 1031 l 561 1031 l 401 818 l 346 818 l 185 1031 l 257 1031 l 372 865 l 492 1031 m 111 0 l 111 674 l 150 674 l 178 568 q 288 655 221 618 q 417 692 354 692 q 571 628 525 692 q 617 468 617 565 l 617 0 l 549 0 l 549 468 q 515 585 549 538 q 407 635 481 633 q 294 600 363 635 q 179 506 226 565 l 179 0 l 111 0 z "},"ò":{"ha":690,"x_min":67,"x_max":624,"o":"m 229 1031 l 314 1031 l 399 818 l 347 818 l 229 1031 m 335 -18 q 128 85 189 -18 q 67 340 67 188 q 136 590 68 489 q 349 692 204 692 q 560 590 497 692 q 624 332 624 488 q 552 81 624 179 q 335 -18 481 -18 m 553 332 q 509 545 553 453 q 351 638 465 638 q 189 549 240 638 q 138 342 138 460 q 181 127 138 218 q 336 36 224 36 q 501 124 449 36 q 553 332 553 211 z "},"ó":{"ha":690,"x_min":67,"x_max":624,"o":"m 375 1031 l 461 1031 l 342 818 l 292 818 l 375 1031 m 335 -18 q 128 85 189 -18 q 67 340 67 188 q 136 590 68 489 q 349 692 204 692 q 560 590 497 692 q 624 332 624 488 q 552 81 624 179 q 335 -18 481 -18 m 553 332 q 509 545 553 453 q 351 638 465 638 q 189 549 240 638 q 138 342 138 460 q 181 127 138 218 q 336 36 224 36 q 501 124 449 36 q 553 332 553 211 z "},"ô":{"ha":690,"x_min":67,"x_max":624,"o":"m 229 818 l 160 818 l 319 1031 l 375 1031 l 536 818 l 464 818 l 349 982 l 229 818 m 335 -18 q 128 85 189 -18 q 67 340 67 188 q 136 590 68 489 q 349 692 204 692 q 560 590 497 692 q 624 332 624 488 q 552 81 624 179 q 335 -18 481 -18 m 553 332 q 509 545 553 453 q 351 638 465 638 q 189 549 240 638 q 138 342 138 460 q 181 127 138 218 q 336 36 224 36 q 501 124 449 36 q 553 332 553 211 z "},"õ":{"ha":690,"x_min":67,"x_max":624,"o":"m 539 971 q 505 875 539 906 q 424 844 471 844 q 340 884 376 844 q 268 924 303 924 q 223 903 238 924 q 206 850 208 882 l 151 850 q 185 946 151 915 q 267 976 219 976 q 356 937 325 976 q 424 897 388 897 q 468 918 453 897 q 486 971 483 939 l 539 971 m 335 -18 q 128 85 189 -18 q 67 340 67 188 q 136 590 68 489 q 349 692 204 692 q 560 590 497 692 q 624 332 624 488 q 552 81 624 179 q 335 -18 481 -18 m 553 332 q 509 545 553 453 q 351 638 465 638 q 189 549 240 638 q 138 342 138 460 q 181 127 138 218 q 336 36 224 36 q 501 124 449 36 q 553 332 553 211 z "},"ö":{"ha":690,"x_min":67,"x_max":624,"o":"m 472 858 q 435 873 449 858 q 421 910 421 888 q 435 946 421 932 q 472 960 449 960 q 508 946 493 960 q 524 910 524 932 q 508 873 524 888 q 472 858 493 858 m 251 858 q 214 873 228 858 q 200 910 200 888 q 214 946 200 932 q 251 960 228 960 q 288 946 272 960 q 303 910 303 932 q 288 873 303 888 q 251 858 272 858 m 335 -18 q 128 85 189 -18 q 67 340 67 188 q 136 590 68 489 q 349 692 204 692 q 560 590 497 692 q 624 332 624 488 q 552 81 624 179 q 335 -18 481 -18 m 553 332 q 509 545 553 453 q 351 638 465 638 q 189 549 240 638 q 138 342 138 460 q 181 127 138 218 q 336 36 224 36 q 501 124 449 36 q 553 332 553 211 z "},"ō":{"ha":690,"x_min":67,"x_max":624,"o":"m 181 940 l 515 940 l 515 889 l 181 889 l 181 940 m 335 -18 q 128 85 189 -18 q 67 340 67 188 q 136 590 68 489 q 349 692 204 692 q 560 590 497 692 q 624 332 624 488 q 552 81 624 179 q 335 -18 481 -18 m 553 332 q 509 545 553 453 q 351 638 465 638 q 189 549 240 638 q 138 342 138 460 q 181 127 138 218 q 336 36 224 36 q 501 124 449 36 q 553 332 553 211 z "},"ő":{"ha":690,"x_min":67,"x_max":624,"o":"m 468 1031 l 554 1031 l 438 818 l 386 818 l 468 1031 m 297 1031 l 383 1031 l 264 818 l 214 818 l 297 1031 m 335 -18 q 128 85 189 -18 q 67 340 67 188 q 136 590 68 489 q 349 692 204 692 q 560 590 497 692 q 624 332 624 488 q 552 81 624 179 q 335 -18 481 -18 m 553 332 q 509 545 553 453 q 351 638 465 638 q 189 549 240 638 q 138 342 138 460 q 181 127 138 218 q 336 36 224 36 q 501 124 449 36 q 553 332 553 211 z "},"ŕ":{"ha":431,"x_min":111,"x_max":406,"o":"m 265 1031 l 351 1031 l 232 818 l 182 818 l 265 1031 m 111 0 l 111 674 l 150 674 l 175 581 q 270 642 211 611 q 382 674 329 674 l 406 621 q 280 587 342 621 q 179 510 218 553 l 179 0 l 111 0 z "},"ř":{"ha":431,"x_min":28,"x_max":406,"o":"m 335 1031 l 404 1031 l 244 818 l 189 818 l 28 1031 l 100 1031 l 215 865 l 335 1031 m 111 0 l 111 674 l 150 674 l 175 581 q 270 642 211 611 q 382 674 329 674 l 406 621 q 280 587 342 621 q 179 510 218 553 l 179 0 l 111 0 z "},"ś":{"ha":594,"x_min":78,"x_max":528,"o":"m 342 1031 l 428 1031 l 308 818 l 258 818 l 342 1031 m 103 92 q 185 56 139 74 q 285 39 232 39 q 415 74 368 39 q 463 165 463 108 q 411 251 463 214 q 285 318 360 289 q 148 394 207 349 q 89 506 89 440 q 148 638 89 585 q 321 692 207 692 q 420 676 364 692 q 511 636 476 661 l 483 588 q 415 618 456 601 q 311 635 374 635 q 197 597 240 635 q 154 511 154 560 q 204 431 154 464 q 324 369 254 397 q 467 289 406 336 q 528 171 528 242 q 469 32 528 82 q 282 -18 411 -18 q 178 -5 240 -18 q 78 35 117 8 l 103 92 z "},"š":{"ha":594,"x_min":78,"x_max":528,"o":"m 431 1031 l 500 1031 l 340 818 l 285 818 l 124 1031 l 196 1031 l 311 865 l 431 1031 m 103 92 q 185 56 139 74 q 285 39 232 39 q 415 74 368 39 q 463 165 463 108 q 411 251 463 214 q 285 318 360 289 q 148 394 207 349 q 89 506 89 440 q 148 638 89 585 q 321 692 207 692 q 420 676 364 692 q 511 636 476 661 l 483 588 q 415 618 456 601 q 311 635 374 635 q 197 597 240 635 q 154 511 154 560 q 204 431 154 464 q 324 369 254 397 q 467 289 406 336 q 528 171 528 242 q 469 32 528 82 q 282 -18 411 -18 q 178 -5 240 -18 q 78 35 117 8 l 103 92 z "},"ť":{"ha":611,"x_min":25,"x_max":569,"o":"m 515 975 q 555 956 540 975 q 569 915 569 936 q 539 799 569 851 q 450 719 508 747 l 428 754 q 488 802 464 774 q 513 868 511 831 q 475 888 488 868 q 463 921 463 907 q 476 958 463 942 q 515 975 489 975 m 344 601 l 193 601 l 193 171 q 215 80 193 121 q 288 39 236 39 q 320 44 303 39 q 344 51 338 49 l 361 -1 q 323 -11 347 -4 q 269 -18 299 -18 q 165 28 204 -18 q 125 161 125 74 l 125 601 l 25 601 l 25 653 l 125 653 l 125 835 l 193 865 l 193 653 l 315 653 l 344 601 z "},"ù":{"ha":689,"x_min":100,"x_max":578,"o":"m 219 1031 l 304 1031 l 389 818 l 338 818 l 219 1031 m 578 674 l 578 0 l 538 0 l 511 76 q 412 10 468 38 q 301 -17 356 -17 q 145 46 190 -17 q 100 208 100 108 l 100 674 l 168 674 l 168 204 q 203 88 168 136 q 308 40 238 40 q 404 66 347 40 q 510 138 461 92 l 510 674 l 578 674 z "},"ú":{"ha":689,"x_min":100,"x_max":578,"o":"m 365 1031 l 451 1031 l 332 818 l 282 818 l 365 1031 m 578 674 l 578 0 l 538 0 l 511 76 q 412 10 468 38 q 301 -17 356 -17 q 145 46 190 -17 q 100 208 100 108 l 100 674 l 168 674 l 168 204 q 203 88 168 136 q 308 40 238 40 q 404 66 347 40 q 510 138 461 92 l 510 674 l 578 674 z "},"û":{"ha":689,"x_min":100,"x_max":578,"o":"m 233 818 l 164 818 l 324 1031 l 379 1031 l 540 818 l 468 818 l 353 982 l 233 818 m 578 674 l 578 0 l 538 0 l 511 76 q 412 10 468 38 q 301 -17 356 -17 q 145 46 190 -17 q 100 208 100 108 l 100 674 l 168 674 l 168 204 q 203 88 168 136 q 308 40 238 40 q 404 66 347 40 q 510 138 461 92 l 510 674 l 578 674 z "},"ü":{"ha":689,"x_min":100,"x_max":578,"o":"m 463 858 q 425 873 439 858 q 411 910 411 888 q 425 946 411 932 q 463 960 439 960 q 499 946 483 960 q 514 910 514 932 q 499 873 514 888 q 463 858 483 858 m 242 858 q 204 873 218 858 q 190 910 190 888 q 204 946 190 932 q 242 960 218 960 q 278 946 263 960 q 293 910 293 932 q 278 873 293 888 q 242 858 263 858 m 578 674 l 578 0 l 538 0 l 511 76 q 412 10 468 38 q 301 -17 356 -17 q 145 46 190 -17 q 100 208 100 108 l 100 674 l 168 674 l 168 204 q 203 88 168 136 q 308 40 238 40 q 404 66 347 40 q 510 138 461 92 l 510 674 l 578 674 z "},"ū":{"ha":689,"x_min":100,"x_max":578,"o":"m 171 940 l 506 940 l 506 889 l 171 889 l 171 940 m 578 674 l 578 0 l 538 0 l 511 76 q 412 10 468 38 q 301 -17 356 -17 q 145 46 190 -17 q 100 208 100 108 l 100 674 l 168 674 l 168 204 q 203 88 168 136 q 308 40 238 40 q 404 66 347 40 q 510 138 461 92 l 510 674 l 578 674 z "},"ů":{"ha":689,"x_min":100,"x_max":578,"o":"m 342 1054 q 428 1021 392 1054 q 464 938 464 988 q 428 857 464 889 q 342 825 392 825 q 255 857 292 825 q 218 938 218 889 q 255 1021 218 988 q 342 1054 292 1054 m 342 867 q 391 887 372 867 q 410 938 410 907 q 391 990 410 969 q 342 1011 372 1011 q 292 990 311 1011 q 272 938 272 969 q 292 887 272 907 q 342 867 311 867 m 578 674 l 578 0 l 538 0 l 511 76 q 412 10 468 38 q 301 -17 356 -17 q 145 46 190 -17 q 100 208 100 108 l 100 674 l 168 674 l 168 204 q 203 88 168 136 q 308 40 238 40 q 404 66 347 40 q 510 138 461 92 l 510 674 l 578 674 z "},"ű":{"ha":689,"x_min":100,"x_max":578,"o":"m 458 1031 l 544 1031 l 428 818 l 376 818 l 458 1031 m 288 1031 l 374 1031 l 254 818 l 204 818 l 288 1031 m 578 674 l 578 0 l 538 0 l 511 76 q 412 10 468 38 q 301 -17 356 -17 q 145 46 190 -17 q 100 208 100 108 l 100 674 l 168 674 l 168 204 q 203 88 168 136 q 308 40 238 40 q 404 66 347 40 q 510 138 461 92 l 510 674 l 578 674 z "},"ų":{"ha":689,"x_min":100,"x_max":692,"o":"m 578 674 l 578 0 q 521 -66 543 -32 q 499 -156 499 -100 q 528 -217 499 -197 q 585 -237 558 -237 q 626 -230 607 -237 q 661 -208 644 -222 l 692 -246 q 644 -276 674 -264 q 581 -287 615 -287 q 476 -251 518 -287 q 435 -154 435 -214 q 459 -56 435 -103 q 529 24 483 -10 l 511 76 q 412 10 468 38 q 301 -17 356 -17 q 145 46 190 -17 q 100 208 100 108 l 100 674 l 168 674 l 168 204 q 203 88 168 136 q 308 40 238 40 q 404 66 347 40 q 510 138 461 92 l 510 674 l 578 674 z "},"ý":{"ha":606,"x_min":14,"x_max":592,"o":"m 339 1031 l 425 1031 l 306 818 l 256 818 l 339 1031 m 276 0 l 14 660 l 86 674 l 308 78 l 522 674 l 592 674 l 288 -156 q 218 -251 267 -212 q 103 -304 169 -290 l 96 -251 q 182 -208 149 -233 q 233 -136 215 -183 l 276 0 z "},"ÿ":{"ha":606,"x_min":14,"x_max":592,"o":"m 422 858 q 385 873 399 858 q 371 910 371 888 q 385 946 371 932 q 422 960 399 960 q 458 946 443 960 q 474 910 474 932 q 458 873 474 888 q 422 858 443 858 m 201 858 q 164 873 178 858 q 150 910 150 888 q 164 946 150 932 q 201 960 178 960 q 238 946 222 960 q 253 910 253 932 q 238 873 253 888 q 201 858 222 858 m 276 0 l 14 660 l 86 674 l 308 78 l 522 674 l 592 674 l 288 -156 q 218 -251 267 -212 q 103 -304 169 -290 l 96 -251 q 182 -208 149 -233 q 233 -136 215 -183 l 276 0 z "},"ź":{"ha":608,"x_min":44,"x_max":567,"o":"m 354 1031 l 440 1031 l 321 818 l 271 818 l 354 1031 m 567 629 l 124 51 l 544 51 l 558 0 l 56 0 l 44 43 l 483 622 l 107 622 l 85 674 l 563 674 l 567 629 z "},"ż":{"ha":608,"x_min":44,"x_max":567,"o":"m 326 858 q 288 874 303 858 q 274 911 274 889 q 288 949 274 933 q 326 964 303 964 q 365 949 349 964 q 381 911 381 933 q 365 874 381 889 q 326 858 349 858 m 567 629 l 124 51 l 544 51 l 558 0 l 56 0 l 44 43 l 483 622 l 107 622 l 85 674 l 563 674 l 567 629 z "},"ž":{"ha":608,"x_min":44,"x_max":567,"o":"m 443 1031 l 513 1031 l 353 818 l 297 818 l 136 1031 l 208 1031 l 324 865 l 443 1031 m 567 629 l 124 51 l 544 51 l 558 0 l 56 0 l 44 43 l 483 622 l 107 622 l 85 674 l 563 674 l 567 629 z "},"ş":{"ha":594,"x_min":78,"x_max":528,"o":"m 103 92 q 185 56 139 74 q 285 39 232 39 q 415 74 368 39 q 463 165 463 108 q 411 251 463 214 q 285 318 360 289 q 148 394 207 349 q 89 506 89 440 q 148 638 89 585 q 321 692 207 692 q 420 676 364 692 q 511 636 476 661 l 483 588 q 415 618 456 601 q 311 635 374 635 q 197 597 240 635 q 154 511 154 560 q 204 431 154 464 q 324 369 254 397 q 467 289 406 336 q 528 171 528 242 q 477 38 528 88 q 314 -17 426 -11 l 293 -71 q 388 -117 356 -82 q 419 -189 419 -153 q 378 -274 419 -242 q 268 -307 336 -307 q 211 -299 243 -307 q 161 -281 179 -292 l 182 -237 q 218 -250 194 -243 q 264 -257 242 -257 q 334 -237 307 -257 q 361 -192 361 -218 q 326 -135 361 -162 q 224 -107 290 -107 l 257 -17 q 164 -1 215 -14 q 78 35 113 13 l 103 92 z "},"ķ":{"ha":629,"x_min":111,"x_max":624,"o":"m 111 0 l 111 967 l 179 981 l 179 367 l 492 692 l 543 649 l 328 435 l 624 0 l 542 0 l 282 389 l 179 286 l 179 0 l 111 0 m 343 -29 q 383 -49 368 -29 q 397 -89 397 -68 q 367 -205 397 -153 q 278 -285 336 -257 l 256 -250 q 315 -202 292 -231 q 340 -136 339 -174 q 303 -117 315 -136 q 290 -83 290 -97 q 303 -46 290 -62 q 343 -29 317 -29 z "},"ļ":{"ha":290,"x_min":60,"x_max":201,"o":"m 111 0 l 111 967 l 179 981 l 179 0 l 111 0 m 147 -29 q 187 -49 172 -29 q 201 -89 201 -68 q 171 -205 201 -153 q 82 -285 140 -257 l 60 -250 q 119 -202 96 -231 q 144 -136 143 -174 q 107 -117 119 -136 q 94 -83 94 -97 q 108 -46 94 -62 q 147 -29 121 -29 z "},"ņ":{"ha":717,"x_min":111,"x_max":617,"o":"m 111 0 l 111 674 l 150 674 l 178 568 q 288 655 221 618 q 417 692 354 692 q 571 628 525 692 q 617 468 617 565 l 617 0 l 549 0 l 549 468 q 515 585 549 538 q 407 635 481 633 q 294 600 363 635 q 179 506 226 565 l 179 0 l 111 0 m 372 -29 q 412 -49 397 -29 q 426 -89 426 -68 q 396 -205 426 -153 q 307 -285 365 -257 l 285 -250 q 344 -202 321 -231 q 369 -136 368 -174 q 332 -117 344 -136 q 319 -83 319 -97 q 333 -46 319 -62 q 372 -29 346 -29 z "},"ŗ":{"ha":431,"x_min":57,"x_max":406,"o":"m 111 0 l 111 674 l 150 674 l 175 581 q 270 642 211 611 q 382 674 329 674 l 406 621 q 280 587 342 621 q 179 510 218 553 l 179 0 l 111 0 m 144 -29 q 184 -49 169 -29 q 199 -89 199 -68 q 168 -205 199 -153 q 79 -285 138 -257 l 57 -250 q 117 -202 93 -231 q 142 -136 140 -174 q 104 -117 117 -136 q 92 -83 92 -97 q 105 -46 92 -62 q 144 -29 118 -29 z "},"ţ":{"ha":400,"x_min":25,"x_max":382,"o":"m 344 601 l 193 601 l 193 171 q 215 80 193 121 q 288 39 236 39 q 320 44 303 39 q 344 51 338 49 l 361 -1 q 326 -10 349 -4 q 276 -18 303 -17 l 256 -71 q 350 -117 318 -82 q 382 -189 382 -153 q 340 -274 382 -242 q 231 -307 299 -307 q 174 -299 206 -307 q 124 -281 142 -292 l 144 -237 q 181 -250 157 -243 q 226 -257 204 -257 q 297 -237 269 -257 q 324 -192 324 -218 q 288 -135 324 -162 q 186 -107 253 -107 l 222 -11 q 151 47 176 3 q 125 161 125 90 l 125 601 l 25 601 l 25 653 l 125 653 l 125 835 l 193 865 l 193 653 l 315 653 l 344 601 z "},"ș":{"ha":594,"x_min":78,"x_max":528,"o":"m 103 92 q 185 56 139 74 q 285 39 232 39 q 415 74 368 39 q 463 165 463 108 q 411 251 463 214 q 285 318 360 289 q 148 394 207 349 q 89 506 89 440 q 148 638 89 585 q 321 692 207 692 q 420 676 364 692 q 511 636 476 661 l 483 588 q 415 618 456 601 q 311 635 374 635 q 197 597 240 635 q 154 511 154 560 q 204 431 154 464 q 324 369 254 397 q 467 289 406 336 q 528 171 528 242 q 469 32 528 82 q 282 -18 411 -18 q 178 -5 240 -18 q 78 35 117 8 l 103 92 m 282 -29 q 322 -49 307 -29 q 336 -89 336 -68 q 306 -205 336 -153 q 217 -285 275 -257 l 194 -250 q 254 -202 231 -231 q 279 -136 278 -174 q 242 -117 254 -136 q 229 -83 229 -97 q 242 -46 229 -62 q 282 -29 256 -29 z "},"ț":{"ha":400,"x_min":25,"x_max":361,"o":"m 344 601 l 193 601 l 193 171 q 215 80 193 121 q 288 39 236 39 q 320 44 303 39 q 344 51 338 49 l 361 -1 q 323 -11 347 -4 q 269 -18 299 -18 q 165 28 204 -18 q 125 161 125 74 l 125 601 l 25 601 l 25 653 l 125 653 l 125 835 l 193 865 l 193 653 l 315 653 l 344 601 m 251 -29 q 291 -49 276 -29 q 306 -89 306 -68 q 275 -205 306 -153 q 186 -285 244 -257 l 164 -250 q 224 -202 200 -231 q 249 -136 247 -174 q 211 -117 224 -136 q 199 -83 199 -97 q 212 -46 199 -62 q 251 -29 225 -29 z "},"­":{"ha":167,"x_min":0,"x_max":0,"o":""},"µ":{"ha":700,"x_min":111,"x_max":589,"o":"m 589 674 l 589 0 l 549 0 l 522 76 q 423 10 479 38 q 313 -17 367 -17 q 235 -6 269 -17 q 179 22 201 4 l 179 -289 l 111 -304 l 111 674 l 179 674 l 179 204 q 214 88 179 136 q 319 40 249 40 q 415 63 358 40 q 521 132 472 86 l 521 674 l 589 674 z "},"ˉ":{"ha":363,"x_min":14,"x_max":349,"o":"m 14 957 l 349 957 l 349 903 l 14 903 l 14 957 z "},"ℓ":{"ha":497,"x_min":28,"x_max":442,"o":"m 285 975 q 399 928 356 975 q 442 797 442 881 q 368 578 442 689 q 203 381 294 468 l 203 169 q 231 80 203 119 q 313 40 260 40 q 351 48 335 40 q 375 60 367 56 l 392 8 q 354 -9 379 -1 q 311 -17 329 -17 q 184 35 233 -17 q 135 176 135 86 l 135 321 q 88 287 111 303 q 44 257 65 271 l 28 322 q 81 361 54 340 q 135 404 108 382 l 135 786 q 176 926 135 876 q 285 975 217 975 m 203 786 l 203 468 q 323 626 274 542 q 372 794 372 711 q 347 887 372 856 q 286 918 321 918 q 226 886 250 918 q 203 786 203 854 z "},"Ω":{"ha":1058,"x_min":111,"x_max":947,"o":"m 875 469 q 778 778 875 651 q 532 906 681 906 q 285 778 383 906 q 188 469 188 651 q 238 232 188 357 q 369 61 289 107 l 376 0 l 119 0 l 114 54 l 279 54 q 157 232 203 113 q 111 468 111 351 q 223 821 111 675 q 532 967 335 967 q 839 821 731 967 q 947 468 947 675 q 901 232 947 351 q 778 54 856 113 l 944 54 l 939 0 l 686 0 l 693 61 q 824 232 774 107 q 875 469 875 357 z "},"∆":{"ha":850,"x_min":42,"x_max":808,"o":"m 449 944 l 808 15 l 739 0 l 42 0 l 385 944 l 449 944 m 418 853 l 129 54 l 718 54 l 418 853 z "},"∕":{"ha":521,"x_min":14,"x_max":507,"o":"m 507 981 l 78 -6 l 14 0 l 442 986 l 507 981 z "},"∙":{"ha":254,"x_min":42,"x_max":213,"o":"m 128 368 q 67 393 92 368 q 42 453 42 418 q 67 514 42 489 q 128 539 92 539 q 188 514 163 539 q 213 453 213 489 q 188 393 213 418 q 128 368 163 368 z "},"₺":{"ha":682,"x_min":0,"x_max":654,"o":"m 0 675 l 175 736 l 175 967 l 243 981 l 243 761 l 468 840 l 478 788 l 243 704 l 243 611 l 468 690 l 478 638 l 243 554 l 243 54 q 478 180 365 54 q 590 460 590 306 l 654 460 q 525 136 654 272 q 243 0 396 0 l 175 0 l 175 529 l 8 471 l 0 525 l 175 586 l 175 679 l 8 621 l 0 675 z "},"₽":{"ha":781,"x_min":51,"x_max":706,"o":"m 615 229 l 207 229 l 207 0 l 139 0 l 139 229 l 58 229 l 51 283 l 139 283 l 139 367 l 58 367 l 58 421 l 139 421 l 139 944 l 365 944 q 609 879 513 944 q 706 660 706 814 q 601 437 706 507 q 350 367 497 367 l 207 367 l 207 283 l 608 283 l 615 229 m 382 889 l 207 889 l 207 421 l 367 421 q 557 481 478 421 q 636 658 636 540 q 566 835 636 781 q 382 889 496 889 z "},"¢":{"ha":624,"x_min":67,"x_max":557,"o":"m 394 840 l 394 690 q 478 671 433 686 q 557 633 522 656 l 529 588 q 461 619 494 604 q 364 635 428 635 q 195 547 253 635 q 138 342 138 460 q 190 128 138 218 q 357 39 243 39 q 456 53 426 39 q 522 86 486 68 l 550 39 q 475 4 517 18 q 394 -15 433 -10 l 394 -154 l 333 -154 l 333 -17 q 131 91 196 -8 q 67 340 67 190 q 134 580 67 482 q 333 689 201 678 l 333 840 l 394 840 z "},"£":{"ha":606,"x_min":83,"x_max":578,"o":"m 253 779 l 253 515 l 447 515 l 478 464 l 253 464 l 253 199 q 244 116 253 151 q 206 54 236 81 l 569 54 l 578 0 l 97 0 l 94 54 q 165 88 144 56 q 185 169 185 119 l 185 464 l 86 464 l 83 515 l 185 515 l 185 757 q 220 897 185 844 q 331 950 256 950 q 383 944 358 950 q 422 932 408 938 l 406 881 q 380 889 397 885 q 349 893 363 893 q 274 861 296 893 q 253 779 253 829 z "},"¤":{"ha":918,"x_min":42,"x_max":876,"o":"m 82 746 l 229 603 q 334 668 274 644 q 465 692 394 692 q 592 668 535 692 q 690 604 649 644 l 836 746 l 876 701 l 731 557 q 780 452 763 510 q 797 332 797 394 q 779 217 797 272 q 726 117 761 161 l 876 -31 l 836 -75 l 685 71 q 582 6 642 29 q 451 -18 522 -18 q 327 4 383 -18 q 228 67 271 26 l 82 -75 l 42 -31 l 188 114 q 138 217 156 160 q 121 342 121 275 q 138 458 121 403 q 189 557 156 513 l 42 701 l 82 746 m 726 332 q 658 544 726 453 q 465 635 590 635 q 268 547 344 635 q 192 342 192 460 q 265 125 192 211 q 451 39 339 39 q 649 125 572 39 q 726 332 726 211 z "},"¥":{"ha":772,"x_min":14,"x_max":758,"o":"m 349 0 l 349 125 l 111 125 l 104 179 l 349 179 l 349 360 l 111 360 l 104 414 l 322 414 l 14 929 l 90 944 l 382 444 l 679 944 l 758 944 l 439 414 l 661 414 l 668 360 l 417 360 l 417 179 l 661 179 l 668 125 l 417 125 l 417 0 l 349 0 z "},"€":{"ha":782,"x_min":0,"x_max":713,"o":"m 564 314 l 201 314 q 293 119 225 197 q 485 40 361 40 q 601 53 560 40 q 679 82 642 65 l 713 32 q 613 -4 674 11 q 492 -19 551 -19 q 233 77 318 -19 q 124 314 147 174 l 7 314 l 0 368 l 115 368 q 113 417 114 392 q 111 467 111 442 q 113 517 111 492 q 117 565 114 542 l 7 565 l 0 619 l 124 619 q 243 867 151 769 q 500 964 335 964 q 608 951 543 964 q 713 913 674 939 l 685 863 q 607 892 642 881 q 497 904 572 904 q 303 828 379 903 q 201 619 228 753 l 557 619 l 564 565 l 192 565 q 189 518 190 543 q 188 468 188 493 q 189 417 188 442 q 193 368 190 392 l 557 368 l 564 314 z "},"$":{"ha":742,"x_min":92,"x_max":667,"o":"m 268 -154 l 268 -11 q 165 12 215 -3 q 99 40 115 26 l 119 94 q 218 58 156 76 q 350 40 281 40 q 533 95 469 40 q 596 222 596 150 q 344 458 596 375 q 92 743 92 542 q 138 873 92 817 q 268 953 185 929 l 268 1111 l 324 1107 l 324 964 q 350 966 336 965 q 378 967 364 967 q 397 966 388 967 q 417 965 407 965 l 417 1111 l 474 1111 l 474 957 q 549 938 514 950 q 611 913 585 926 l 581 863 q 499 894 544 879 q 381 910 453 910 q 222 859 281 910 q 164 736 164 808 q 415 492 164 578 q 667 218 667 407 q 617 78 667 138 q 474 -4 568 18 l 474 -154 l 417 -149 l 417 -14 q 385 -17 401 -15 q 351 -18 368 -18 q 338 -18 346 -18 q 324 -17 331 -18 l 324 -154 l 268 -154 z "},",":{"ha":211,"x_min":28,"x_max":169,"o":"m 115 106 q 155 86 140 106 q 169 46 169 67 q 139 -70 169 -18 q 50 -150 108 -122 l 28 -115 q 88 -67 64 -96 q 113 -1 111 -39 q 75 18 88 -1 q 63 51 63 38 q 76 89 63 72 q 115 106 89 106 z "},".":{"ha":190,"x_min":42,"x_max":149,"o":"m 94 0 q 56 15 71 0 q 42 53 42 31 q 56 90 42 75 q 94 106 71 106 q 133 90 117 106 q 149 53 149 75 q 133 15 149 31 q 94 0 117 0 z "},"!":{"ha":192,"x_min":42,"x_max":150,"o":"m 150 975 l 138 228 l 75 257 l 75 975 l 150 975 m 94 0 q 56 15 71 0 q 42 53 42 31 q 56 90 42 75 q 94 106 71 106 q 133 90 117 106 q 149 53 149 75 q 133 15 149 31 q 94 0 117 0 z "},"¡":{"ha":192,"x_min":42,"x_max":150,"o":"m 97 975 q 135 960 121 975 q 150 922 150 944 q 135 885 150 900 q 97 869 121 869 q 59 885 75 869 q 43 922 43 900 q 59 960 43 944 q 97 975 75 975 m 42 0 l 54 747 l 117 718 l 117 0 l 42 0 z "},":":{"ha":190,"x_min":42,"x_max":149,"o":"m 94 507 q 56 522 71 507 q 42 560 42 538 q 56 597 42 582 q 94 613 71 613 q 133 597 117 613 q 149 560 149 582 q 133 522 149 538 q 94 507 117 507 m 94 64 q 56 79 71 64 q 42 117 42 94 q 56 154 42 139 q 94 169 71 169 q 133 154 117 169 q 149 117 149 139 q 133 79 149 94 q 94 64 117 64 z "},";":{"ha":211,"x_min":28,"x_max":169,"o":"m 115 507 q 77 522 92 507 q 63 560 63 538 q 77 597 63 582 q 115 613 92 613 q 153 597 138 613 q 169 560 169 582 q 153 522 169 538 q 115 507 138 507 m 115 169 q 155 150 140 169 q 169 110 169 131 q 139 -6 169 46 q 50 -86 108 -58 l 28 -51 q 88 -3 64 -32 q 113 63 111 25 q 75 82 88 63 q 63 115 63 101 q 76 153 63 136 q 115 169 89 169 z "},"?":{"ha":544,"x_min":14,"x_max":503,"o":"m 258 975 q 442 911 382 975 q 503 747 503 847 q 440 590 503 668 q 263 461 378 513 l 249 190 l 203 219 l 193 504 q 365 603 301 539 q 429 746 429 667 q 382 874 429 829 q 256 918 335 918 q 130 895 181 918 q 25 833 79 872 l 14 890 q 113 949 50 922 q 258 975 176 975 m 214 0 q 176 15 190 0 q 161 53 161 31 q 176 90 161 75 q 214 106 190 106 q 252 90 236 106 q 268 53 268 75 q 252 15 268 31 q 214 0 236 0 z "},"¿":{"ha":544,"x_min":42,"x_max":531,"o":"m 331 864 q 369 849 354 864 q 383 811 383 833 q 369 774 383 789 q 331 758 354 758 q 292 774 308 758 q 276 811 276 789 q 292 849 276 833 q 331 864 308 864 m 286 -111 q 102 -47 163 -111 q 42 117 42 17 q 104 274 42 196 q 282 403 167 351 l 296 674 l 342 644 l 351 360 q 179 261 243 325 q 115 118 115 197 q 163 -10 115 35 q 289 -54 210 -54 q 415 -31 364 -54 q 519 31 465 -8 l 531 -26 q 431 -85 494 -58 q 286 -111 368 -111 z "},"*":{"ha":435,"x_min":14,"x_max":421,"o":"m 239 908 l 403 951 l 421 907 l 260 867 l 369 701 l 326 679 l 217 836 l 114 679 l 64 701 l 174 867 l 14 907 l 31 951 l 190 908 l 190 1075 l 239 1075 l 239 908 z "},"\"":{"ha":382,"x_min":28,"x_max":340,"o":"m 286 975 q 326 956 311 975 q 340 915 340 936 q 310 799 340 851 q 221 719 279 747 l 199 754 q 258 802 235 774 q 283 868 282 831 q 246 888 258 868 q 233 921 233 907 q 247 958 233 942 q 286 975 260 975 m 115 975 q 155 956 140 975 q 169 915 169 936 q 139 799 169 851 q 50 719 108 747 l 28 754 q 88 802 64 774 q 113 868 111 831 q 75 888 88 868 q 63 921 63 907 q 76 958 63 942 q 115 975 89 975 z "},"'":{"ha":211,"x_min":28,"x_max":169,"o":"m 115 975 q 155 956 140 975 q 169 915 169 936 q 139 799 169 851 q 50 719 108 747 l 28 754 q 88 802 64 774 q 113 868 111 831 q 75 888 88 868 q 63 921 63 907 q 76 958 63 942 q 115 975 89 975 z "},"‘":{"ha":211,"x_min":42,"x_max":183,"o":"m 96 719 q 56 739 71 719 q 42 779 42 758 q 72 895 42 843 q 161 975 103 947 l 183 940 q 124 892 147 921 q 99 826 100 864 q 136 807 124 826 q 149 774 149 788 q 135 736 149 753 q 96 719 122 719 z "},"’":{"ha":211,"x_min":28,"x_max":169,"o":"m 115 975 q 155 956 140 975 q 169 915 169 936 q 139 799 169 851 q 50 719 108 747 l 28 754 q 88 802 64 774 q 113 868 111 831 q 75 888 88 868 q 63 921 63 907 q 76 958 63 942 q 115 975 89 975 z "},"‚":{"ha":211,"x_min":28,"x_max":169,"o":"m 115 106 q 155 86 140 106 q 169 46 169 67 q 139 -70 169 -18 q 50 -150 108 -122 l 28 -115 q 88 -67 64 -96 q 113 -1 111 -39 q 75 18 88 -1 q 63 51 63 38 q 76 89 63 72 q 115 106 89 106 z "},"“":{"ha":382,"x_min":42,"x_max":354,"o":"m 96 719 q 56 739 71 719 q 42 779 42 758 q 72 895 42 843 q 161 975 103 947 l 183 940 q 124 892 147 921 q 99 826 100 864 q 136 807 124 826 q 149 774 149 788 q 135 736 149 753 q 96 719 122 719 m 267 719 q 227 739 242 719 q 213 779 213 758 q 243 895 213 843 q 332 975 274 947 l 354 940 q 294 892 318 921 q 269 826 271 864 q 307 807 294 826 q 319 774 319 788 q 306 736 319 753 q 267 719 293 719 z "},"”":{"ha":382,"x_min":28,"x_max":340,"o":"m 286 975 q 326 956 311 975 q 340 915 340 936 q 310 799 340 851 q 221 719 279 747 l 199 754 q 258 802 235 774 q 283 868 282 831 q 246 888 258 868 q 233 921 233 907 q 247 958 233 942 q 286 975 260 975 m 115 975 q 155 956 140 975 q 169 915 169 936 q 139 799 169 851 q 50 719 108 747 l 28 754 q 88 802 64 774 q 113 868 111 831 q 75 888 88 868 q 63 921 63 907 q 76 958 63 942 q 115 975 89 975 z "},"„":{"ha":382,"x_min":28,"x_max":340,"o":"m 286 106 q 326 86 311 106 q 340 46 340 67 q 310 -70 340 -18 q 221 -150 279 -122 l 199 -115 q 258 -67 235 -96 q 283 -1 282 -39 q 246 18 258 -1 q 233 51 233 38 q 247 89 233 72 q 286 106 260 106 m 115 106 q 155 86 140 106 q 169 46 169 67 q 139 -70 169 -18 q 50 -150 108 -122 l 28 -115 q 88 -67 64 -96 q 113 -1 111 -39 q 75 18 88 -1 q 63 51 63 38 q 76 89 63 72 q 115 106 89 106 z "},"·":{"ha":190,"x_min":42,"x_max":149,"o":"m 94 311 q 56 326 71 311 q 42 364 42 342 q 56 401 42 386 q 94 417 71 417 q 133 401 117 417 q 149 364 149 386 q 133 326 149 342 q 94 311 117 311 z "},"(":{"ha":332,"x_min":69,"x_max":290,"o":"m 235 -51 q 108 197 147 61 q 69 444 69 333 q 108 690 69 554 q 235 938 147 826 l 290 913 q 185 697 229 847 q 140 446 140 546 q 185 191 140 344 q 290 -26 229 38 l 235 -51 z "},")":{"ha":332,"x_min":42,"x_max":263,"o":"m 97 938 q 222 690 182 826 q 263 444 263 554 q 222 197 263 333 q 97 -51 182 61 l 42 -26 q 147 190 101 38 q 192 443 192 343 q 147 695 192 543 q 42 913 101 847 l 97 938 z "},"[":{"ha":368,"x_min":139,"x_max":354,"o":"m 139 967 l 354 967 l 343 913 l 207 913 l 207 -68 l 343 -68 l 354 -122 l 139 -122 l 139 967 z "},"]":{"ha":368,"x_min":14,"x_max":229,"o":"m 14 967 l 229 967 l 229 -122 l 14 -122 l 25 -68 l 161 -68 l 161 913 l 25 913 l 14 967 z "},"{":{"ha":368,"x_min":42,"x_max":354,"o":"m 179 426 q 241 371 214 410 q 268 271 268 332 q 242 174 268 235 q 215 75 215 113 q 240 19 215 46 q 315 -8 264 -8 l 342 -8 l 354 -62 l 318 -62 q 188 -23 231 -62 q 146 83 146 17 q 171 183 146 126 q 196 283 196 240 q 163 367 196 335 q 88 400 129 400 l 42 400 l 42 453 l 88 453 q 163 485 129 453 q 196 569 196 518 q 171 669 196 613 q 146 769 146 726 q 188 876 146 836 q 318 915 231 915 l 354 915 l 342 861 l 315 861 q 240 834 264 861 q 215 778 215 807 q 242 679 215 740 q 268 582 268 618 q 241 482 268 521 q 179 426 214 443 z "},"}":{"ha":368,"x_min":14,"x_max":326,"o":"m 189 426 q 127 482 154 443 q 100 582 100 521 q 126 679 100 618 q 153 778 153 740 q 128 834 153 807 q 53 861 104 861 l 26 861 l 14 915 l 50 915 q 180 876 138 915 q 222 769 222 836 q 197 669 222 726 q 172 569 172 613 q 206 485 172 518 q 281 453 239 453 l 326 453 l 326 400 l 281 400 q 206 367 239 400 q 172 283 172 335 q 197 183 172 240 q 222 83 222 126 q 180 -23 222 17 q 50 -62 138 -62 l 14 -62 l 26 -8 l 53 -8 q 128 19 104 -8 q 153 75 153 46 q 126 174 153 113 q 100 271 100 235 q 127 371 100 332 q 189 426 154 410 z "},"/":{"ha":521,"x_min":14,"x_max":507,"o":"m 507 981 l 78 -6 l 14 0 l 442 986 l 507 981 z "},"\\":{"ha":521,"x_min":14,"x_max":507,"o":"m 442 -6 l 14 981 l 79 986 l 507 0 l 442 -6 z "},"|":{"ha":346,"x_min":139,"x_max":207,"o":"m 207 981 l 207 -6 l 139 0 l 139 986 l 207 981 z "},"¦":{"ha":346,"x_min":139,"x_max":207,"o":"m 207 981 l 207 564 l 139 569 l 139 986 l 207 981 m 207 400 l 207 -6 l 139 0 l 139 406 l 207 400 z "},"«":{"ha":504,"x_min":42,"x_max":476,"o":"m 253 363 l 447 564 l 476 521 l 306 340 l 476 160 l 447 117 l 253 318 l 253 363 m 42 363 l 236 564 l 265 521 l 96 340 l 265 160 l 236 117 l 42 318 l 42 363 z "},"»":{"ha":504,"x_min":28,"x_max":463,"o":"m 251 318 l 57 117 l 28 160 l 199 340 l 28 521 l 57 564 l 251 363 l 251 318 m 463 318 l 268 117 l 239 160 l 408 340 l 239 521 l 268 564 l 463 363 l 463 318 z "},"π":{"ha":779,"x_min":28,"x_max":751,"o":"m 165 0 l 165 619 l 28 619 l 28 674 l 751 674 l 751 619 l 613 619 l 613 0 l 544 0 l 544 619 l 233 619 l 233 0 l 165 0 z "},"†":{"ha":508,"x_min":42,"x_max":467,"o":"m 282 1083 l 282 860 l 440 860 l 467 808 l 282 808 l 282 -6 l 214 0 l 214 808 l 68 808 l 42 860 l 214 860 l 214 1088 l 282 1083 z "},"‡":{"ha":522,"x_min":42,"x_max":481,"o":"m 225 -8 l 225 267 l 68 267 l 42 318 l 225 318 l 225 750 l 68 750 l 42 801 l 225 801 l 225 1088 l 293 1083 l 293 801 l 454 801 l 481 750 l 293 750 l 293 318 l 454 318 l 481 267 l 293 267 l 293 1 l 225 -8 z "},"•":{"ha":254,"x_min":42,"x_max":213,"o":"m 128 368 q 67 393 92 368 q 42 453 42 418 q 67 514 42 489 q 128 539 92 539 q 188 514 163 539 q 213 453 213 489 q 188 393 213 418 q 128 368 163 368 z "},"…":{"ha":496,"x_min":42,"x_max":454,"o":"m 406 0 q 368 14 383 0 q 353 50 353 28 q 368 86 353 72 q 406 100 383 100 q 440 86 426 100 q 454 50 454 72 q 440 14 454 28 q 406 0 426 0 m 250 0 q 213 14 228 0 q 197 50 197 28 q 213 86 197 72 q 250 100 228 100 q 285 86 271 100 q 299 50 299 72 q 285 14 299 28 q 250 0 271 0 m 94 0 q 57 14 72 0 q 42 50 42 28 q 57 86 42 72 q 94 100 72 100 q 129 86 115 100 q 143 50 143 72 q 129 14 143 28 q 94 0 115 0 z "},"‹":{"ha":293,"x_min":42,"x_max":265,"o":"m 42 360 l 236 567 l 265 518 l 100 340 l 265 163 l 236 115 l 42 321 l 42 360 z "},"›":{"ha":293,"x_min":28,"x_max":251,"o":"m 251 322 l 57 115 l 28 164 l 193 342 l 28 519 l 57 567 l 251 361 l 251 322 z "},"-":{"ha":432,"x_min":42,"x_max":390,"o":"m 390 351 l 53 351 l 42 406 l 379 406 l 390 351 z "},"_":{"ha":596,"x_min":42,"x_max":554,"o":"m 554 0 l 53 0 l 42 54 l 543 54 l 554 0 z "},"–":{"ha":600,"x_min":42,"x_max":558,"o":"m 558 353 l 53 353 l 42 407 l 547 407 l 558 353 z "},"—":{"ha":728,"x_min":42,"x_max":686,"o":"m 686 353 l 53 353 l 42 407 l 675 407 l 686 353 z "},"#":{"ha":690,"x_min":42,"x_max":649,"o":"m 593 697 l 547 515 l 639 515 l 649 461 l 533 461 l 481 249 l 639 249 l 649 194 l 467 194 l 418 0 l 354 6 l 401 194 l 219 194 l 171 0 l 107 6 l 154 194 l 53 194 l 42 249 l 168 249 l 221 461 l 53 461 l 42 515 l 235 515 l 281 697 l 346 697 l 300 515 l 482 515 l 528 697 l 593 697 m 286 461 l 233 249 l 415 249 l 468 461 l 286 461 z "},"%":{"ha":1068,"x_min":28,"x_max":1040,"o":"m 768 981 l 339 -6 l 275 0 l 703 986 l 768 981 m 239 975 q 392 913 333 975 q 450 739 450 851 q 388 567 450 631 q 240 504 325 504 q 88 565 149 504 q 28 739 28 626 q 89 911 28 847 q 239 975 150 975 m 239 924 q 139 876 185 924 q 93 739 93 829 q 138 604 93 653 q 240 556 182 556 q 340 602 296 556 q 385 739 385 649 q 344 875 385 826 q 239 924 303 924 m 829 469 q 982 408 924 469 q 1040 233 1040 346 q 978 62 1040 125 q 831 -1 915 -1 q 678 60 739 -1 q 618 233 618 121 q 679 406 618 342 q 829 469 740 469 m 829 417 q 729 370 775 417 q 683 233 683 324 q 728 99 683 147 q 831 50 772 50 q 931 97 886 50 q 975 233 975 143 q 934 369 975 321 q 829 417 893 417 z "},"+":{"ha":732,"x_min":42,"x_max":690,"o":"m 690 354 l 399 354 l 399 6 l 331 11 l 331 354 l 53 354 l 42 406 l 331 406 l 331 742 l 399 738 l 399 406 l 676 406 l 690 354 z "},"÷":{"ha":690,"x_min":42,"x_max":649,"o":"m 344 524 q 306 539 321 524 q 292 576 292 554 q 306 614 292 599 q 344 629 321 629 q 383 614 367 629 q 399 576 399 599 q 383 539 399 554 q 344 524 367 524 m 649 354 l 53 354 l 42 406 l 635 406 l 649 354 m 349 103 q 310 118 325 103 q 296 156 296 133 q 310 193 296 178 q 349 208 325 208 q 387 193 371 208 q 403 156 403 178 q 387 118 403 133 q 349 103 371 103 z "},"×":{"ha":653,"x_min":42,"x_max":611,"o":"m 42 57 l 276 343 l 44 631 l 107 644 l 318 379 l 540 644 l 611 644 l 357 333 l 588 43 l 519 43 l 311 296 l 104 43 l 42 57 z "},"±":{"ha":683,"x_min":42,"x_max":642,"o":"m 632 428 l 369 428 l 369 150 l 301 157 l 301 428 l 53 428 l 42 479 l 301 479 l 301 742 l 369 738 l 369 479 l 621 479 l 632 428 m 642 0 l 53 0 l 42 51 l 631 51 l 642 0 z "},"<":{"ha":447,"x_min":42,"x_max":419,"o":"m 388 26 l 42 321 l 42 360 l 388 653 l 419 606 l 106 340 l 419 75 l 388 26 z "},"=":{"ha":690,"x_min":42,"x_max":649,"o":"m 649 461 l 53 461 l 42 515 l 639 515 l 649 461 m 649 194 l 53 194 l 42 249 l 639 249 l 649 194 z "},">":{"ha":447,"x_min":28,"x_max":406,"o":"m 60 653 l 406 358 l 406 319 l 60 26 l 28 74 l 342 339 l 28 604 l 60 653 z "},"°":{"ha":351,"x_min":28,"x_max":324,"o":"m 175 975 q 281 933 239 975 q 324 832 324 892 q 281 731 324 769 q 175 692 239 692 q 69 731 111 692 q 28 832 28 769 q 69 933 28 892 q 175 975 111 975 m 181 735 q 248 767 226 735 q 269 833 269 799 q 244 899 269 868 q 175 931 218 931 q 108 899 132 931 q 83 833 83 868 q 110 767 83 799 q 181 735 136 735 z "},"¹":{"ha":413,"x_min":75,"x_max":346,"o":"m 346 467 l 75 467 l 75 513 l 185 513 l 185 989 l 110 938 l 78 972 l 211 1063 l 244 1063 l 244 513 l 336 513 l 346 467 z "},"²":{"ha":515,"x_min":42,"x_max":454,"o":"m 246 1071 q 389 1018 343 1071 q 435 907 435 965 q 402 795 435 849 q 294 674 369 742 l 113 513 l 446 513 l 454 467 l 42 467 l 42 518 l 258 715 q 349 822 326 778 q 372 899 372 867 q 343 980 372 938 q 243 1022 314 1022 q 145 999 190 1022 q 99 975 100 976 l 75 1018 q 126 1044 76 1018 q 246 1071 175 1071 z "},"³":{"ha":532,"x_min":28,"x_max":457,"o":"m 243 1071 q 396 1022 347 1071 q 444 904 444 972 q 413 805 444 847 q 333 747 381 763 q 425 688 393 733 q 457 578 457 643 q 397 442 457 497 q 226 386 336 386 q 116 403 168 386 q 28 442 64 421 l 61 486 q 135 452 97 464 q 232 440 172 440 q 344 476 294 440 q 394 576 394 513 q 354 683 394 644 q 206 721 314 721 l 171 721 l 161 767 l 213 767 q 340 805 299 767 q 381 903 381 843 q 343 985 381 950 q 242 1021 306 1021 q 140 1003 182 1021 q 71 968 97 985 l 40 1010 q 131 1053 82 1036 q 243 1071 179 1071 z "},"¼":{"ha":1000,"x_min":75,"x_max":958,"o":"m 346 467 l 75 467 l 75 513 l 185 513 l 185 989 l 110 938 l 78 972 l 211 1063 l 244 1063 l 244 513 l 336 513 l 346 467 m 674 692 l 271 -6 l 208 0 l 611 696 l 674 692 m 953 -90 l 840 -90 l 840 -226 l 779 -226 l 779 -90 l 456 -90 l 450 -43 l 801 446 l 840 446 l 840 -43 l 958 -43 l 953 -90 m 515 -43 l 779 -43 l 779 331 l 515 -43 z "},"½":{"ha":1086,"x_min":75,"x_max":1025,"o":"m 346 467 l 75 467 l 75 513 l 185 513 l 185 989 l 110 938 l 78 972 l 211 1063 l 244 1063 l 244 513 l 336 513 l 346 467 m 674 692 l 271 -6 l 208 0 l 611 696 l 674 692 m 817 451 q 960 399 914 451 q 1006 288 1006 346 q 973 176 1006 229 q 865 54 940 122 l 683 -107 l 1017 -107 l 1025 -153 l 613 -153 l 613 -101 l 829 96 q 920 203 897 158 q 943 279 943 247 q 914 360 943 318 q 814 403 885 403 q 716 380 761 403 q 669 356 671 357 l 646 399 q 697 425 647 399 q 817 451 746 451 z "},"¾":{"ha":1115,"x_min":28,"x_max":1074,"o":"m 789 692 l 386 -6 l 324 0 l 726 696 l 789 692 m 243 1071 q 396 1022 347 1071 q 444 904 444 972 q 413 805 444 847 q 333 747 381 763 q 425 688 393 733 q 457 578 457 643 q 397 442 457 497 q 226 386 336 386 q 116 403 168 386 q 28 442 64 421 l 61 486 q 135 452 97 464 q 232 440 172 440 q 344 476 294 440 q 394 576 394 513 q 354 683 394 644 q 206 721 314 721 l 171 721 l 161 767 l 213 767 q 340 805 299 767 q 381 903 381 843 q 343 985 381 950 q 242 1021 306 1021 q 140 1003 182 1021 q 71 968 97 985 l 40 1010 q 131 1053 82 1036 q 243 1071 179 1071 m 1068 -90 l 956 -90 l 956 -226 l 894 -226 l 894 -90 l 571 -90 l 565 -43 l 917 446 l 956 446 l 956 -43 l 1074 -43 l 1068 -90 m 631 -43 l 894 -43 l 894 331 l 631 -43 z "},"℮":{"ha":689,"x_min":67,"x_max":622,"o":"m 622 336 l 138 336 q 194 127 139 215 q 375 39 250 39 q 494 53 449 39 q 574 86 539 68 l 601 35 q 493 -5 560 8 q 386 -18 426 -18 q 144 83 221 -18 q 67 340 67 183 q 140 592 67 492 q 361 692 213 692 q 550 591 478 692 q 622 336 622 490 m 550 388 q 496 560 540 486 q 351 635 451 635 q 201 560 251 635 q 140 388 150 486 l 550 388 z "},"∂":{"ha":703,"x_min":56,"x_max":628,"o":"m 213 835 l 246 881 q 522 674 415 833 q 628 361 628 514 q 545 79 628 176 q 331 -18 463 -18 q 132 69 208 -18 q 56 264 56 156 q 127 453 56 369 q 332 538 199 538 q 461 506 396 538 q 557 419 526 475 q 433 685 529 572 q 213 835 338 797 m 556 344 q 467 437 525 393 q 332 481 408 481 q 181 415 235 481 q 126 257 126 350 q 181 108 126 178 q 333 39 235 39 q 499 126 444 39 q 556 344 554 214 z "},"∏":{"ha":803,"x_min":125,"x_max":678,"o":"m 125 944 l 678 944 l 678 0 l 610 0 l 610 890 l 193 890 l 193 0 l 125 0 l 125 944 z "},"∑":{"ha":649,"x_min":56,"x_max":593,"o":"m 564 882 l 143 882 l 410 500 l 410 458 l 143 69 l 586 69 l 593 0 l 56 0 l 56 69 l 340 479 l 56 882 l 56 944 l 556 944 l 564 882 z "},"−":{"ha":647,"x_min":42,"x_max":606,"o":"m 606 353 l 53 353 l 42 407 l 594 407 l 606 353 z "},"√":{"ha":725,"x_min":14,"x_max":711,"o":"m 711 981 l 303 -6 l 250 0 l 14 440 l 81 446 l 276 78 l 644 986 l 711 981 z "},"∞":{"ha":1158,"x_min":67,"x_max":1092,"o":"m 1092 358 q 1019 150 1092 236 q 821 64 946 64 q 673 117 746 64 q 563 240 600 171 q 468 119 529 174 q 335 64 407 64 q 138 141 210 64 q 67 342 67 218 q 140 550 67 464 q 338 636 214 636 q 486 583 413 636 q 597 460 560 529 q 690 581 629 526 q 824 636 751 636 q 1020 559 949 636 q 1092 358 1092 482 m 819 576 q 690 497 744 576 q 613 346 635 418 q 604 322 607 333 q 596 296 601 310 q 688 177 631 231 q 819 124 744 124 q 967 188 911 124 q 1024 360 1024 253 q 967 518 1024 460 q 819 576 911 576 m 340 124 q 469 203 415 124 q 546 354 524 282 q 554 378 551 367 q 563 404 557 390 q 472 523 528 469 q 340 576 415 576 q 191 512 247 576 q 135 340 135 447 q 192 182 135 240 q 340 124 249 124 z "},"∫":{"ha":407,"x_min":0,"x_max":407,"o":"m 238 917 l 238 -56 q 202 -196 238 -143 q 92 -249 167 -249 q 39 -242 64 -249 q 0 -231 14 -236 l 17 -179 q 42 -187 25 -183 q 74 -192 60 -192 q 148 -160 126 -192 q 169 -78 169 -128 l 169 894 q 205 1035 169 982 q 315 1088 240 1088 q 368 1081 343 1088 q 407 1069 393 1075 l 390 1018 q 365 1026 382 1022 q 333 1031 347 1031 q 259 999 281 1031 q 238 917 238 967 z "},"≈":{"ha":697,"x_min":42,"x_max":656,"o":"m 656 517 q 599 443 646 467 q 504 419 551 419 q 356 451 457 419 q 194 482 254 482 q 133 469 161 482 q 94 428 104 457 l 42 440 q 99 514 51 490 q 193 538 146 538 q 351 506 253 538 q 503 475 450 475 q 564 488 535 475 q 603 529 593 500 l 656 517 m 656 264 q 599 190 646 214 q 504 167 551 167 q 356 198 457 167 q 194 229 254 229 q 133 217 161 229 q 94 175 104 204 l 42 188 q 99 261 51 238 q 193 285 146 285 q 351 253 253 285 q 503 222 450 222 q 564 235 535 222 q 603 276 593 247 l 656 264 z "},"≠":{"ha":690,"x_min":42,"x_max":649,"o":"m 649 194 l 307 194 l 213 -19 l 151 -14 l 243 194 l 53 194 l 42 249 l 267 249 l 360 461 l 53 461 l 42 515 l 383 515 l 476 726 l 539 721 l 447 515 l 639 515 l 649 461 l 424 461 l 331 249 l 639 249 l 649 194 z "},"≤":{"ha":447,"x_min":42,"x_max":419,"o":"m 388 157 l 42 385 l 42 424 l 388 653 l 419 607 l 113 404 l 419 199 l 388 157 m 415 0 l 54 0 l 43 54 l 407 54 l 415 0 z "},"≥":{"ha":447,"x_min":28,"x_max":406,"o":"m 60 653 l 406 425 l 406 386 l 60 157 l 28 203 l 335 406 l 28 611 l 60 653 m 400 0 l 39 0 l 28 54 l 392 54 l 400 0 z "},"‰":{"ha":1568,"x_min":28,"x_max":1540,"o":"m 768 981 l 339 -6 l 275 0 l 703 986 l 768 981 m 239 975 q 392 913 333 975 q 450 739 450 851 q 388 567 450 631 q 240 504 325 504 q 88 565 149 504 q 28 739 28 626 q 89 911 28 847 q 239 975 150 975 m 239 924 q 139 876 185 924 q 93 739 93 829 q 138 604 93 653 q 240 556 182 556 q 340 602 296 556 q 385 739 385 649 q 344 875 385 826 q 239 924 303 924 m 1329 469 q 1482 408 1424 469 q 1540 233 1540 346 q 1478 62 1540 125 q 1331 -1 1415 -1 q 1178 60 1239 -1 q 1118 233 1118 121 q 1179 406 1118 342 q 1329 469 1240 469 m 829 469 q 982 408 924 469 q 1040 233 1040 346 q 978 62 1040 125 q 831 -1 915 -1 q 678 60 739 -1 q 618 233 618 121 q 679 406 618 342 q 829 469 740 469 m 1329 417 q 1229 370 1275 417 q 1183 233 1183 324 q 1228 99 1183 147 q 1331 50 1272 50 q 1431 97 1386 50 q 1475 233 1475 143 q 1434 369 1475 321 q 1329 417 1393 417 m 829 417 q 729 370 775 417 q 683 233 683 324 q 728 99 683 147 q 831 50 772 50 q 931 97 886 50 q 975 233 975 143 q 934 369 975 321 q 829 417 893 417 z "},"⁄":{"ha":521,"x_min":14,"x_max":507,"o":"m 507 981 l 78 -6 l 14 0 l 442 986 l 507 981 z "},"◊":{"ha":722,"x_min":42,"x_max":681,"o":"m 347 0 l 42 407 l 42 425 l 347 832 l 375 832 l 681 425 l 681 407 l 375 0 l 347 0 m 113 415 l 360 76 l 613 415 l 360 757 l 113 415 z "},"©":{"ha":1176,"x_min":97,"x_max":1079,"o":"m 1079 467 q 944 122 1079 261 q 588 -17 810 -17 q 227 122 357 -17 q 97 467 97 261 q 231 813 97 674 q 588 953 364 953 q 944 813 810 953 q 1079 467 1079 674 m 163 468 q 278 160 163 286 q 588 35 393 35 q 898 160 782 35 q 1014 468 1014 286 q 898 775 1014 650 q 588 900 782 900 q 278 775 393 900 q 163 468 163 650 m 606 167 q 404 244 489 167 q 319 474 319 322 q 404 703 319 625 q 606 781 489 781 q 699 765 646 781 q 782 722 751 749 l 754 679 q 688 712 726 697 q 603 726 649 726 q 449 659 510 726 q 388 474 388 592 q 449 288 388 356 q 603 221 510 221 q 688 235 649 221 q 754 268 726 250 l 782 225 q 699 183 751 199 q 606 167 646 167 z "},"®":{"ha":1021,"x_min":69,"x_max":951,"o":"m 951 676 q 828 371 951 494 q 511 247 706 247 q 193 371 317 247 q 69 676 69 494 q 191 984 69 860 q 511 1108 313 1108 q 828 984 706 1108 q 951 676 951 860 m 136 678 q 238 410 136 519 q 511 299 339 300 q 782 410 681 300 q 883 678 883 519 q 782 947 883 839 q 511 1056 681 1056 q 238 947 339 1056 q 136 678 136 839 m 482 899 l 426 899 l 426 686 l 475 686 q 577 708 533 686 q 621 793 621 729 q 581 880 621 861 q 482 899 542 899 m 650 422 l 525 643 q 505 642 515 643 q 485 642 494 642 l 426 642 l 426 422 l 371 422 l 371 944 l 492 944 q 627 910 574 944 q 681 794 681 876 q 649 705 681 742 q 579 651 618 668 l 715 422 l 650 422 z "},"™":{"ha":974,"x_min":14,"x_max":918,"o":"m 404 900 l 240 900 l 240 425 l 179 425 l 179 900 l 14 900 l 14 944 l 400 944 l 404 900 m 704 596 l 558 810 l 558 425 l 501 425 l 501 944 l 528 944 l 713 671 l 890 944 l 918 944 l 918 425 l 865 425 l 865 811 l 721 599 l 704 596 z "},"&":{"ha":935,"x_min":106,"x_max":879,"o":"m 171 281 q 254 104 171 169 q 438 39 338 39 q 567 74 508 39 q 665 163 625 108 l 372 431 q 328 472 350 450 q 289 515 307 493 q 200 412 229 472 q 171 281 171 351 m 879 38 l 844 0 l 710 122 q 592 20 663 58 q 433 -18 521 -18 q 201 60 296 -18 q 106 278 106 139 q 147 443 106 369 q 256 561 189 517 q 218 638 232 597 q 204 725 204 678 q 271 895 204 824 q 439 967 338 967 q 563 949 508 967 q 649 913 617 932 l 621 864 q 551 895 586 881 q 451 910 515 910 q 322 856 374 910 q 269 731 269 801 q 309 594 269 656 q 421 465 349 533 l 696 208 q 749 338 731 268 q 768 471 768 407 l 818 456 q 799 306 818 381 q 740 167 779 231 l 879 38 z "},"@":{"ha":1078,"x_min":67,"x_max":1011,"o":"m 1011 422 q 951 171 1011 257 q 786 85 890 85 q 721 99 749 85 q 675 138 693 114 q 613 105 649 118 q 544 92 576 92 q 387 148 447 92 q 326 293 326 204 q 414 485 326 410 q 622 561 501 561 l 721 561 l 743 533 l 710 254 q 708 244 708 249 q 708 235 708 239 q 731 165 708 188 q 789 142 753 142 q 899 208 853 142 q 944 413 944 275 q 849 669 944 571 q 586 768 754 768 q 265 639 392 768 q 138 297 138 510 q 246 24 138 124 q 510 -76 354 -76 q 631 -64 569 -76 q 736 -28 693 -51 l 754 -81 q 629 -122 696 -111 q 494 -133 563 -133 q 195 -19 324 -133 q 67 296 67 96 q 202 668 67 511 q 590 825 338 825 q 894 710 778 825 q 1011 422 1011 596 m 397 293 q 438 183 397 222 q 544 143 478 143 q 605 152 575 143 q 653 174 635 161 q 645 203 647 188 q 643 232 643 218 q 644 247 643 239 q 646 264 644 256 l 678 510 l 615 510 q 463 451 528 510 q 397 293 397 393 z "},"^":{"ha":593,"x_min":28,"x_max":565,"o":"m 94 199 l 28 199 l 267 542 l 326 542 l 565 199 l 499 199 l 297 483 l 94 199 z "},"~":{"ha":519,"x_min":42,"x_max":478,"o":"m 163 410 q 271 376 221 410 q 357 343 321 343 q 403 359 383 343 q 422 401 422 375 l 478 401 q 445 322 478 353 q 358 290 413 290 q 261 324 311 290 q 163 357 211 357 q 117 341 136 357 q 97 299 97 325 l 42 299 q 74 378 42 347 q 163 410 107 410 z "},"§":{"ha":833,"x_min":92,"x_max":758,"o":"m 235 722 q 182 664 200 699 q 164 589 164 629 q 340 388 164 463 q 613 203 515 314 q 668 265 649 229 q 688 339 688 300 q 509 534 688 463 q 235 722 331 606 m 119 -53 q 218 -89 156 -71 q 350 -107 281 -107 q 533 -52 469 -107 q 596 75 596 3 q 344 311 596 228 q 92 596 92 394 q 120 700 92 653 q 200 778 149 747 q 188 817 192 796 q 183 860 183 838 q 260 1019 183 956 q 469 1083 336 1083 q 600 1067 539 1083 q 703 1029 661 1050 l 672 979 q 590 1011 636 996 q 472 1026 544 1026 q 314 976 372 1026 q 256 853 256 925 q 507 609 256 694 q 758 335 758 524 q 731 226 758 275 q 650 146 704 176 q 663 109 658 128 q 667 71 667 90 q 586 -99 667 -33 q 351 -165 506 -165 q 207 -147 292 -165 q 99 -107 122 -128 l 119 -53 z "},"ª":{"ha":478,"x_min":58,"x_max":408,"o":"m 121 647 q 147 582 121 613 q 218 551 174 551 q 290 571 257 551 q 344 621 322 590 l 344 740 l 238 740 q 149 713 178 740 q 121 647 121 686 m 89 935 q 160 964 115 953 q 232 975 204 975 q 365 923 321 975 q 408 806 408 871 l 408 517 l 364 517 l 349 567 q 290 522 325 539 q 218 504 254 504 q 101 546 143 504 q 58 647 58 588 q 106 747 58 711 q 225 783 154 783 l 344 783 l 344 815 q 317 892 344 863 q 233 921 289 921 q 158 910 186 921 q 106 890 131 900 l 89 935 z "},"¬":{"ha":701,"x_min":14,"x_max":660,"o":"m 660 494 l 660 156 l 592 163 l 592 510 l 25 510 l 14 564 l 649 564 l 660 494 z "},"¶":{"ha":1128,"x_min":75,"x_max":1086,"o":"m 483 0 l 483 367 l 431 367 q 179 441 283 367 q 75 660 75 515 q 171 874 75 804 q 415 944 267 944 l 1086 944 l 1086 890 l 931 890 l 931 0 l 863 0 l 863 890 l 551 890 l 551 0 l 483 0 z "},"º":{"ha":478,"x_min":28,"x_max":450,"o":"m 238 975 q 385 913 321 975 q 450 739 450 851 q 387 567 450 631 q 239 504 324 504 q 92 565 156 504 q 28 739 28 626 q 92 911 28 847 q 238 975 156 975 m 238 926 q 137 878 183 926 q 90 739 90 829 q 135 603 90 653 q 239 554 181 554 q 341 601 294 554 q 388 739 388 649 q 344 876 388 826 q 238 926 301 926 z "},"ऀ":{"ha":0,"x_min":28,"x_max":583,"o":"m 76 1149 l 28 1174 q 144 1312 75 1265 q 304 1358 214 1358 q 466 1312 396 1358 q 583 1174 536 1265 l 535 1149 q 434 1265 496 1226 q 304 1304 372 1304 q 177 1265 238 1304 q 76 1149 117 1226 m 307 1169 q 344 1155 329 1169 q 358 1119 358 1140 q 344 1083 358 1097 q 307 1068 329 1068 q 269 1083 285 1068 q 254 1119 254 1097 q 269 1155 254 1140 q 307 1169 285 1169 z "},"ँ":{"ha":0,"x_min":28,"x_max":583,"o":"m 304 1257 q 267 1272 282 1257 q 253 1307 253 1286 q 267 1344 253 1329 q 304 1358 282 1358 q 342 1344 326 1358 q 357 1307 357 1329 q 342 1272 357 1286 q 304 1257 326 1257 m 535 1278 l 583 1253 q 467 1115 536 1161 q 307 1068 397 1068 q 145 1115 215 1068 q 28 1253 75 1161 l 76 1278 q 177 1161 115 1200 q 307 1122 239 1122 q 434 1161 374 1122 q 535 1278 494 1200 z "},"ं":{"ha":0,"x_min":43,"x_max":147,"o":"m 94 1040 q 58 1055 72 1040 q 43 1090 43 1069 q 58 1127 43 1113 q 94 1142 72 1142 q 132 1127 117 1142 q 147 1090 147 1113 q 132 1055 147 1069 q 94 1040 117 1040 z "},"ः":{"ha":182,"x_min":39,"x_max":143,"o":"m 90 582 q 53 597 68 582 q 39 632 39 611 q 53 669 39 654 q 90 683 68 683 q 128 669 113 683 q 143 632 143 654 q 128 597 143 611 q 90 582 113 582 m 90 144 q 53 159 68 144 q 39 194 39 174 q 53 231 39 217 q 90 246 68 246 q 128 231 113 246 q 143 194 143 217 q 128 159 143 174 q 90 144 113 144 z "},"ऄ":{"ha":1199,"x_min":97,"x_max":1214,"o":"m 956 0 l 956 460 l 561 460 q 644 360 613 421 q 676 249 676 300 q 596 53 676 128 q 358 -22 515 -22 q 210 2 279 -22 q 97 57 140 26 l 114 117 q 228 58 165 82 q 363 35 290 35 q 538 94 471 35 q 606 246 606 153 q 544 400 606 338 q 406 463 483 463 l 239 463 l 219 511 l 408 511 q 537 575 490 511 q 583 714 583 639 q 531 851 583 796 q 378 907 478 907 q 243 881 307 907 q 126 814 179 856 l 114 874 q 224 937 158 910 q 376 964 289 964 q 588 887 521 964 q 656 707 656 810 q 628 603 656 656 q 546 514 600 550 l 956 514 l 956 890 l 783 890 l 764 944 l 954 944 l 954 968 q 910 1061 954 1021 q 789 1101 867 1101 q 618 1155 689 1101 q 547 1286 547 1208 l 547 1307 l 614 1286 q 660 1196 614 1233 q 779 1158 706 1158 q 955 1101 889 1157 q 1021 968 1021 1044 l 1021 944 l 1192 944 l 1214 890 l 1022 890 l 1022 -22 l 956 0 z "},"अ":{"ha":1199,"x_min":97,"x_max":1214,"o":"m 956 0 l 956 460 l 561 460 q 644 360 613 421 q 676 249 676 300 q 596 53 676 128 q 358 -22 515 -22 q 210 2 279 -22 q 97 57 140 26 l 114 117 q 228 58 165 82 q 363 35 290 35 q 538 94 471 35 q 606 246 606 153 q 547 397 606 335 q 413 463 488 458 l 239 463 l 219 511 l 408 511 q 537 575 490 511 q 583 714 583 639 q 531 851 583 796 q 378 907 478 907 q 243 881 307 907 q 126 814 179 856 l 114 874 q 224 937 158 910 q 376 964 289 964 q 588 887 521 964 q 656 707 656 810 q 628 603 656 656 q 546 514 600 550 l 956 514 l 956 890 l 783 890 l 764 944 l 1192 944 l 1214 890 l 1022 890 l 1022 -22 l 956 0 z "},"आ":{"ha":1597,"x_min":97,"x_max":1613,"o":"m 956 0 l 956 460 l 561 460 q 644 360 613 421 q 676 249 676 300 q 596 53 676 128 q 358 -22 515 -22 q 210 2 279 -22 q 97 57 140 26 l 114 117 q 228 58 165 82 q 363 35 290 35 q 538 94 471 35 q 606 246 606 153 q 547 397 606 335 q 413 463 488 458 l 239 463 l 219 511 l 408 511 q 537 575 490 511 q 583 714 583 639 q 531 851 583 796 q 378 907 478 907 q 243 881 307 907 q 126 814 179 856 l 114 874 q 224 937 158 910 q 376 964 289 964 q 588 887 521 964 q 656 707 656 810 q 628 603 656 656 q 546 514 600 550 l 956 514 l 956 890 l 783 890 l 764 944 l 1590 944 l 1613 890 l 1421 890 l 1421 -22 l 1354 0 l 1354 890 l 1022 890 l 1022 -22 l 956 0 z "},"इ":{"ha":743,"x_min":-15,"x_max":758,"o":"m 235 56 q 311 38 272 44 q 389 29 350 31 q 559 78 499 29 q 619 204 619 126 q 572 324 619 271 q 429 378 525 378 l 279 378 q 140 424 199 378 q 82 547 82 471 q 140 674 82 631 q 288 717 199 717 l 528 717 l 528 890 l 4 890 l -15 944 l 736 944 l 758 890 l 594 890 l 594 663 l 269 663 q 183 626 215 663 q 151 547 151 590 q 185 467 151 501 q 272 432 218 432 l 417 432 q 610 374 532 432 q 688 213 688 317 q 615 47 688 121 q 389 -26 542 -26 q 328 -22 358 -26 q 267 -12 297 -18 l 408 -189 l 365 -217 l 188 11 q 110 60 149 28 q 71 132 71 93 q 79 159 71 144 q 107 174 88 174 q 171 152 138 174 q 235 56 204 131 z "},"ई":{"ha":743,"x_min":-15,"x_max":758,"o":"m 235 56 q 311 38 272 44 q 389 29 350 31 q 559 78 499 29 q 619 204 619 126 q 572 324 619 271 q 429 378 525 378 l 279 378 q 140 424 199 378 q 82 547 82 471 q 140 674 82 631 q 288 717 199 717 l 528 717 l 528 890 l 4 890 l -15 944 l 525 944 q 460 1036 488 975 q 432 1146 432 1097 q 475 1276 432 1219 q 610 1332 518 1332 q 690 1319 653 1332 q 756 1286 726 1306 l 732 1249 q 680 1270 708 1258 q 617 1282 651 1282 q 532 1252 569 1282 q 494 1151 494 1222 q 526 1033 494 1096 q 592 944 557 971 l 736 944 l 758 890 l 594 890 l 594 663 l 269 663 q 183 626 215 663 q 151 547 151 590 q 185 467 151 501 q 272 432 218 432 l 417 432 q 610 374 532 432 q 688 213 688 317 q 615 47 688 121 q 389 -26 542 -26 q 328 -22 358 -26 q 267 -12 297 -18 l 408 -189 l 365 -217 l 188 11 q 110 60 149 28 q 71 132 71 93 q 79 159 71 144 q 107 174 88 174 q 171 152 138 174 q 235 56 204 131 z "},"उ":{"ha":740,"x_min":-15,"x_max":756,"o":"m 756 890 l 549 890 q 601 807 583 856 q 618 707 618 758 q 583 584 618 646 q 474 490 549 522 q 594 390 549 465 q 639 249 639 315 q 558 53 639 128 q 321 -22 478 -22 q 172 2 242 -22 q 60 57 103 26 l 76 117 q 190 58 128 82 q 325 35 253 35 q 501 94 433 35 q 568 246 568 153 q 507 400 568 338 q 368 463 446 463 l 201 463 l 182 511 l 363 511 q 497 574 449 511 q 546 714 546 638 q 522 821 546 774 q 450 890 497 868 l 4 890 l -15 944 l 733 944 l 756 890 z "},"ऊ":{"ha":1131,"x_min":-15,"x_max":1146,"o":"m 1146 890 l 549 890 q 601 807 583 856 q 618 707 618 758 q 583 584 618 646 q 474 490 549 522 q 522 466 500 482 q 563 431 544 450 q 660 502 597 467 q 811 538 724 538 q 1030 453 949 538 q 1111 254 1111 368 q 1009 47 1111 122 q 824 -28 907 -28 l 799 22 q 963 88 886 22 q 1040 256 1040 154 q 976 413 1040 346 q 814 481 913 481 q 683 451 740 481 q 594 388 626 422 q 627 317 615 354 q 639 249 639 281 q 558 53 639 128 q 321 -22 478 -22 q 172 2 242 -22 q 60 57 103 26 l 76 117 q 190 58 128 82 q 325 35 253 35 q 501 94 433 35 q 568 246 568 153 q 507 400 568 338 q 368 463 446 463 l 201 463 l 182 511 l 371 511 q 499 575 453 511 q 546 714 546 639 q 522 821 546 774 q 450 890 497 868 l 4 890 l -15 944 l 1124 944 l 1146 890 z "},"ऋ":{"ha":1142,"x_min":-15,"x_max":1157,"o":"m 517 0 l 517 356 l 132 147 l 96 200 l 517 426 q 341 576 421 542 q 201 610 261 610 q 140 597 175 610 q 74 571 104 585 l 39 631 q 116 656 69 642 q 188 669 163 669 q 333 645 247 669 q 517 511 419 621 l 517 890 l 4 890 l -15 944 l 1135 944 l 1157 890 l 583 890 l 583 450 l 611 450 q 789 489 724 450 q 875 563 854 528 q 849 595 861 579 q 838 636 838 611 q 853 681 838 663 q 894 700 869 700 q 962 674 936 700 q 988 625 988 647 q 981 589 988 608 q 953 551 974 569 q 1038 434 994 515 q 1082 279 1082 353 q 1031 117 1082 182 q 874 53 979 53 q 806 57 833 53 q 743 74 778 61 l 764 122 q 817 110 794 113 q 874 107 839 107 q 979 153 944 107 q 1014 283 1014 200 q 978 417 1014 349 q 907 513 942 486 q 806 434 878 472 q 638 396 733 396 l 583 396 l 583 -22 l 517 0 z "},"ऌ":{"ha":1124,"x_min":-15,"x_max":1139,"o":"m 747 1 q 788 -101 747 -65 q 894 -137 828 -137 q 938 -134 917 -137 q 978 -125 958 -131 l 988 -176 q 935 -187 964 -183 q 879 -192 907 -192 q 741 -140 801 -192 q 681 1 681 -89 q 744 143 681 92 q 879 194 807 194 l 894 194 l 894 474 q 847 567 885 522 q 740 613 808 613 q 620 553 665 613 q 575 403 575 494 l 575 217 l 508 239 l 508 403 q 460 552 508 494 q 325 610 413 610 q 188 556 236 610 q 139 425 139 501 q 182 227 139 315 q 293 1 225 139 l 235 -25 q 121 206 172 97 q 69 435 69 314 q 134 597 69 528 q 325 667 199 667 q 450 638 394 667 q 539 557 506 608 q 624 638 571 610 q 742 667 676 667 q 839 642 797 667 q 894 597 881 617 l 894 890 l 4 890 l -15 944 l 1117 944 l 1139 890 l 961 890 l 961 140 l 894 140 q 791 104 835 140 q 747 1 747 68 z "},"ऍ":{"ha":882,"x_min":-15,"x_max":897,"o":"m 676 1278 l 725 1253 q 608 1115 678 1161 q 449 1068 539 1068 q 287 1115 357 1068 q 169 1253 217 1161 l 218 1278 q 319 1161 257 1200 q 449 1122 381 1122 q 576 1161 515 1122 q 676 1278 636 1200 m 647 347 l 647 890 l 238 890 l 238 165 q 255 67 238 110 q 319 -4 272 25 l 656 -212 l 625 -258 l 275 -50 q 192 41 214 -14 q 171 188 171 96 l 171 890 l 4 890 l -15 944 l 875 944 l 897 890 l 714 890 l 714 340 q 681 194 714 247 q 539 106 647 140 l 501 151 q 613 218 579 179 q 647 347 647 257 z "},"ऎ":{"ha":882,"x_min":-15,"x_max":897,"o":"m 647 347 l 647 890 l 238 890 l 238 165 q 255 67 238 110 q 319 -4 272 25 l 656 -212 l 625 -258 l 275 -50 q 192 41 214 -14 q 171 188 171 96 l 171 890 l 4 890 l -15 944 l 647 944 l 647 968 q 603 1061 647 1021 q 482 1101 560 1101 l 413 1101 q 245 1155 319 1101 q 171 1286 171 1208 l 171 1307 l 238 1286 q 283 1194 238 1233 q 403 1156 329 1156 l 472 1156 q 645 1099 576 1154 q 714 968 714 1044 l 714 944 l 875 944 l 897 890 l 714 890 l 714 340 q 681 194 714 247 q 539 106 647 140 l 501 151 q 613 218 579 179 q 647 347 647 257 z "},"ए":{"ha":882,"x_min":-15,"x_max":897,"o":"m 647 347 l 647 890 l 238 890 l 238 165 q 255 67 238 110 q 319 -4 272 25 l 656 -212 l 625 -258 l 275 -50 q 192 41 214 -14 q 171 188 171 96 l 171 890 l 4 890 l -15 944 l 875 944 l 897 890 l 714 890 l 714 340 q 681 194 714 247 q 539 106 647 140 l 501 151 q 613 218 579 179 q 647 347 647 257 z "},"ऐ":{"ha":882,"x_min":-15,"x_max":897,"o":"m 647 347 l 647 890 l 238 890 l 238 165 q 255 67 238 110 q 319 -4 272 25 l 656 -212 l 625 -258 l 275 -50 q 192 41 214 -14 q 171 188 171 96 l 171 890 l 4 890 l -15 944 l 636 944 l 297 1256 l 342 1299 l 708 944 l 875 944 l 897 890 l 714 890 l 714 340 q 681 194 714 247 q 539 106 647 140 l 501 151 q 613 218 579 179 q 647 347 647 257 z "},"ऑ":{"ha":1597,"x_min":97,"x_max":1613,"o":"m 1422 1278 l 1471 1253 q 1354 1115 1424 1161 q 1194 1068 1285 1068 q 1033 1115 1103 1068 q 915 1253 963 1161 l 964 1278 q 1065 1161 1003 1200 q 1194 1122 1126 1122 q 1322 1161 1261 1122 q 1422 1278 1382 1200 m 956 0 l 956 460 l 561 460 q 644 360 613 421 q 676 249 676 300 q 596 53 676 128 q 358 -22 515 -22 q 210 2 279 -22 q 97 57 140 26 l 114 117 q 228 58 165 82 q 363 35 290 35 q 538 94 471 35 q 606 246 606 153 q 544 400 606 338 q 406 463 483 463 l 239 463 l 219 511 l 408 511 q 537 575 490 511 q 583 714 583 639 q 531 851 583 796 q 378 907 478 907 q 243 881 307 907 q 126 814 179 856 l 114 874 q 224 937 158 910 q 376 964 289 964 q 588 887 521 964 q 656 707 656 810 q 628 603 656 656 q 546 514 600 550 l 956 514 l 956 890 l 783 890 l 764 944 l 1590 944 l 1613 890 l 1421 890 l 1421 -22 l 1354 0 l 1354 890 l 1022 890 l 1022 -22 l 956 0 z "},"ऒ":{"ha":1597,"x_min":97,"x_max":1613,"o":"m 956 0 l 956 460 l 561 460 q 644 360 613 421 q 676 249 676 300 q 596 53 676 128 q 358 -22 515 -22 q 210 2 279 -22 q 97 57 140 26 l 114 117 q 228 58 165 82 q 363 35 290 35 q 538 94 471 35 q 606 246 606 153 q 547 397 606 335 q 413 463 488 458 l 239 463 l 219 511 l 408 511 q 537 575 490 511 q 583 714 583 639 q 531 851 583 796 q 378 907 478 907 q 243 881 307 907 q 126 814 179 856 l 114 874 q 224 937 158 910 q 376 964 289 964 q 588 887 521 964 q 656 707 656 810 q 628 603 656 656 q 546 514 600 550 l 956 514 l 956 890 l 783 890 l 764 944 l 1356 944 l 1356 968 q 1312 1061 1356 1021 q 1190 1101 1268 1101 q 1019 1155 1090 1101 q 949 1286 949 1208 l 949 1307 l 1015 1286 q 1061 1196 1015 1233 q 1181 1158 1107 1158 q 1356 1101 1290 1157 q 1422 968 1422 1044 l 1422 944 l 1590 944 l 1613 890 l 1421 890 l 1421 -22 l 1354 0 l 1354 890 l 1022 890 l 1022 -22 l 956 0 z "},"ओ":{"ha":1597,"x_min":97,"x_max":1613,"o":"m 956 0 l 956 460 l 561 460 q 644 360 613 421 q 676 249 676 300 q 596 53 676 128 q 358 -22 515 -22 q 210 2 279 -22 q 97 57 140 26 l 114 117 q 228 58 165 82 q 363 35 290 35 q 538 94 471 35 q 606 246 606 153 q 547 397 606 335 q 413 463 488 458 l 239 463 l 219 511 l 408 511 q 537 575 490 511 q 583 714 583 639 q 531 851 583 796 q 378 907 478 907 q 243 881 307 907 q 126 814 179 856 l 114 874 q 224 937 158 910 q 376 964 289 964 q 588 887 521 964 q 656 707 656 810 q 628 603 656 656 q 546 514 600 550 l 956 514 l 956 890 l 783 890 l 764 944 l 1340 944 l 1001 1256 l 1046 1299 l 1413 944 l 1590 944 l 1613 890 l 1421 890 l 1421 -22 l 1354 0 l 1354 890 l 1022 890 l 1022 -22 l 956 0 z "},"औ":{"ha":1597,"x_min":97,"x_max":1613,"o":"m 956 0 l 956 460 l 561 460 q 644 360 613 421 q 676 249 676 300 q 596 53 676 128 q 358 -22 515 -22 q 210 2 279 -22 q 97 57 140 26 l 114 117 q 228 58 165 82 q 363 35 290 35 q 538 94 471 35 q 606 246 606 153 q 544 400 606 338 q 406 463 483 463 l 239 463 l 219 511 l 400 511 q 535 574 486 511 q 583 714 583 638 q 531 851 583 796 q 378 907 478 907 q 243 881 307 907 q 126 814 179 856 l 114 874 q 224 937 158 910 q 376 964 289 964 q 588 887 521 964 q 656 707 656 810 q 628 603 656 656 q 546 514 600 550 l 956 514 l 956 890 l 783 890 l 764 944 l 1353 944 l 1294 1007 q 1171 1103 1224 1086 q 1058 1119 1118 1119 l 940 1119 l 922 1174 l 1054 1174 q 1197 1153 1132 1174 q 1338 1036 1261 1132 l 1235 1379 l 1297 1413 l 1414 944 l 1590 944 l 1613 890 l 1421 890 l 1421 -22 l 1354 0 l 1354 890 l 1022 890 l 1022 -22 l 956 0 z "},"क":{"ha":1185,"x_min":-15,"x_max":1200,"o":"m 561 332 l 561 524 q 489 611 539 569 q 353 653 439 653 q 190 588 257 653 q 122 428 122 524 q 190 267 122 332 q 353 203 257 203 q 489 244 439 203 q 561 332 539 286 m 561 619 l 561 890 l 4 890 l -15 944 l 1178 944 l 1200 890 l 628 890 l 628 619 q 710 681 658 653 q 832 710 763 710 q 1049 638 958 710 q 1139 428 1139 565 q 1052 222 1139 297 q 853 146 965 146 l 836 197 q 1006 267 946 197 q 1067 428 1067 338 q 999 588 1067 524 q 836 653 932 653 q 700 611 750 653 q 628 524 650 569 l 628 -22 l 561 0 l 561 231 q 478 172 531 197 q 357 146 426 146 q 140 218 231 146 q 50 428 50 290 q 140 638 50 565 q 357 710 231 710 q 478 681 426 710 q 561 619 531 653 z "},"ख":{"ha":1261,"x_min":-15,"x_max":1276,"o":"m 825 214 q 630 290 706 214 q 554 468 554 365 q 630 647 554 571 q 825 722 706 722 q 937 697 889 722 q 1018 633 985 671 l 1018 890 l 403 890 q 453 788 438 847 q 469 678 469 728 q 406 485 469 575 q 218 375 342 396 q 338 144 228 258 q 613 31 447 31 q 878 118 774 31 q 1018 292 983 206 l 1018 303 q 936 240 983 267 q 825 214 889 214 m 1018 468 l 1018 475 q 965 608 1015 550 q 824 665 914 665 q 679 604 732 664 q 626 468 626 544 q 679 331 626 390 q 824 271 732 271 q 967 331 915 271 q 1018 468 1018 390 m 1018 0 l 1018 175 q 871 42 975 107 q 613 -24 767 -24 q 284 105 408 -24 q 151 375 160 233 l 118 375 q 90 385 103 375 q 76 410 76 394 q 104 490 76 453 q 172 526 132 526 q 203 513 190 526 q 224 476 217 499 l 233 444 q 351 531 303 464 q 400 678 400 597 q 379 799 400 739 q 321 890 358 858 l 4 890 l -15 944 l 1254 944 l 1276 890 l 1085 890 l 1085 -22 l 1018 0 z "},"ग":{"ha":815,"x_min":-15,"x_max":831,"o":"m 249 890 l 249 313 q 238 267 249 283 q 208 250 228 250 q 124 288 161 250 q 88 367 88 325 q 101 396 88 385 q 133 407 115 407 l 182 407 l 182 890 l 4 890 l -15 944 l 808 944 l 831 890 l 639 890 l 639 -22 l 572 0 l 572 890 l 249 890 z "},"घ":{"ha":971,"x_min":-15,"x_max":986,"o":"m 728 0 l 728 310 q 604 176 692 231 q 393 121 517 121 q 177 185 260 121 q 94 356 94 249 q 128 477 94 419 q 231 563 163 535 q 142 632 175 581 q 108 747 108 683 q 123 824 108 788 q 164 890 138 861 l 4 890 l -15 944 l 964 944 l 986 890 l 794 890 l 794 -22 l 728 0 m 272 890 q 204 830 229 869 q 179 746 179 790 q 226 633 179 678 q 371 588 272 588 l 421 588 l 443 533 l 378 533 q 209 478 254 533 q 164 354 164 422 q 240 224 164 264 q 397 183 317 183 q 631 276 535 183 q 728 575 728 368 l 728 890 l 272 890 z "},"ङ":{"ha":772,"x_min":-15,"x_max":788,"o":"m 726 497 q 690 512 704 497 q 675 547 675 526 q 690 584 675 569 q 726 599 704 599 q 764 584 749 599 q 779 547 779 569 q 764 512 779 526 q 726 497 749 497 m 110 115 q 235 56 160 81 q 383 29 310 31 q 553 78 493 29 q 614 204 614 126 q 567 324 614 271 q 424 378 519 378 l 285 378 q 146 424 204 378 q 88 547 88 471 q 146 674 88 631 q 293 717 204 717 l 522 717 l 522 890 l 4 890 l -15 944 l 765 944 l 788 890 l 589 890 l 589 663 l 275 663 q 189 626 221 663 q 157 547 157 590 q 190 467 157 501 q 278 432 224 432 l 411 432 q 604 374 526 432 q 682 213 682 317 q 613 42 682 111 q 383 -26 544 -26 q 216 -1 299 -26 q 93 53 133 24 l 110 115 z "},"च":{"ha":928,"x_min":-15,"x_max":943,"o":"m 569 589 l 436 589 q 277 533 339 589 q 215 392 215 476 q 275 239 215 299 q 443 179 335 179 q 597 220 535 179 q 685 318 658 261 l 685 890 l 4 890 l -15 944 l 921 944 l 943 890 l 751 890 l 751 -22 l 685 0 l 685 221 q 591 153 653 186 q 443 119 529 119 q 235 188 325 119 q 146 392 146 256 q 178 512 146 456 q 254 589 211 568 l 31 589 l 7 643 l 543 643 l 569 589 z "},"छ":{"ha":989,"x_min":-15,"x_max":1004,"o":"m 251 490 q 138 584 176 522 q 100 707 100 646 q 117 807 100 758 q 168 890 133 856 l 4 890 l -15 944 l 982 944 l 1004 890 l 807 890 l 807 775 q 931 693 890 761 q 972 565 972 625 q 826 195 972 413 q 397 -22 681 -22 q 160 53 240 -22 q 79 249 79 128 q 128 390 79 315 q 251 490 178 465 m 481 463 l 350 463 q 211 400 272 463 q 150 246 150 338 q 217 94 150 153 q 393 35 285 35 q 657 123 536 35 q 843 332 778 211 q 662 406 756 340 q 568 579 568 471 q 619 717 568 663 q 750 776 669 771 l 750 890 l 268 890 q 197 821 221 868 q 172 714 172 774 q 221 574 172 638 q 356 511 269 511 l 461 511 l 481 463 m 769 722 q 668 678 703 722 q 633 579 633 635 q 716 440 633 490 q 867 381 799 390 q 895 471 885 425 q 906 560 906 517 q 877 667 906 613 q 769 722 849 722 z "},"ज":{"ha":1017,"x_min":-15,"x_max":1032,"o":"m 586 382 q 504 181 586 253 q 286 110 422 110 q 135 134 203 110 q 24 189 68 158 l 42 251 q 153 192 90 214 q 286 169 215 169 q 455 229 396 169 q 514 382 514 289 q 452 523 514 467 q 293 579 390 579 l 178 579 l 154 633 l 774 633 l 774 890 l 4 890 l -15 944 l 1010 944 l 1032 890 l 840 890 l 840 -22 l 774 0 l 774 579 l 476 579 q 557 503 528 560 q 586 382 586 446 z "},"झ":{"ha":1147,"x_min":-15,"x_max":1163,"o":"m 904 890 l 594 890 l 594 663 l 269 663 q 183 626 215 663 q 151 547 151 590 q 185 467 151 501 q 272 432 218 432 l 417 432 q 540 412 483 432 q 632 354 596 392 l 904 354 l 904 890 m 235 56 q 311 38 272 44 q 389 29 350 31 q 559 78 499 29 q 619 204 619 126 q 572 324 619 271 q 429 378 525 378 l 279 378 q 140 424 199 378 q 82 547 82 471 q 140 674 82 631 q 288 717 199 717 l 528 717 l 528 890 l 4 890 l -15 944 l 1140 944 l 1163 890 l 971 890 l 971 -22 l 904 0 l 904 306 l 667 306 q 682 262 676 285 q 688 213 688 239 q 615 47 688 121 q 389 -26 542 -26 q 328 -22 358 -26 q 267 -12 297 -18 l 408 -189 l 365 -217 l 188 11 q 110 60 149 28 q 71 132 71 93 q 79 159 71 144 q 107 174 88 174 q 171 152 138 174 q 235 56 204 131 z "},"ञ":{"ha":1035,"x_min":-15,"x_max":1050,"o":"m 597 388 q 499 193 586 257 q 301 129 413 129 q 151 153 218 129 q 39 208 83 178 l 57 271 q 168 211 106 233 q 301 189 231 189 q 469 253 410 189 q 529 419 529 318 q 477 585 529 521 q 301 650 425 650 q 229 644 267 650 q 161 628 192 638 l 142 683 q 217 701 176 694 q 301 708 258 708 q 504 649 417 708 q 599 442 592 590 l 792 442 l 792 890 l 4 890 l -15 944 l 1028 944 l 1050 890 l 858 890 l 858 -22 l 792 0 l 792 388 l 597 388 z "},"ट":{"ha":831,"x_min":-15,"x_max":846,"o":"m 151 315 q 247 97 151 164 q 496 29 343 29 q 641 50 572 29 q 774 117 710 71 l 785 57 q 656 -4 732 17 q 496 -25 579 -25 q 208 47 336 -25 q 79 315 79 119 q 205 574 79 488 q 513 660 331 660 l 619 660 l 619 890 l 4 890 l -15 944 l 824 944 l 846 890 l 686 890 l 686 606 l 513 606 q 248 527 344 606 q 151 315 151 449 z "},"ठ":{"ha":967,"x_min":-15,"x_max":982,"o":"m 494 -25 q 203 56 328 -25 q 79 315 79 138 q 188 558 79 468 q 461 657 296 649 l 461 890 l 4 890 l -15 944 l 960 944 l 982 890 l 528 890 l 528 657 q 797 568 683 650 q 910 318 910 486 q 791 66 910 157 q 494 -25 672 -25 m 494 32 q 742 108 644 32 q 839 318 839 185 q 742 533 839 464 q 494 601 646 601 q 247 525 344 601 q 150 315 150 449 q 247 101 150 169 q 494 32 343 32 z "},"ड":{"ha":738,"x_min":-15,"x_max":753,"o":"m 110 115 q 235 56 160 81 q 383 29 310 31 q 553 78 493 29 q 614 204 614 126 q 567 324 614 271 q 424 378 519 378 l 285 378 q 146 424 204 378 q 88 547 88 471 q 146 674 88 631 q 293 717 204 717 l 522 717 l 522 890 l 4 890 l -15 944 l 731 944 l 753 890 l 589 890 l 589 663 l 275 663 q 189 626 221 663 q 157 547 157 590 q 190 467 157 501 q 278 432 224 432 l 411 432 q 604 374 526 432 q 682 213 682 317 q 613 42 682 111 q 383 -26 544 -26 q 216 -1 299 -26 q 93 53 133 24 l 110 115 z "},"ढ":{"ha":869,"x_min":-15,"x_max":885,"o":"m 494 29 l 514 29 q 437 112 461 57 q 413 206 413 167 q 471 343 413 286 q 614 400 529 400 q 763 345 707 400 q 818 214 818 290 q 724 44 818 114 q 494 -25 629 -25 q 206 51 335 -25 q 78 322 78 126 q 203 584 78 494 q 511 674 329 674 l 618 674 l 618 890 l 4 890 l -15 944 l 863 944 l 885 890 l 685 890 l 685 619 l 511 619 q 247 538 343 619 q 150 322 150 456 q 246 100 150 171 q 494 29 342 29 m 621 340 q 517 299 551 340 q 482 201 482 257 q 512 103 482 143 q 589 42 542 64 q 706 110 665 63 q 747 211 747 158 q 718 298 747 256 q 621 340 689 340 z "},"ण":{"ha":1168,"x_min":-15,"x_max":1183,"o":"m 925 0 l 925 890 l 644 890 l 644 524 q 576 317 644 386 q 390 247 508 247 q 205 317 274 247 q 136 524 136 386 l 136 890 l 4 890 l -15 944 l 1161 944 l 1183 890 l 992 890 l 992 -22 l 925 0 m 201 510 q 253 358 201 415 q 393 300 304 301 q 528 360 478 303 q 579 510 579 417 l 579 890 l 201 890 l 201 510 z "},"त":{"ha":882,"x_min":-15,"x_max":897,"o":"m 639 0 l 639 568 l 374 568 q 207 520 258 568 q 156 400 156 472 q 217 218 156 319 q 344 24 279 117 q 352 13 349 18 q 358 3 356 8 l 300 -25 q 160 191 231 75 q 89 406 89 307 q 151 560 89 497 q 325 622 214 622 l 639 622 l 639 890 l 4 890 l -15 944 l 875 944 l 897 890 l 706 890 l 706 -22 l 639 0 z "},"थ":{"ha":874,"x_min":39,"x_max":889,"o":"m 631 479 l 631 890 l 458 890 l 439 944 l 867 944 l 889 890 l 697 890 l 697 -22 l 631 0 l 631 332 q 544 268 606 289 q 418 247 482 247 q 210 326 296 247 q 125 504 125 404 l 142 524 q 267 590 206 544 q 328 718 328 636 q 328 733 328 725 q 326 749 328 742 q 269 703 307 722 q 194 685 231 685 q 87 722 135 685 q 39 818 39 758 q 81 920 39 876 q 194 964 124 964 q 335 893 279 964 q 390 736 390 822 q 327 566 390 624 q 189 478 264 508 q 277 351 214 393 q 418 304 340 308 q 567 349 506 304 q 631 479 628 393 m 107 822 q 133 765 107 790 q 199 739 158 739 q 267 764 238 739 q 308 818 296 789 q 263 884 292 858 q 196 910 233 910 q 131 884 154 910 q 107 822 107 858 z "},"द":{"ha":783,"x_min":-15,"x_max":799,"o":"m 728 -29 l 674 -60 l 572 128 q 510 118 543 121 q 444 115 478 115 q 190 192 300 115 q 81 428 81 268 q 183 639 81 556 q 460 722 285 722 l 560 722 l 560 890 l 4 890 l -15 944 l 776 944 l 799 890 l 626 890 l 626 668 l 469 668 q 237 600 324 668 q 150 428 150 532 q 228 245 150 317 q 444 174 306 174 q 497 176 471 174 q 544 183 524 179 q 528 222 533 207 q 522 247 522 238 q 540 288 522 276 q 579 300 558 300 q 644 283 610 300 q 678 235 678 265 q 664 193 678 215 q 624 150 650 171 l 728 -29 z "},"ध":{"ha":976,"x_min":100,"x_max":992,"o":"m 733 0 l 733 310 q 610 176 697 231 q 399 121 522 121 q 183 185 265 121 q 100 356 100 249 q 134 477 100 419 q 236 563 168 535 q 147 632 181 581 q 114 747 114 683 q 179 899 114 835 q 357 964 244 964 q 474 938 422 964 q 542 890 526 913 l 500 854 q 441 891 479 876 q 356 906 403 906 q 231 857 278 906 q 185 746 185 808 q 231 633 185 678 q 376 588 278 588 l 426 588 l 449 533 l 383 533 q 215 478 260 533 q 169 354 169 422 q 246 224 169 264 q 403 183 322 183 q 635 272 536 183 q 733 554 733 360 l 733 890 l 604 890 l 585 944 l 969 944 l 992 890 l 800 890 l 800 -22 l 733 0 z "},"न":{"ha":814,"x_min":-15,"x_max":829,"o":"m 571 0 l 571 461 l 224 461 l 224 421 q 213 375 224 392 q 183 358 203 358 q 99 396 136 358 q 63 475 63 433 q 76 504 63 493 q 108 515 90 515 l 571 515 l 571 890 l 4 890 l -15 944 l 807 944 l 829 890 l 638 890 l 638 -22 l 571 0 z "},"ऩ":{"ha":814,"x_min":-15,"x_max":829,"o":"m 571 0 l 571 461 l 224 461 l 224 421 q 213 375 224 392 q 183 358 203 358 q 99 396 136 358 q 63 475 63 433 q 76 504 63 493 q 108 515 90 515 l 571 515 l 571 890 l 4 890 l -15 944 l 807 944 l 829 890 l 638 890 l 638 -22 l 571 0 m 181 -31 q 144 -16 158 -31 q 129 19 129 -1 q 144 56 129 42 q 181 71 158 71 q 218 56 203 71 q 233 19 233 42 q 218 -16 233 -1 q 181 -31 203 -31 z "},"प":{"ha":863,"x_min":-15,"x_max":878,"o":"m 619 0 l 619 329 q 539 271 594 294 q 419 247 483 247 q 201 324 278 247 q 125 538 125 400 l 125 890 l 4 890 l -15 944 l 856 944 l 878 890 l 686 890 l 686 -22 l 619 0 m 619 476 l 619 890 l 192 890 l 192 519 q 253 365 192 424 q 419 306 314 306 q 562 354 507 306 q 619 476 617 403 z "},"फ":{"ha":1243,"x_min":-15,"x_max":1258,"o":"m 192 519 q 253 365 192 424 q 419 306 314 306 q 565 357 510 306 q 619 485 619 408 l 619 890 l 192 890 l 192 519 m 619 0 l 619 329 q 539 271 594 294 q 419 247 483 247 q 201 324 278 247 q 125 538 125 400 l 125 890 l 4 890 l -15 944 l 1236 944 l 1258 890 l 686 890 l 686 619 q 769 681 717 653 q 890 710 821 710 q 1107 638 1017 710 q 1197 428 1197 565 q 1110 222 1197 297 q 911 146 1024 146 l 894 197 q 1065 267 1004 197 q 1125 428 1125 338 q 1058 588 1125 524 q 894 653 990 653 q 758 611 808 653 q 686 524 708 569 l 686 -22 l 619 0 z "},"ब":{"ha":804,"x_min":-15,"x_max":819,"o":"m 561 0 l 561 231 q 478 172 531 197 q 357 146 426 146 q 140 218 231 146 q 50 428 50 290 q 140 638 50 565 q 357 710 231 710 q 478 684 426 710 q 561 625 531 658 l 561 890 l 4 890 l -15 944 l 797 944 l 819 890 l 628 890 l 628 -22 l 561 0 m 561 332 l 561 524 q 489 611 539 569 q 353 653 439 653 q 280 642 314 653 q 218 611 246 631 l 524 276 q 545 304 536 290 q 561 332 554 318 m 122 428 q 190 267 122 332 q 353 203 257 203 q 426 213 393 203 q 485 242 460 224 l 178 575 q 137 508 151 546 q 122 428 122 471 z "},"भ":{"ha":967,"x_min":39,"x_max":982,"o":"m 724 0 l 724 363 l 360 363 l 360 322 q 349 276 360 293 q 319 260 339 260 q 235 297 272 260 q 199 376 199 335 q 213 406 199 394 q 244 417 226 417 l 294 417 l 294 703 q 251 677 278 686 q 194 668 225 668 q 81 709 124 668 q 39 813 39 750 q 83 920 39 876 q 194 964 126 964 q 319 909 278 964 q 361 772 361 854 l 361 417 l 724 417 l 724 890 l 551 890 l 532 944 l 960 944 l 982 890 l 790 890 l 790 -22 l 724 0 m 101 814 q 125 750 101 782 q 200 718 149 718 q 259 735 235 718 q 294 771 283 753 q 274 866 293 822 q 199 910 254 910 q 126 879 151 910 q 101 814 101 849 z "},"म":{"ha":863,"x_min":-15,"x_max":878,"o":"m 619 0 l 619 363 l 213 363 l 213 322 q 202 276 213 293 q 172 260 192 260 q 88 297 125 260 q 51 376 51 335 q 65 406 51 394 q 97 417 79 417 l 147 417 l 147 890 l 4 890 l -15 944 l 856 944 l 878 890 l 686 890 l 686 -22 l 619 0 m 619 890 l 214 890 l 214 417 l 619 417 l 619 890 z "},"य":{"ha":842,"x_min":-15,"x_max":857,"o":"m 599 0 l 599 332 q 512 268 574 289 q 386 247 450 247 q 178 326 264 247 q 93 504 93 404 l 110 524 q 188 588 153 536 q 224 717 224 640 q 199 824 224 775 q 128 890 175 872 l 4 890 l -15 944 l 835 944 l 857 890 l 665 890 l 665 -22 l 599 0 m 157 478 q 245 351 182 393 q 386 306 308 310 q 536 344 474 306 q 599 468 599 383 l 599 890 l 213 890 q 265 821 240 872 q 290 708 290 769 q 256 576 290 642 q 157 478 222 511 z "},"र":{"ha":588,"x_min":-15,"x_max":603,"o":"m 172 375 l 118 375 q 90 384 103 375 q 76 410 76 393 q 104 490 76 454 q 172 526 132 526 q 203 513 190 526 q 224 476 217 499 l 233 444 q 351 531 303 464 q 400 678 400 597 q 379 799 400 739 q 321 890 358 858 l 4 890 l -15 944 l 581 944 l 603 890 l 403 890 q 453 788 438 847 q 469 678 469 728 q 409 493 469 575 q 240 381 349 411 l 478 0 l 410 -25 l 172 375 z "},"ऱ":{"ha":588,"x_min":-15,"x_max":603,"o":"m 172 375 l 118 375 q 90 385 103 375 q 76 410 76 394 q 104 490 76 454 q 172 526 132 526 q 203 513 190 526 q 224 476 217 499 l 233 444 q 351 531 303 464 q 400 678 400 597 q 379 799 400 739 q 321 890 358 858 l 4 890 l -15 944 l 581 944 l 603 890 l 403 890 q 453 788 438 847 q 469 678 469 728 q 409 493 469 575 q 240 381 349 411 l 478 0 l 410 -25 l 172 375 m 140 -25 q 103 -10 118 -25 q 89 25 89 4 q 103 62 89 47 q 140 76 118 76 q 178 62 163 76 q 193 25 193 47 q 178 -10 193 4 q 140 -25 163 -25 z "},"ल":{"ha":1138,"x_min":-15,"x_max":1153,"o":"m 894 0 l 894 474 q 847 567 885 522 q 740 613 808 613 q 620 553 665 613 q 575 403 575 494 l 575 217 l 508 239 l 508 403 q 460 552 508 494 q 325 610 413 610 q 188 556 236 610 q 139 425 139 501 q 182 227 139 315 q 293 1 225 139 l 235 -25 q 121 206 172 97 q 69 435 69 314 q 134 597 69 528 q 325 667 199 667 q 450 638 394 667 q 539 557 506 608 q 624 638 571 610 q 742 667 676 667 q 839 642 797 667 q 894 597 881 617 l 894 890 l 4 890 l -15 944 l 1131 944 l 1153 890 l 961 890 l 961 -22 l 894 0 z "},"ळ":{"ha":1233,"x_min":-15,"x_max":1249,"o":"m 1178 390 q 1098 165 1178 258 q 885 72 1018 72 q 725 130 803 72 q 607 263 647 188 q 508 132 572 192 q 364 72 443 72 q 151 156 228 72 q 74 374 74 240 q 153 599 74 506 q 367 692 233 692 q 526 634 449 692 q 644 501 604 576 q 735 624 676 568 q 864 690 793 681 l 864 890 l 4 890 l -15 944 l 1226 944 l 1249 890 l 931 890 l 931 689 q 1113 594 1047 675 q 1178 390 1178 513 m 882 632 q 742 544 801 632 q 658 378 682 457 q 649 351 653 364 q 640 324 646 338 q 740 192 679 253 q 882 132 801 132 q 1046 204 982 132 q 1110 393 1110 276 q 1046 566 1110 500 q 882 632 982 632 m 369 132 q 510 219 450 132 q 593 386 569 307 q 602 413 599 400 q 611 440 606 426 q 511 572 572 511 q 369 632 450 632 q 206 560 269 632 q 142 371 142 488 q 206 198 142 264 q 369 132 269 132 z "},"ऴ":{"ha":1233,"x_min":-15,"x_max":1249,"o":"m 1178 390 q 1098 165 1178 258 q 885 72 1018 72 q 725 130 803 72 q 607 263 647 188 q 508 132 572 192 q 364 72 443 72 q 151 156 228 72 q 74 374 74 240 q 153 599 74 506 q 367 692 233 692 q 526 634 449 692 q 644 501 604 576 q 735 624 676 568 q 864 690 793 681 l 864 890 l 4 890 l -15 944 l 1226 944 l 1249 890 l 931 890 l 931 689 q 1113 594 1047 675 q 1178 390 1178 513 m 882 632 q 742 544 801 632 q 658 378 682 457 q 649 351 653 364 q 640 324 646 338 q 740 192 679 253 q 882 132 801 132 q 1046 204 982 132 q 1110 393 1110 276 q 1046 566 1110 500 q 882 632 982 632 m 369 132 q 510 219 450 132 q 593 386 569 307 q 602 413 599 400 q 611 440 606 426 q 511 572 572 511 q 369 632 450 632 q 206 560 269 632 q 142 371 142 488 q 206 198 142 264 q 369 132 269 132 m 606 -103 q 569 -88 583 -103 q 554 -53 554 -74 q 569 -16 554 -31 q 606 -1 583 -1 q 643 -16 628 -1 q 658 -53 658 -31 q 643 -88 658 -74 q 606 -103 628 -103 z "},"व":{"ha":804,"x_min":-15,"x_max":819,"o":"m 561 625 l 561 890 l 4 890 l -15 944 l 797 944 l 819 890 l 628 890 l 628 -22 l 561 0 l 561 231 q 478 172 531 197 q 357 146 426 146 q 140 218 231 146 q 50 428 50 290 q 140 638 50 565 q 357 710 231 710 q 478 684 426 710 q 561 625 531 658 m 122 428 q 190 267 122 332 q 353 203 257 203 q 489 244 439 203 q 561 332 539 286 l 561 524 q 489 611 539 569 q 353 653 439 653 q 190 588 257 653 q 122 428 122 524 z "},"श":{"ha":1022,"x_min":75,"x_max":1038,"o":"m 779 0 l 779 890 l 607 890 l 588 944 l 1015 944 l 1038 890 l 846 890 l 846 -22 l 779 0 m 142 814 q 171 756 142 782 q 249 729 200 729 q 332 763 292 729 q 396 836 372 796 q 336 888 371 867 q 258 908 301 908 q 176 883 211 908 q 142 814 142 858 m 263 964 q 450 878 375 964 q 525 669 525 793 q 463 489 525 567 q 293 381 401 411 l 531 0 l 465 -25 l 228 375 l 174 375 q 145 383 158 375 q 132 410 132 392 q 160 490 132 454 q 228 526 188 526 q 259 513 246 526 q 279 476 272 499 l 289 444 q 407 528 358 464 q 456 672 456 592 q 447 728 456 697 q 424 790 439 760 q 355 711 400 747 q 244 675 310 675 q 124 712 174 675 q 75 808 75 749 q 125 918 75 872 q 263 964 175 964 z "},"ष":{"ha":863,"x_min":-15,"x_max":878,"o":"m 619 0 l 619 329 q 539 271 594 294 q 419 247 483 247 q 201 324 278 247 q 125 538 125 400 l 125 890 l 4 890 l -15 944 l 856 944 l 878 890 l 686 890 l 686 -22 l 619 0 m 619 476 l 619 890 l 215 890 l 615 447 q 617 462 617 454 q 619 476 618 469 m 192 519 q 253 365 192 424 q 419 306 314 306 q 525 329 479 306 q 594 393 571 353 l 192 836 l 192 519 z "},"स":{"ha":1018,"x_min":-15,"x_max":1033,"o":"m 775 890 l 403 890 q 453 788 438 847 q 469 678 469 728 q 447 561 469 617 q 385 464 425 506 l 775 464 l 775 890 m 172 375 l 118 375 q 90 385 103 375 q 76 410 76 396 q 104 492 76 457 q 172 526 132 526 q 203 513 190 526 q 224 476 217 499 l 233 444 q 351 531 303 464 q 400 678 400 597 q 379 799 400 739 q 321 890 358 858 l 4 890 l -15 944 l 1011 944 l 1033 890 l 842 890 l 842 -22 l 775 0 l 775 415 l 322 415 q 283 395 304 404 q 240 381 263 386 l 478 0 l 410 -25 l 172 375 z "},"ह":{"ha":731,"x_min":-15,"x_max":746,"o":"m 607 328 q 547 440 607 397 q 390 482 486 482 q 232 425 290 482 q 174 285 174 368 q 285 99 174 160 q 510 32 396 39 l 489 -22 q 224 67 342 -14 q 106 285 106 147 q 126 390 106 342 q 189 474 147 439 q 135 527 158 492 q 113 601 113 563 q 162 711 114 676 q 299 746 210 746 l 529 746 l 529 890 l 4 890 l -15 944 l 724 944 l 746 890 l 596 890 l 596 692 l 276 692 q 206 665 232 692 q 179 603 179 639 q 198 542 179 565 q 243 507 217 519 q 311 528 274 521 q 393 536 349 536 q 595 474 524 536 q 667 331 667 413 q 648 247 667 290 q 597 178 629 203 l 557 219 q 596 271 585 244 q 607 328 607 297 z "},"ॸ":{"ha":779,"x_min":-15,"x_max":794,"o":"m 418 419 l 231 419 l 231 379 q 220 333 231 350 q 190 317 210 317 q 106 354 143 317 q 69 433 69 392 q 83 463 69 451 q 115 474 97 474 l 165 474 l 165 890 l 4 890 l -15 944 l 772 944 l 794 890 l 232 890 l 232 474 l 418 474 q 636 397 560 474 q 713 183 713 321 l 713 -25 l 646 0 l 646 206 q 585 360 646 301 q 418 419 524 419 z "},"ऺ":{"ha":0,"x_min":-128,"x_max":-61,"o":"m -61 1224 l -61 944 l -128 944 l -128 1246 l -61 1224 z "},"ऻ":{"ha":419,"x_min":-15,"x_max":435,"o":"m 243 1224 l 243 944 l 413 944 l 435 890 l 243 890 l 243 -22 l 176 0 l 176 890 l 4 890 l -15 944 l 176 944 l 176 1246 l 243 1224 z "},"़":{"ha":0,"x_min":44,"x_max":149,"o":"m 96 -174 q 59 -159 74 -174 q 44 -124 44 -144 q 59 -87 44 -101 q 96 -72 74 -72 q 133 -87 118 -72 q 149 -124 149 -101 q 133 -159 149 -144 q 96 -174 118 -174 z "},"ऽ":{"ha":710,"x_min":39,"x_max":643,"o":"m 636 221 q 557 45 636 117 q 329 -26 478 -26 q 162 -1 244 -26 q 39 53 79 24 l 56 115 q 181 55 106 81 q 329 29 256 29 q 501 84 438 29 q 565 221 565 139 q 491 401 565 300 q 342 590 417 501 l 92 885 l 92 944 l 626 944 l 643 890 l 157 890 l 368 651 q 544 437 451 557 q 636 221 636 317 z "},"ा":{"ha":419,"x_min":-15,"x_max":435,"o":"m 176 0 l 176 890 l 4 890 l -15 944 l 413 944 l 435 890 l 243 890 l 243 -22 l 176 0 z "},"ि":{"ha":419,"x_min":-15,"x_max":1019,"o":"m 985 994 q 717 1158 881 1065 q 408 1251 553 1251 q 246 1201 297 1251 q 194 1076 194 1151 q 210 994 194 1029 q 240 944 226 958 l 413 944 l 435 890 l 243 890 l 243 -22 l 176 0 l 176 890 l 4 890 l -15 944 l 171 944 q 139 1004 153 967 q 125 1081 125 1042 q 199 1245 125 1183 q 406 1307 272 1307 q 749 1202 563 1307 q 1019 1032 936 1097 l 985 994 z "},"ी":{"ha":419,"x_min":-297,"x_max":435,"o":"m -201 1015 l -249 983 q -283 1049 -268 1011 q -297 1128 -297 1086 q -245 1256 -297 1204 q -110 1307 -193 1307 q 121 1178 40 1307 q 233 944 201 1049 l 413 944 l 435 890 l 243 890 l 243 -22 l 176 0 l 176 890 l 4 890 l -15 944 l 168 944 q 82 1128 150 1004 q -104 1253 14 1253 q -199 1219 -161 1253 q -236 1126 -236 1186 q -228 1070 -236 1100 q -201 1015 -219 1040 z "},"ु":{"ha":0,"x_min":-532,"x_max":19,"o":"m -486 -160 q -351 -300 -422 -243 q -194 -357 -279 -357 q -83 -314 -119 -357 q -47 -218 -47 -271 q -87 -122 -47 -165 q -194 -79 -126 -79 l -261 -79 l -261 -25 l -186 -25 q -44 -76 -107 -25 q 19 -218 19 -128 q -44 -360 19 -308 q -196 -411 -108 -411 q -378 -352 -292 -411 q -532 -189 -465 -293 l -486 -160 z "},"ू":{"ha":0,"x_min":-406,"x_max":146,"o":"m 100 -276 q -35 -136 36 -193 q -192 -79 -107 -79 q -303 -122 -267 -79 q -339 -218 -339 -165 q -299 -314 -339 -271 q -192 -357 -260 -357 l -125 -357 l -125 -411 l -200 -411 q -342 -360 -279 -411 q -406 -218 -406 -308 q -342 -76 -406 -128 q -190 -25 -278 -25 q -8 -84 -94 -25 q 146 -247 79 -143 l 100 -276 z "},"ृ":{"ha":0,"x_min":-446,"x_max":-139,"o":"m -379 -218 q -339 -321 -379 -285 q -232 -357 -299 -357 q -189 -353 -210 -357 q -149 -344 -168 -350 l -139 -396 q -191 -407 -162 -403 q -247 -411 -219 -411 q -385 -360 -325 -411 q -446 -218 -446 -308 q -383 -76 -446 -128 q -247 -25 -319 -25 l -165 -25 l -165 -79 l -232 -79 q -335 -115 -292 -79 q -379 -218 -379 -151 z "},"ॄ":{"ha":0,"x_min":-365,"x_max":-171,"o":"m -310 -217 q -346 -188 -326 -211 q -365 -139 -365 -165 q -320 -50 -365 -75 q -226 -25 -275 -25 l -171 -25 l -171 -76 l -229 -76 q -285 -92 -262 -76 q -307 -135 -307 -108 q -285 -176 -307 -160 q -229 -192 -264 -192 l -175 -192 l -215 -240 q -285 -258 -262 -240 q -307 -297 -307 -275 q -289 -339 -307 -322 q -222 -356 -271 -356 l -171 -356 l -201 -407 l -226 -407 q -320 -383 -275 -407 q -365 -297 -365 -358 q -349 -249 -365 -271 q -310 -217 -332 -226 z "},"ॅ":{"ha":0,"x_min":24,"x_max":579,"o":"m 531 1278 l 579 1253 q 463 1115 532 1161 q 303 1068 393 1068 q 141 1115 211 1068 q 24 1253 71 1161 l 72 1278 q 173 1161 111 1200 q 303 1122 235 1122 q 430 1161 369 1122 q 531 1278 490 1200 z "},"ॆ":{"ha":0,"x_min":-637,"x_max":-164,"o":"m -571 1286 q -525 1196 -571 1233 q -406 1158 -479 1158 q -230 1101 -296 1157 q -164 968 -164 1044 l -164 919 l -231 919 l -231 968 q -274 1061 -231 1021 q -396 1101 -318 1101 q -567 1155 -496 1101 q -637 1286 -637 1208 l -637 1307 l -571 1286 z "},"े":{"ha":0,"x_min":-601,"x_max":-168,"o":"m -168 925 l -240 925 l -601 1256 l -557 1299 l -168 925 z "},"ै":{"ha":0,"x_min":-678,"x_max":-186,"o":"m -186 944 l -247 944 l -306 1007 q -429 1103 -376 1086 q -542 1119 -482 1119 l -660 1119 l -678 1174 l -546 1174 q -403 1153 -468 1174 q -262 1036 -339 1132 l -365 1379 l -303 1413 l -186 944 z "},"ॉ":{"ha":419,"x_min":-68,"x_max":488,"o":"m 439 1278 l 488 1253 q 371 1115 440 1161 q 211 1068 301 1068 q 49 1115 119 1068 q -68 1253 -21 1161 l -19 1278 q 81 1161 19 1200 q 211 1122 143 1122 q 338 1161 278 1122 q 439 1278 399 1200 m 176 0 l 176 890 l 4 890 l -15 944 l 413 944 l 435 890 l 243 890 l 243 -22 l 176 0 z "},"ॊ":{"ha":419,"x_min":-231,"x_max":435,"o":"m 176 0 l 176 890 l 4 890 l -15 944 l 176 944 l 176 968 q 133 1061 176 1021 q 11 1101 89 1101 q -160 1155 -89 1101 q -231 1286 -231 1208 l -231 1307 l -164 1286 q -118 1196 -164 1233 q 1 1158 -72 1158 q 177 1101 111 1157 q 243 968 243 1044 l 243 944 l 413 944 l 435 890 l 243 890 l 243 -22 l 176 0 z "},"ो":{"ha":419,"x_min":-174,"x_max":435,"o":"m 176 0 l 176 890 l 4 890 l -15 944 l 165 944 l -174 1256 l -129 1299 l 238 944 l 413 944 l 435 890 l 243 890 l 243 -22 l 176 0 z "},"ौ":{"ha":419,"x_min":-256,"x_max":435,"o":"m 176 0 l 176 890 l 4 890 l -15 944 l 175 944 l 117 1007 q -7 1103 46 1086 q -119 1119 -60 1119 l -237 1119 l -256 1174 l -124 1174 q 19 1153 -46 1174 q 160 1036 83 1132 l 57 1379 l 119 1413 l 236 944 l 413 944 l 435 890 l 243 890 l 243 -22 l 176 0 z "},"ॏ":{"ha":419,"x_min":-265,"x_max":435,"o":"m -49 1081 l 81 1081 q 133 1078 110 1081 q 174 1071 156 1075 q 151 1123 168 1099 q 103 1156 135 1147 q -19 1226 19 1178 q -58 1331 -58 1275 l -58 1351 l 8 1331 q 35 1253 8 1279 q 104 1213 61 1226 q 212 1140 181 1189 q 243 1013 243 1090 l 243 944 l 413 944 l 435 890 l 243 890 l 243 -22 l 176 0 l 176 890 l 4 890 l -15 944 l 178 944 q 162 1004 178 982 q 114 1026 146 1026 l -40 1026 q -207 1079 -149 1026 q -265 1203 -265 1132 l -265 1222 l -199 1203 q -154 1115 -199 1150 q -49 1081 -110 1081 z "},"्":{"ha":0,"x_min":-265,"x_max":47,"o":"m 18 -400 l -265 -146 l -225 -96 l 47 -362 l 18 -400 z "},"ॖ":{"ha":0,"x_min":24,"x_max":579,"o":"m 531 -65 l 579 -90 q 463 -228 532 -182 q 303 -275 393 -275 q 141 -228 211 -275 q 24 -90 71 -182 l 72 -65 q 173 -182 111 -143 q 303 -221 235 -221 q 430 -182 369 -221 q 531 -65 490 -143 z "},"ॗ":{"ha":0,"x_min":24,"x_max":707,"o":"m 642 -93 q 524 -211 593 -174 q 363 -249 454 -249 q 201 -211 271 -249 q 83 -93 132 -174 l 132 -68 q 234 -166 174 -137 q 363 -194 294 -194 q 491 -166 431 -194 q 593 -68 551 -137 l 642 -93 m 707 -218 q 558 -337 651 -297 q 365 -378 465 -378 q 172 -337 265 -378 q 24 -218 79 -297 l 72 -193 q 197 -285 111 -247 q 365 -324 282 -324 q 534 -285 449 -324 q 658 -193 619 -247 l 707 -218 z "},"ॎ":{"ha":419,"x_min":176,"x_max":435,"o":"m 176 0 l 176 944 l 413 944 l 435 890 l 243 890 l 243 -22 l 176 0 z "},"ॵ":{"ha":1597,"x_min":97,"x_max":1613,"o":"m 956 0 l 956 460 l 561 460 q 644 360 613 421 q 676 249 676 300 q 596 53 676 128 q 358 -22 515 -22 q 210 2 279 -22 q 97 57 140 26 l 114 117 q 228 58 165 82 q 363 35 290 35 q 538 94 471 35 q 606 246 606 153 q 547 397 606 335 q 413 463 488 458 l 239 463 l 219 511 l 408 511 q 537 575 490 511 q 583 714 583 639 q 531 851 583 796 q 378 907 478 907 q 243 881 307 907 q 126 814 179 856 l 114 874 q 224 937 158 910 q 376 964 289 964 q 588 887 521 964 q 656 707 656 810 q 628 603 656 656 q 546 514 600 550 l 956 514 l 956 890 l 783 890 l 764 944 l 1354 944 q 1338 1004 1354 982 q 1290 1026 1322 1026 l 1136 1026 q 969 1079 1028 1026 q 911 1203 911 1132 l 911 1222 l 978 1203 q 1022 1115 978 1150 q 1128 1081 1067 1081 l 1257 1081 q 1309 1078 1286 1081 q 1350 1071 1332 1075 q 1328 1123 1344 1099 q 1279 1156 1311 1147 q 1157 1226 1196 1178 q 1118 1331 1118 1275 l 1118 1351 l 1185 1331 q 1211 1253 1185 1279 q 1281 1213 1238 1226 q 1388 1140 1357 1189 q 1419 1013 1419 1090 l 1419 944 l 1590 944 l 1613 890 l 1421 890 l 1421 -22 l 1354 0 l 1354 890 l 1022 890 l 1022 -22 l 956 0 z "},"ॐ":{"ha":1168,"x_min":97,"x_max":1149,"o":"m 850 1096 q 813 1110 828 1096 q 799 1146 799 1125 q 813 1183 799 1168 q 850 1197 828 1197 q 888 1183 872 1197 q 903 1146 903 1168 q 888 1110 903 1125 q 850 1096 872 1096 m 1081 1117 l 1129 1092 q 1013 953 1082 1000 q 853 907 943 907 q 691 953 761 907 q 574 1092 621 1000 l 622 1117 q 723 1000 661 1039 q 853 961 785 961 q 980 1000 919 961 q 1081 1117 1040 1039 m 376 964 q 588 887 521 964 q 656 707 656 810 q 617 584 656 646 q 503 490 578 522 q 553 465 529 481 q 597 428 578 449 q 695 501 631 465 q 849 538 760 538 q 1067 453 986 538 q 1149 254 1149 368 q 1047 47 1149 122 q 861 -28 944 -28 l 836 22 q 1001 88 924 22 q 1078 256 1078 154 q 1014 413 1078 346 q 851 481 950 481 q 719 450 776 481 q 631 385 661 419 q 664 317 651 353 q 676 249 676 281 q 596 53 676 128 q 358 -22 515 -22 q 210 2 279 -22 q 97 57 140 26 l 114 117 q 228 58 165 82 q 363 35 290 35 q 538 94 471 35 q 606 246 606 153 q 544 400 606 338 q 406 463 483 463 l 239 463 l 219 511 l 408 511 q 537 575 490 511 q 583 714 583 639 q 524 851 583 796 q 378 907 465 907 q 243 881 307 907 q 126 814 179 856 l 114 874 q 224 937 158 910 q 376 964 289 964 z "},"॑":{"ha":0,"x_min":40,"x_max":100,"o":"m 89 1054 l 50 1054 l 40 1304 l 100 1304 l 89 1054 z "},"॒":{"ha":0,"x_min":24,"x_max":710,"o":"m 710 -175 l 43 -175 l 24 -121 l 688 -121 l 710 -175 z "},"॓":{"ha":0,"x_min":38,"x_max":200,"o":"m 200 1054 l 153 1054 l 38 1304 l 113 1304 l 200 1054 z "},"॔":{"ha":0,"x_min":38,"x_max":200,"o":"m 85 1054 l 38 1054 l 125 1304 l 200 1304 l 85 1054 z "},"ॕ":{"ha":0,"x_min":24,"x_max":606,"o":"m 535 1328 l 583 1303 q 467 1165 536 1211 q 307 1118 397 1118 q 145 1165 215 1118 q 28 1303 75 1211 l 76 1328 q 177 1211 115 1250 q 307 1172 239 1172 q 434 1211 374 1172 q 535 1328 494 1250 m 606 1008 l 43 1008 l 24 1063 l 583 1063 l 606 1008 z "},"ॶ":{"ha":1199,"x_min":97,"x_max":1214,"o":"m 956 0 l 956 460 l 561 460 q 644 360 613 421 q 676 249 676 300 q 596 53 676 128 q 358 -22 515 -22 q 210 2 279 -22 q 97 57 140 26 l 114 117 q 228 58 165 82 q 363 35 290 35 q 538 94 471 35 q 606 246 606 153 q 544 400 606 338 q 406 463 483 463 l 239 463 l 219 511 l 400 511 q 535 574 486 511 q 583 714 583 638 q 531 851 583 796 q 378 907 478 907 q 243 881 307 907 q 126 814 179 856 l 114 874 q 224 937 158 910 q 376 964 289 964 q 588 887 521 964 q 656 707 656 810 q 628 603 656 656 q 546 514 600 550 l 956 514 l 956 890 l 783 890 l 764 944 l 1192 944 l 1214 890 l 1022 890 l 1022 -22 l 956 0 m 943 -65 l 992 -90 q 875 -228 944 -182 q 715 -275 806 -275 q 553 -228 624 -275 q 436 -90 483 -182 l 485 -65 q 585 -182 524 -143 q 715 -221 647 -221 q 842 -182 782 -221 q 943 -65 903 -143 z "},"ॷ":{"ha":1199,"x_min":97,"x_max":1214,"o":"m 956 0 l 956 460 l 561 460 q 644 360 613 421 q 676 249 676 300 q 596 53 676 128 q 358 -22 515 -22 q 210 2 279 -22 q 97 57 140 26 l 114 117 q 228 58 165 82 q 363 35 290 35 q 538 94 471 35 q 606 246 606 153 q 544 400 606 338 q 406 463 483 463 l 239 463 l 219 511 l 400 511 q 535 574 486 511 q 583 714 583 638 q 531 851 583 796 q 378 907 478 907 q 243 881 307 907 q 126 814 179 856 l 114 874 q 224 937 158 910 q 376 964 289 964 q 588 887 521 964 q 656 707 656 810 q 628 603 656 656 q 546 514 600 550 l 956 514 l 956 890 l 783 890 l 764 944 l 1192 944 l 1214 890 l 1022 890 l 1022 -22 l 956 0 m 957 -93 q 839 -211 908 -174 q 678 -249 769 -249 q 517 -211 586 -249 q 399 -93 447 -174 l 447 -68 q 549 -166 489 -137 q 678 -194 610 -194 q 806 -166 746 -194 q 908 -68 867 -137 l 957 -93 m 1022 -218 q 874 -337 967 -297 q 681 -378 781 -378 q 488 -337 581 -378 q 339 -218 394 -297 l 388 -193 q 512 -285 426 -247 q 681 -324 597 -324 q 849 -285 764 -324 q 974 -193 935 -247 l 1022 -218 z "},"क़":{"ha":1185,"x_min":-15,"x_max":1200,"o":"m 561 332 l 561 524 q 489 611 539 569 q 353 653 439 653 q 190 588 257 653 q 122 428 122 524 q 190 267 122 332 q 353 203 257 203 q 489 244 439 203 q 561 332 539 286 m 561 619 l 561 890 l 4 890 l -15 944 l 1178 944 l 1200 890 l 628 890 l 628 619 q 710 681 658 653 q 832 710 763 710 q 1049 638 958 710 q 1139 428 1139 565 q 1052 222 1139 297 q 853 146 965 146 l 836 197 q 1006 267 946 197 q 1067 428 1067 338 q 999 588 1067 524 q 836 653 932 653 q 700 611 750 653 q 628 524 650 569 l 628 -22 l 561 0 l 561 231 q 478 172 531 197 q 357 146 426 146 q 140 218 231 146 q 50 428 50 290 q 140 638 50 565 q 357 710 231 710 q 478 681 426 710 q 561 619 531 653 m 200 -81 q 163 -66 178 -81 q 149 -31 149 -51 q 163 6 149 -8 q 200 21 178 21 q 238 6 222 21 q 253 -31 253 -8 q 238 -66 253 -51 q 200 -81 222 -81 z "},"ख़":{"ha":1261,"x_min":-15,"x_max":1276,"o":"m 825 214 q 630 290 706 214 q 554 468 554 365 q 630 647 554 571 q 825 722 706 722 q 937 697 889 722 q 1018 633 985 671 l 1018 890 l 403 890 q 453 788 438 847 q 469 678 469 728 q 406 485 469 575 q 218 375 342 396 q 338 144 228 258 q 613 31 447 31 q 878 118 774 31 q 1018 292 983 206 l 1018 303 q 936 240 983 267 q 825 214 889 214 m 1018 468 l 1018 475 q 965 608 1015 550 q 824 665 914 665 q 678 605 731 665 q 626 468 626 544 q 679 331 626 390 q 824 271 732 271 q 967 331 915 271 q 1018 468 1018 390 m 1018 0 l 1018 175 q 871 42 975 107 q 613 -24 767 -24 q 284 105 408 -24 q 151 375 160 233 l 118 375 q 90 385 103 375 q 76 410 76 396 q 104 490 76 453 q 172 526 132 526 q 203 513 190 526 q 224 476 217 499 l 233 444 q 351 531 303 464 q 400 678 400 597 q 379 799 400 739 q 321 890 358 858 l 4 890 l -15 944 l 1254 944 l 1276 890 l 1085 890 l 1085 -22 l 1018 0 m 122 -28 q 85 -13 100 -28 q 71 22 71 1 q 85 59 71 44 q 122 74 100 74 q 160 59 144 74 q 175 22 175 44 q 160 -13 175 1 q 122 -28 144 -28 z "},"ग़":{"ha":815,"x_min":-15,"x_max":831,"o":"m 249 890 l 249 313 q 238 267 249 283 q 208 250 228 250 q 124 288 161 250 q 88 367 88 325 q 101 396 88 385 q 133 407 115 407 l 182 407 l 182 890 l 4 890 l -15 944 l 808 944 l 831 890 l 639 890 l 639 -22 l 572 0 l 572 890 l 249 890 m 213 -31 q 176 -16 190 -31 q 161 19 161 -1 q 176 56 161 42 q 213 71 190 71 q 250 56 235 71 q 265 19 265 42 q 250 -16 265 -1 q 213 -31 235 -31 z "},"ज़":{"ha":1017,"x_min":-15,"x_max":1032,"o":"m 586 382 q 504 181 586 253 q 286 110 422 110 q 135 134 203 110 q 24 189 68 158 l 42 251 q 153 192 90 214 q 286 169 215 169 q 455 229 396 169 q 514 382 514 289 q 452 523 514 467 q 293 579 390 579 l 178 579 l 154 633 l 774 633 l 774 890 l 4 890 l -15 944 l 1010 944 l 1032 890 l 840 890 l 840 -22 l 774 0 l 774 579 l 476 579 q 557 503 528 560 q 586 382 586 446 m 292 -81 q 255 -66 269 -81 q 240 -31 240 -51 q 255 6 240 -8 q 292 21 269 21 q 329 6 314 21 q 344 -31 344 -8 q 329 -66 344 -51 q 292 -81 314 -81 z "},"ड़":{"ha":738,"x_min":-15,"x_max":753,"o":"m 110 115 q 235 56 160 81 q 383 29 310 31 q 553 78 493 29 q 614 204 614 126 q 567 324 614 271 q 424 378 519 378 l 285 378 q 146 424 204 378 q 88 547 88 471 q 146 674 88 631 q 293 717 204 717 l 522 717 l 522 890 l 4 890 l -15 944 l 731 944 l 753 890 l 589 890 l 589 663 l 275 663 q 189 626 221 663 q 157 547 157 590 q 190 467 157 501 q 278 432 224 432 l 411 432 q 604 374 526 432 q 682 213 682 317 q 613 42 682 111 q 383 -26 544 -26 q 216 -1 299 -26 q 93 53 133 24 l 110 115 m 381 -199 q 344 -184 358 -199 q 329 -149 329 -169 q 344 -112 329 -126 q 381 -97 358 -97 q 418 -112 403 -97 q 433 -149 433 -126 q 418 -184 433 -169 q 381 -199 403 -199 z "},"ढ़":{"ha":869,"x_min":-15,"x_max":885,"o":"m 494 29 l 514 29 q 437 112 461 57 q 413 206 413 167 q 471 343 413 286 q 614 400 529 400 q 763 345 707 400 q 818 214 818 290 q 724 44 818 114 q 494 -25 629 -25 q 206 51 335 -25 q 78 322 78 126 q 203 584 78 494 q 511 674 329 674 l 618 674 l 618 890 l 4 890 l -15 944 l 863 944 l 885 890 l 685 890 l 685 619 l 511 619 q 247 538 343 619 q 150 322 150 456 q 246 100 150 171 q 494 29 342 29 m 621 340 q 517 299 551 340 q 482 201 482 257 q 512 103 482 143 q 589 42 542 64 q 706 110 665 63 q 747 211 747 158 q 718 298 747 256 q 621 340 689 340 m 494 -199 q 458 -184 472 -199 q 443 -149 443 -169 q 458 -112 443 -126 q 494 -97 472 -97 q 532 -112 517 -97 q 547 -149 547 -126 q 532 -184 547 -169 q 494 -199 517 -199 z "},"फ़":{"ha":1243,"x_min":-15,"x_max":1258,"o":"m 192 519 q 253 365 192 424 q 419 306 314 306 q 565 357 510 306 q 619 485 619 408 l 619 890 l 192 890 l 192 519 m 619 0 l 619 329 q 539 271 594 294 q 419 247 483 247 q 201 324 278 247 q 125 538 125 400 l 125 890 l 4 890 l -15 944 l 1236 944 l 1258 890 l 686 890 l 686 619 q 769 681 717 653 q 890 710 821 710 q 1107 638 1017 710 q 1197 428 1197 565 q 1110 222 1197 297 q 911 146 1024 146 l 894 197 q 1065 267 1004 197 q 1125 428 1125 338 q 1058 588 1125 524 q 894 653 990 653 q 758 611 808 653 q 686 524 708 569 l 686 -22 l 619 0 m 238 -81 q 201 -66 215 -81 q 186 -31 186 -51 q 201 6 186 -8 q 238 21 215 21 q 275 6 260 21 q 290 -31 290 -8 q 275 -66 290 -51 q 238 -81 260 -81 z "},"य़":{"ha":842,"x_min":-15,"x_max":857,"o":"m 599 0 l 599 332 q 512 268 574 289 q 386 247 450 247 q 178 326 264 247 q 93 504 93 404 l 110 524 q 188 588 153 536 q 224 717 224 640 q 199 824 224 775 q 128 890 175 872 l 4 890 l -15 944 l 835 944 l 857 890 l 665 890 l 665 -22 l 599 0 m 157 478 q 245 351 182 393 q 386 306 308 310 q 536 344 474 306 q 599 468 599 383 l 599 890 l 213 890 q 265 821 240 872 q 290 708 290 769 q 256 576 290 642 q 157 478 222 511 m 194 -28 q 158 -13 172 -28 q 143 22 143 1 q 158 59 143 44 q 194 74 172 74 q 232 59 217 74 q 247 22 247 44 q 232 -13 247 1 q 194 -28 217 -28 z "},"ॠ":{"ha":1122,"x_min":-15,"x_max":1138,"o":"m 517 0 l 517 356 l 132 147 l 96 200 l 517 426 q 341 576 421 542 q 201 610 261 610 q 140 597 175 610 q 74 571 104 585 l 39 631 q 116 656 69 642 q 188 669 163 669 q 333 645 247 669 q 517 511 419 621 l 517 890 l 4 890 l -15 944 l 1115 944 l 1138 890 l 583 890 l 583 450 l 611 450 q 789 489 724 450 q 875 563 854 528 q 849 595 861 579 q 838 636 838 611 q 853 681 838 663 q 894 700 869 700 q 962 674 936 700 q 988 625 988 647 q 981 589 988 608 q 953 551 974 569 q 1029 460 994 515 q 1064 331 1064 404 q 972 187 1064 246 q 879 82 879 128 q 901 45 879 57 q 957 33 922 33 l 1011 33 l 971 -15 q 901 -33 924 -15 q 879 -72 879 -50 q 897 -114 879 -97 q 964 -131 915 -131 l 1015 -131 l 985 -182 l 960 -182 q 866 -158 911 -182 q 821 -72 821 -133 q 833 -24 821 -46 q 867 8 844 -1 q 835 37 850 14 q 821 86 821 60 q 908 214 821 161 q 996 335 996 267 q 967 443 996 400 q 907 513 938 486 q 806 434 878 472 q 638 396 733 396 l 583 396 l 583 -22 l 517 0 z "},"ॡ":{"ha":1124,"x_min":-15,"x_max":1139,"o":"m 822 -10 q 786 19 806 -4 q 767 68 767 42 q 807 153 767 128 q 894 182 847 179 l 894 474 q 847 567 885 522 q 740 613 808 613 q 620 553 665 613 q 575 403 575 494 l 575 217 l 508 239 l 508 403 q 460 552 508 494 q 325 610 413 610 q 188 556 236 610 q 139 425 139 501 q 182 227 139 315 q 293 1 225 139 l 235 -25 q 121 206 172 97 q 69 435 69 314 q 134 597 69 528 q 325 667 199 667 q 450 638 394 667 q 539 557 506 608 q 624 638 571 610 q 742 667 676 667 q 839 642 797 667 q 894 597 881 617 l 894 890 l 4 890 l -15 944 l 1117 944 l 1139 890 l 961 890 l 961 131 l 903 131 q 847 115 869 131 q 825 72 825 99 q 847 31 825 47 q 903 15 868 15 l 957 15 l 917 -33 q 847 -51 869 -33 q 825 -90 825 -68 q 843 -132 825 -115 q 910 -149 861 -149 l 961 -149 l 931 -200 l 906 -200 q 812 -176 857 -200 q 767 -90 767 -151 q 783 -42 767 -64 q 822 -10 800 -19 z "},"ॢ":{"ha":0,"x_min":24,"x_max":575,"o":"m 331 -192 l 331 -283 l 269 -265 l 269 -192 q 240 -109 269 -136 q 171 -82 210 -82 q 113 -107 136 -82 q 90 -164 90 -132 q 116 -275 90 -219 q 178 -406 142 -331 l 118 -424 q 51 -291 78 -354 q 24 -160 24 -228 q 65 -65 24 -104 q 171 -25 107 -25 q 249 -49 210 -25 q 299 -106 288 -72 q 347 -50 313 -75 q 425 -25 382 -25 q 533 -65 490 -25 q 575 -160 575 -104 q 540 -262 575 -217 q 506 -342 506 -307 q 519 -366 506 -361 q 551 -371 533 -371 l 564 -371 l 549 -424 l 531 -424 q 472 -406 503 -424 q 442 -353 442 -387 q 476 -256 442 -299 q 510 -164 510 -212 q 487 -106 510 -131 q 425 -82 464 -82 q 360 -112 389 -82 q 331 -192 331 -142 z "},"ॣ":{"ha":0,"x_min":24,"x_max":575,"o":"m 331 -192 l 331 -283 l 269 -265 l 269 -192 q 240 -109 269 -136 q 171 -82 210 -82 q 113 -107 136 -82 q 90 -164 90 -132 q 116 -275 90 -219 q 178 -406 142 -331 l 118 -424 q 51 -291 79 -354 q 24 -160 24 -228 q 65 -65 24 -104 q 171 -25 107 -25 q 249 -49 210 -25 q 299 -106 288 -72 q 347 -50 313 -75 q 425 -25 382 -25 q 533 -65 490 -25 q 575 -160 575 -104 q 540 -262 575 -217 q 506 -342 506 -307 q 519 -366 506 -361 q 551 -371 533 -371 l 564 -371 l 549 -424 l 525 -424 q 492 -432 507 -424 q 478 -457 478 -440 q 497 -488 478 -479 q 539 -497 517 -497 l 564 -497 l 540 -547 l 528 -547 q 452 -527 490 -547 q 414 -457 414 -507 q 425 -417 414 -435 q 454 -390 436 -400 q 445 -372 449 -382 q 442 -353 442 -362 q 476 -256 442 -299 q 510 -164 510 -212 q 487 -106 510 -131 q 425 -82 464 -82 q 360 -112 389 -82 q 331 -192 331 -142 z "},"।":{"ha":456,"x_min":194,"x_max":261,"o":"m 261 1047 l 261 -22 l 194 0 l 194 1069 l 261 1047 z "},"॥":{"ha":832,"x_min":194,"x_max":638,"o":"m 638 1047 l 638 -22 l 571 0 l 571 1069 l 638 1047 m 261 1047 l 261 -22 l 194 0 l 194 1069 l 261 1047 z "},"०":{"ha":961,"x_min":89,"x_max":872,"o":"m 89 471 q 200 749 89 633 q 481 864 311 864 q 760 749 649 864 q 872 471 872 633 q 760 194 872 310 q 481 79 649 79 q 200 194 311 79 q 89 471 89 310 m 158 471 q 248 236 158 336 q 481 136 338 136 q 713 236 624 136 q 803 471 803 336 q 715 707 803 607 q 481 807 628 807 q 248 707 338 807 q 158 471 158 607 z "},"१":{"ha":507,"x_min":75,"x_max":463,"o":"m 76 433 l 249 569 q 142 646 189 594 q 94 768 94 697 q 146 908 94 851 q 275 964 197 964 q 413 910 363 964 q 463 778 463 856 q 419 656 463 714 q 286 522 376 599 l 146 403 l 144 396 l 413 0 l 344 -25 l 75 397 l 76 433 m 278 908 q 194 866 226 908 q 163 768 163 824 q 205 667 163 704 q 296 611 247 629 q 371 699 349 660 q 393 771 393 739 q 361 873 393 838 q 278 908 329 908 z "},"२":{"ha":657,"x_min":83,"x_max":590,"o":"m 311 964 q 525 874 460 964 q 590 688 590 783 q 519 494 590 585 q 297 381 447 403 l 535 0 l 467 -25 l 226 375 l 175 375 q 147 387 160 375 q 133 410 133 399 q 161 490 133 454 q 229 526 189 526 q 260 513 247 526 q 281 476 274 499 l 290 444 q 460 528 399 454 q 521 683 521 603 q 467 840 521 771 q 314 910 414 910 q 192 881 246 910 q 114 836 138 853 l 83 883 q 147 924 85 883 q 311 964 208 964 z "},"३":{"ha":688,"x_min":67,"x_max":613,"o":"m 101 881 q 210 940 146 917 q 353 964 274 964 q 532 902 469 964 q 594 753 594 840 q 549 636 594 688 q 449 568 503 585 q 565 492 517 550 q 613 358 613 433 q 528 185 613 249 q 311 121 444 121 q 289 122 301 121 q 263 125 276 122 l 404 -51 l 361 -79 l 183 149 q 106 198 144 165 q 67 269 67 231 q 75 297 67 282 q 103 311 83 311 q 168 289 135 311 q 233 188 201 267 q 278 181 256 182 q 314 179 300 179 q 486 231 428 179 q 544 358 544 283 q 483 485 544 426 q 297 543 422 543 l 189 543 l 169 597 l 306 597 q 465 640 404 597 q 526 750 526 682 q 479 861 526 813 q 349 910 432 910 q 222 889 278 910 q 114 826 167 868 l 101 881 z "},"४":{"ha":883,"x_min":33,"x_max":850,"o":"m 85 964 q 256 782 157 889 q 442 575 354 675 q 628 782 529 675 q 799 964 726 889 l 850 928 q 672 738 771 851 q 486 529 572 625 q 617 349 565 436 q 669 186 669 261 q 609 33 669 92 q 442 -25 549 -25 q 274 33 335 -25 q 214 186 214 92 q 266 349 214 261 q 397 529 318 436 q 212 738 311 625 q 33 928 113 851 l 85 964 m 600 186 q 549 333 600 251 q 442 489 499 414 q 334 333 385 414 q 283 186 283 251 q 329 77 283 124 q 442 31 375 31 q 554 77 508 31 q 600 186 600 124 z "},"५":{"ha":631,"x_min":94,"x_max":611,"o":"m 293 47 q 346 35 324 38 q 403 32 368 32 q 503 63 463 32 q 543 163 543 93 q 515 290 543 225 q 464 385 486 356 q 427 378 446 381 q 389 375 408 375 q 171 451 247 375 q 94 665 94 528 l 94 944 l 161 944 l 161 647 q 222 492 161 551 q 389 433 283 433 q 406 433 397 433 q 424 435 415 433 q 408 463 414 449 q 403 492 403 478 q 419 537 403 518 q 460 556 435 556 q 527 529 501 556 q 553 481 553 503 q 546 444 553 464 q 518 407 539 425 q 581 299 551 365 q 611 158 611 232 q 560 27 611 76 q 403 -22 508 -22 q 335 -18 363 -22 q 272 -1 307 -14 l 293 47 z "},"६":{"ha":738,"x_min":101,"x_max":685,"o":"m 119 753 q 182 902 119 840 q 361 964 244 964 q 504 940 440 964 q 613 881 568 917 l 600 826 q 492 889 547 868 q 365 910 436 910 q 235 861 282 910 q 188 750 188 813 q 249 640 188 682 q 408 597 310 597 l 525 597 l 543 543 l 417 543 q 231 485 292 543 q 169 358 169 426 q 228 231 169 283 q 400 179 286 179 q 444 181 417 179 q 497 192 472 183 q 483 224 488 211 q 479 247 479 238 q 497 288 479 276 q 536 300 515 300 q 601 283 567 300 q 635 235 635 265 q 621 193 635 215 q 581 150 607 171 l 685 -29 l 631 -60 l 522 143 q 471 128 500 135 q 403 121 442 121 q 185 185 269 121 q 101 358 101 249 q 149 492 101 433 q 265 568 197 550 q 165 636 211 585 q 119 753 119 688 z "},"७":{"ha":958,"x_min":61,"x_max":872,"o":"m 376 638 q 422 515 376 571 q 564 458 468 458 q 699 507 639 458 q 782 615 758 556 q 708 759 760 699 q 565 819 657 819 q 428 763 481 819 q 376 638 376 706 m 464 31 q 702 144 599 31 q 806 421 806 258 q 803 474 806 447 q 799 528 801 501 q 704 444 768 485 q 557 404 640 404 q 378 469 446 404 q 310 629 310 533 q 381 803 310 733 q 569 874 453 874 q 795 744 718 874 q 872 424 872 614 q 753 110 872 246 q 463 -25 633 -25 q 169 88 276 -25 q 61 397 61 200 l 128 397 q 215 131 128 232 q 464 31 303 31 z "},"८":{"ha":746,"x_min":75,"x_max":679,"o":"m 143 281 q 217 98 143 167 q 396 29 290 29 q 540 84 460 29 q 624 296 621 139 l 679 279 q 620 82 679 189 q 383 -25 561 -25 q 154 65 233 -25 q 75 274 75 156 q 196 633 75 443 q 465 964 317 824 l 507 919 q 249 599 356 781 q 143 281 143 418 z "},"९":{"ha":622,"x_min":67,"x_max":569,"o":"m 317 910 q 180 851 235 910 q 125 710 125 792 q 128 669 125 694 q 147 607 132 644 q 236 563 190 576 q 322 550 282 550 q 458 606 413 550 q 503 731 503 663 q 458 853 503 796 q 317 910 413 910 m 569 738 q 499 568 569 642 q 321 494 429 494 q 245 508 282 494 q 179 540 208 521 q 219 476 196 511 q 275 400 243 442 q 412 228 365 282 q 458 107 458 175 q 419 13 458 49 q 319 -36 379 -24 l 306 14 q 370 55 350 28 q 390 104 390 82 q 356 199 390 150 q 210 392 322 247 q 101 563 135 488 q 67 710 67 639 q 134 888 67 813 q 319 964 201 964 q 501 899 432 964 q 569 738 569 833 z "},"॰":{"ha":767,"x_min":67,"x_max":700,"o":"m 385 714 q 608 620 515 714 q 700 390 700 526 q 608 164 700 257 q 383 71 515 71 q 158 165 250 71 q 67 399 67 260 q 158 623 67 532 q 385 714 250 714 m 383 128 q 563 209 496 128 q 631 393 631 290 q 563 576 631 494 q 383 657 494 657 q 204 576 272 657 q 136 393 136 494 q 203 209 136 290 q 383 128 271 128 z "},"ॱ":{"ha":182,"x_min":39,"x_max":143,"o":"m 90 361 q 53 376 68 361 q 39 411 39 390 q 53 448 39 433 q 90 463 68 463 q 128 448 113 463 q 143 411 143 433 q 128 376 143 390 q 90 361 113 361 z "},"ॲ":{"ha":1199,"x_min":97,"x_max":1267,"o":"m 1218 1278 l 1267 1253 q 1150 1115 1219 1161 q 990 1068 1081 1068 q 828 1115 899 1068 q 711 1253 758 1161 l 760 1278 q 860 1161 799 1200 q 990 1122 922 1122 q 1117 1161 1057 1122 q 1218 1278 1178 1200 m 956 0 l 956 460 l 561 460 q 644 360 613 421 q 676 249 676 300 q 596 53 676 128 q 358 -22 515 -22 q 210 2 279 -22 q 97 57 140 26 l 114 117 q 228 58 165 82 q 363 35 290 35 q 538 94 471 35 q 606 246 606 153 q 547 397 606 335 q 413 463 488 458 l 239 463 l 219 511 l 400 511 q 535 574 486 511 q 583 714 583 638 q 531 851 583 796 q 378 907 478 907 q 243 881 307 907 q 126 814 179 856 l 114 874 q 224 937 158 910 q 376 964 289 964 q 588 887 521 964 q 656 707 656 810 q 628 603 656 656 q 546 514 600 550 l 956 514 l 956 890 l 783 890 l 764 944 l 1192 944 l 1214 890 l 1022 890 l 1022 -22 l 956 0 z "},"ॳ":{"ha":1199,"x_min":97,"x_max":1214,"o":"m 956 0 l 956 460 l 561 460 q 644 360 613 421 q 676 249 676 300 q 596 53 676 128 q 358 -22 515 -22 q 210 2 279 -22 q 97 57 140 26 l 114 117 q 228 58 165 82 q 363 35 290 35 q 538 94 471 35 q 606 246 606 153 q 547 397 606 335 q 413 463 488 458 l 239 463 l 219 511 l 408 511 q 537 575 490 511 q 583 714 583 639 q 531 851 583 796 q 378 907 478 907 q 243 881 307 907 q 126 814 179 856 l 114 874 q 224 937 158 910 q 376 964 289 964 q 588 887 521 964 q 656 707 656 810 q 628 603 656 656 q 546 514 600 550 l 956 514 l 956 890 l 783 890 l 764 944 l 954 944 l 954 1246 l 1021 1224 l 1021 944 l 1192 944 l 1214 890 l 1022 890 l 1022 -22 l 956 0 z "},"ॴ":{"ha":1597,"x_min":97,"x_max":1613,"o":"m 956 0 l 956 460 l 561 460 q 644 360 613 421 q 676 249 676 300 q 596 53 676 128 q 358 -22 515 -22 q 210 2 279 -22 q 97 57 140 26 l 114 117 q 228 58 165 82 q 363 35 290 35 q 538 94 471 35 q 606 246 606 153 q 547 397 606 335 q 413 463 488 458 l 239 463 l 219 511 l 408 511 q 537 575 490 511 q 583 714 583 639 q 531 851 583 796 q 378 907 478 907 q 243 881 307 907 q 126 814 179 856 l 114 874 q 224 937 158 910 q 376 964 289 964 q 588 887 521 964 q 656 707 656 810 q 628 603 656 656 q 546 514 600 550 l 956 514 l 956 890 l 783 890 l 764 944 l 1356 944 l 1356 1246 l 1422 1224 l 1422 944 l 1590 944 l 1613 890 l 1421 890 l 1421 -22 l 1354 0 l 1354 890 l 1022 890 l 1022 -22 l 956 0 z "},"ॹ":{"ha":1017,"x_min":-15,"x_max":1032,"o":"m 586 382 q 504 181 586 253 q 286 110 422 110 q 135 134 203 110 q 24 189 68 158 l 42 251 q 153 192 90 214 q 286 169 215 169 q 455 229 396 169 q 514 382 514 289 q 452 523 514 467 q 293 579 390 579 l 178 579 l 154 633 l 774 633 l 774 890 l 4 890 l -15 944 l 1010 944 l 1032 890 l 840 890 l 840 -22 l 774 0 l 774 579 l 476 579 q 557 503 528 560 q 586 382 586 446 m 379 -46 q 342 -31 357 -46 q 328 4 328 -17 q 342 41 328 26 q 379 56 357 56 q 417 41 401 56 q 432 4 432 26 q 417 -31 432 -17 q 379 -46 401 -46 m 199 -46 q 162 -31 176 -46 q 147 4 147 -17 q 162 41 147 26 q 199 56 176 56 q 236 41 221 56 q 251 4 251 26 q 236 -31 251 -17 q 199 -46 221 -46 m 282 -172 q 245 -158 260 -172 q 231 -122 231 -143 q 245 -85 231 -100 q 282 -71 260 -71 q 319 -85 304 -71 q 335 -122 335 -100 q 319 -158 335 -143 q 282 -172 304 -172 z "},"ॺ":{"ha":842,"x_min":-15,"x_max":857,"o":"m 599 0 l 599 332 q 512 268 574 289 q 386 247 450 247 q 178 326 264 247 q 93 504 93 404 l 110 524 q 188 588 153 536 q 224 717 224 640 q 199 824 224 775 q 128 890 175 872 l 4 890 l -15 944 l 835 944 l 857 890 l 665 890 l 665 -22 l 599 0 m 225 890 l 597 451 q 598 464 597 457 q 599 478 599 471 l 599 890 l 225 890 m 157 478 q 245 351 182 393 q 386 306 308 310 q 503 327 451 306 q 579 394 554 349 l 289 732 q 290 720 289 726 q 290 708 290 714 q 256 576 290 642 q 157 478 222 511 z "},"ॻ":{"ha":815,"x_min":-15,"x_max":831,"o":"m 249 890 l 249 313 q 238 267 249 283 q 208 250 228 250 q 124 288 161 250 q 88 367 88 325 q 101 396 88 385 q 133 407 115 407 l 182 407 l 182 890 l 4 890 l -15 944 l 808 944 l 831 890 l 639 890 l 639 -22 l 572 0 l 572 890 l 249 890 m 682 -175 l 126 -175 l 107 -121 l 660 -121 l 682 -175 z "},"ॼ":{"ha":1017,"x_min":-15,"x_max":1032,"o":"m 586 382 q 504 181 586 253 q 286 110 422 110 q 135 134 203 110 q 24 189 68 158 l 42 251 q 153 192 90 214 q 286 169 215 169 q 455 229 396 169 q 514 382 514 289 q 452 523 514 467 q 293 579 390 579 l 178 579 l 154 633 l 774 633 l 774 890 l 4 890 l -15 944 l 1010 944 l 1032 890 l 840 890 l 840 -22 l 774 0 l 774 579 l 476 579 q 557 503 528 560 q 586 382 586 446 m 868 -175 l 68 -175 l 49 -121 l 846 -121 l 868 -175 z "},"ॽ":{"ha":739,"x_min":83,"x_max":672,"o":"m 374 964 q 598 883 524 964 q 672 693 672 801 q 591 512 672 600 q 381 379 510 424 l 381 26 l 314 49 l 314 413 q 517 528 432 449 q 601 694 601 607 q 546 846 601 785 q 371 907 490 907 q 215 878 288 907 q 94 814 143 850 l 83 874 q 206 937 131 910 q 374 964 282 964 z "},"ॾ":{"ha":738,"x_min":-15,"x_max":753,"o":"m 110 115 q 235 56 160 81 q 383 29 310 31 q 553 78 493 29 q 614 204 614 126 q 567 324 614 271 q 424 378 519 378 l 285 378 q 146 424 204 378 q 88 547 88 471 q 146 674 88 631 q 293 717 204 717 l 522 717 l 522 890 l 4 890 l -15 944 l 731 944 l 753 890 l 589 890 l 589 663 l 275 663 q 189 626 221 663 q 157 547 157 590 q 190 467 157 501 q 278 432 224 432 l 411 432 q 604 374 526 432 q 682 213 682 317 q 613 42 682 111 q 383 -26 544 -26 q 216 -1 299 -26 q 93 53 133 24 l 110 115 m 679 -175 l 110 -175 l 90 -121 l 657 -121 l 679 -175 z "},"ॿ":{"ha":804,"x_min":-15,"x_max":819,"o":"m 561 0 l 561 231 q 478 172 531 197 q 357 146 426 146 q 140 218 231 146 q 50 428 50 290 q 140 638 50 565 q 357 710 231 710 q 478 684 426 710 q 561 625 531 658 l 561 890 l 4 890 l -15 944 l 797 944 l 819 890 l 628 890 l 628 -22 l 561 0 m 218 611 l 524 276 q 545 304 536 290 q 561 332 554 318 l 561 524 q 489 611 539 569 q 353 653 439 653 q 280 642 314 653 q 218 611 246 631 m 122 428 q 190 267 122 332 q 353 203 257 203 q 426 213 393 203 q 485 242 460 224 l 178 575 q 137 508 151 546 q 122 428 122 471 m 681 -175 l 89 -175 l 69 -121 l 658 -121 l 681 -175 z "}}}
